STARTFONT 2.1
COMMENT
COMMENT Converted from TrueType font "GOTHIC.TTF" by "ttf2bdf 2.6".
COMMENT
FONT -FreeType-Century Gothic-Medium-R-Normal--25-180-100-100-P-128-ISO10646-1
SIZE 18 100 100
FONTBOUNDINGBOX 34 36 -5 -8
STARTPROPERTIES 21
FOUNDRY "FreeType"
FAMILY_NAME "Century Gothic"
WEIGHT_NAME "Medium"
SLANT "R"
SETWIDTH_NAME "Normal"
ADD_STYLE_NAME ""
PIXEL_SIZE 25
POINT_SIZE 180
RESOLUTION_X 100
RESOLUTION_Y 100
SPACING "P"
AVERAGE_WIDTH 128
CHARSET_REGISTRY "ISO10646"
CHARSET_ENCODING "1"
FONT_ASCENT 25
FONT_DESCENT 5
COPYRIGHT "Typeface © The Monotype Corporation plc. Data © The Monotype Corporation plc / Type Solutions Inc. 1990-91 All Rights Reserved"
_TTF_FONTFILE "GOTHIC.TTF"
_TTF_PSNAME "CenturyGothic"
_XFREE86_GLYPH_RANGES "32_126 160_383 402 506_511 710_711 713 728_733 894 900_906 908 910_929 931_974 1025_1036 1038_1103 1105_1116 1118_1119 1168_1169 7808_7813 7922_7923 8211_8213 8215_8222 8224_8226 8230 8240 8242_8243 8249_8250 8252 8254 8260 8319 8355_8356 8359 8364 8453 8467 8470 8482 8486 8494 8539_8542 8592_8597 8616 8706 8710 8719 8721_8722 8725 8729_8730 8734_8735 8745 8747 8776 8800_8801 8804_8805 8962 8976 8992_8993 9472 9474 9484 9488 9492 9496 9500 9508 9516 9524 9532 9552_9580 9600 9604 9608"
_XFREE86_GLYPH_RANGES "9612 9616_9619 9632_9633 9642_9644 9650 9658 9660 9668 9674_9675 9679 9688_9689 9702 9786_9788 9792 9794 9824 9827 9829_9830 9834_9835 61440_61446 61696_61704 64257_64258"
ENDPROPERTIES
CHARS 668
STARTCHAR 0020
ENCODING 32
SWIDTH 240 0
DWIDTH 6 0
BBX 1 1 0 0
BITMAP
00
ENDCHAR
STARTCHAR 0021
ENCODING 33
SWIDTH 360 0
DWIDTH 9 0
BBX 4 18 2 0
BITMAP
60
60
60
60
60
60
60
60
60
60
60
60
60
00
00
60
F0
60
ENDCHAR
STARTCHAR 0022
ENCODING 34
SWIDTH 320 0
DWIDTH 8 0
BBX 7 6 0 12
BITMAP
C6
C6
C6
C6
C6
C6
ENDCHAR
STARTCHAR 0023
ENCODING 35
SWIDTH 720 0
DWIDTH 18 0
BBX 13 18 2 0
BITMAP
0660
0660
0660
0CC0
0CC0
7FF8
7FF8
0CC0
0CC0
1980
1980
FFF0
FFF0
1980
1980
3300
3300
3300
ENDCHAR
STARTCHAR 0024
ENCODING 36
SWIDTH 560 0
DWIDTH 14 0
BBX 12 23 1 -4
BITMAP
0300
0F80
3FC0
7360
6320
6300
6300
3B00
1F00
0780
03C0
0360
0330
0330
8330
C330
7370
3FE0
0FC0
0300
0300
0300
0300
ENDCHAR
STARTCHAR 0025
ENCODING 37
SWIDTH 760 0
DWIDTH 19 0
BBX 18 19 0 -1
BITMAP
3C0700
7FFE00
E7EC00
C30C00
C31800
C33000
E77000
7E6000
3CC000
01CF00
019F80
0339C0
0630C0
0630C0
0C30C0
1839C0
181F80
300F00
600000
ENDCHAR
STARTCHAR 0026
ENCODING 38
SWIDTH 760 0
DWIDTH 19 0
BBX 16 18 2 0
BITMAP
0F00
1F80
39C0
30C0
30C0
1980
1B00
0E00
1E00
3B00
7180
60C4
C06C
C038
C038
E0EC
7FCE
3F07
ENDCHAR
STARTCHAR 0027
ENCODING 39
SWIDTH 200 0
DWIDTH 5 0
BBX 2 6 1 12
BITMAP
C0
C0
C0
C0
C0
C0
ENDCHAR
STARTCHAR 0028
ENCODING 40
SWIDTH 360 0
DWIDTH 9 0
BBX 4 23 4 -5
BITMAP
30
60
60
60
60
60
C0
C0
C0
C0
C0
C0
C0
C0
C0
C0
C0
C0
C0
C0
60
60
60
ENDCHAR
STARTCHAR 0029
ENCODING 41
SWIDTH 400 0
DWIDTH 10 0
BBX 5 23 1 -5
BITMAP
60
30
30
30
30
18
18
18
18
18
18
18
18
18
18
18
30
30
30
30
60
60
C0
ENDCHAR
STARTCHAR 002A
ENCODING 42
SWIDTH 400 0
DWIDTH 10 0
BBX 8 8 1 10
BITMAP
18
18
DB
3C
3C
DB
18
18
ENDCHAR
STARTCHAR 002B
ENCODING 43
SWIDTH 600 0
DWIDTH 15 0
BBX 12 12 1 3
BITMAP
0600
0600
0600
0600
0600
FFF0
FFF0
0600
0600
0600
0600
0600
ENDCHAR
STARTCHAR 002C
ENCODING 44
SWIDTH 280 0
DWIDTH 7 0
BBX 4 6 1 -3
BITMAP
20
30
60
60
C0
C0
ENDCHAR
STARTCHAR 002D
ENCODING 45
SWIDTH 320 0
DWIDTH 8 0
BBX 7 2 0 6
BITMAP
FE
FE
ENDCHAR
STARTCHAR 002E
ENCODING 46
SWIDTH 280 0
DWIDTH 7 0
BBX 3 3 2 0
BITMAP
E0
E0
E0
ENDCHAR
STARTCHAR 002F
ENCODING 47
SWIDTH 440 0
DWIDTH 11 0
BBX 9 20 1 -2
BITMAP
0180
0300
0300
0300
0600
0600
0600
0C00
0C00
0C00
1800
1800
1800
3000
3000
3000
6000
6000
6000
C000
ENDCHAR
STARTCHAR 0030
ENCODING 48
SWIDTH 560 0
DWIDTH 14 0
BBX 12 18 1 0
BITMAP
0F00
3FC0
70C0
6060
E060
C030
C030
C030
C030
C030
C030
C030
C030
E060
6060
70C0
3FC0
0F00
ENDCHAR
STARTCHAR 0031
ENCODING 49
SWIDTH 560 0
DWIDTH 14 0
BBX 5 18 3 0
BITMAP
78
F8
18
18
18
18
18
18
18
18
18
18
18
18
18
18
18
18
ENDCHAR
STARTCHAR 0032
ENCODING 50
SWIDTH 560 0
DWIDTH 14 0
BBX 12 18 1 0
BITMAP
0F80
1FC0
38E0
7070
6030
6030
0030
0060
0060
00C0
0180
0300
0600
0C00
1800
3000
7FF0
FFF0
ENDCHAR
STARTCHAR 0033
ENCODING 51
SWIDTH 560 0
DWIDTH 14 0
BBX 12 18 1 0
BITMAP
0F00
1FC0
38C0
7060
6060
0060
01C0
0780
07C0
00E0
0070
0030
C030
C030
6070
70E0
3FC0
0F00
ENDCHAR
STARTCHAR 0034
ENCODING 52
SWIDTH 560 0
DWIDTH 14 0
BBX 12 18 1 0
BITMAP
0040
0040
00C0
01C0
03C0
03C0
06C0
0EC0
0CC0
18C0
30C0
30C0
7FF0
FFF0
00C0
00C0
00C0
00C0
ENDCHAR
STARTCHAR 0035
ENCODING 53
SWIDTH 560 0
DWIDTH 14 0
BBX 12 18 1 0
BITMAP
0FE0
0FE0
1800
1800
1800
1800
1F80
3FC0
20E0
0070
0030
0030
0030
C030
E060
70E0
3FC0
1F00
ENDCHAR
STARTCHAR 0036
ENCODING 54
SWIDTH 560 0
DWIDTH 14 0
BBX 11 18 2 0
BITMAP
0100
0300
0600
0600
0C00
1800
1800
3F00
7F80
61C0
E0E0
C060
C060
C060
E0E0
71C0
3F80
1F00
ENDCHAR
STARTCHAR 0037
ENCODING 55
SWIDTH 560 0
DWIDTH 14 0
BBX 11 18 2 0
BITMAP
FFE0
FFC0
00C0
0180
0380
0300
0600
0600
0C00
0C00
1800
1800
3000
7000
6000
C000
C000
8000
ENDCHAR
STARTCHAR 0038
ENCODING 56
SWIDTH 560 0
DWIDTH 14 0
BBX 12 18 1 0
BITMAP
0F00
3FC0
70C0
6060
6060
6060
30C0
1F80
1F80
70E0
6060
C030
C030
C030
E070
70E0
3FC0
1F80
ENDCHAR
STARTCHAR 0039
ENCODING 57
SWIDTH 560 0
DWIDTH 14 0
BBX 11 18 1 0
BITMAP
1F00
3F80
71C0
E0E0
C060
C060
C060
E0E0
70C0
3FC0
1F80
0300
0300
0600
0C00
0C00
1800
1000
ENDCHAR
STARTCHAR 003A
ENCODING 58
SWIDTH 280 0
DWIDTH 7 0
BBX 3 13 2 0
BITMAP
E0
E0
E0
00
00
00
00
00
00
00
E0
E0
E0
ENDCHAR
STARTCHAR 003B
ENCODING 59
SWIDTH 280 0
DWIDTH 7 0
BBX 4 16 1 -3
BITMAP
70
70
70
00
00
00
00
00
00
00
20
30
60
60
C0
C0
ENDCHAR
STARTCHAR 003C
ENCODING 60
SWIDTH 600 0
DWIDTH 15 0
BBX 12 13 1 2
BITMAP
0010
0070
01E0
0F80
3E00
F800
C000
F800
3E00
0F80
01E0
0070
0010
ENDCHAR
STARTCHAR 003D
ENCODING 61
SWIDTH 600 0
DWIDTH 15 0
BBX 12 8 1 5
BITMAP
FFF0
FFF0
0000
0000
0000
0000
FFF0
FFF0
ENDCHAR
STARTCHAR 003E
ENCODING 62
SWIDTH 600 0
DWIDTH 15 0
BBX 12 13 1 2
BITMAP
8000
E000
7800
1F00
07C0
01F0
0030
01F0
07C0
1F00
7800
E000
8000
ENDCHAR
STARTCHAR 003F
ENCODING 63
SWIDTH 600 0
DWIDTH 15 0
BBX 10 18 2 0
BITMAP
1F00
7F80
71C0
E0C0
C0C0
C1C0
0380
1E00
3800
6000
6180
7380
3F00
1E00
0000
0E00
0E00
0E00
ENDCHAR
STARTCHAR 0040
ENCODING 64
SWIDTH 880 0
DWIDTH 22 0
BBX 19 18 1 0
BITMAP
01F800
0E0600
180180
2000C0
400040
41EE20
87FC20
870C20
8C0C20
8C0C20
8C0C40
8E1C40
47FC80
63EF00
300040
180080
060300
01FC00
ENDCHAR
STARTCHAR 0041
ENCODING 65
SWIDTH 760 0
DWIDTH 19 0
BBX 17 18 1 0
BITMAP
008000
01C000
01C000
03E000
036000
036000
063000
063000
0C1800
0C1800
1FFC00
1FFC00
380600
300600
300600
600300
600300
C00180
ENDCHAR
STARTCHAR 0042
ENCODING 66
SWIDTH 560 0
DWIDTH 14 0
BBX 10 18 2 0
BITMAP
FC00
FF00
C380
C180
C180
C180
C180
C300
FE00
FF00
C380
C0C0
C0C0
C0C0
C0C0
C180
FF80
FE00
ENDCHAR
STARTCHAR 0043
ENCODING 67
SWIDTH 800 0
DWIDTH 20 0
BBX 16 18 2 0
BITMAP
03F0
0FFC
1C1E
3807
7002
6000
C000
C000
C000
C000
C000
C000
6000
7002
3807
3C1E
0FFC
03F0
ENDCHAR
STARTCHAR 0044
ENCODING 68
SWIDTH 760 0
DWIDTH 19 0
BBX 15 18 2 0
BITMAP
FF80
FFE0
C0F0
C038
C01C
C00C
C006
C006
C006
C006
C006
C006
C00C
C00C
C01C
C078
FFF0
FFC0
ENDCHAR
STARTCHAR 0045
ENCODING 69
SWIDTH 520 0
DWIDTH 13 0
BBX 10 18 2 0
BITMAP
FFC0
FFC0
C000
C000
C000
C000
C000
FFC0
FFC0
C000
C000
C000
C000
C000
C000
C000
FFC0
FFC0
ENDCHAR
STARTCHAR 0046
ENCODING 70
SWIDTH 480 0
DWIDTH 12 0
BBX 9 18 2 0
BITMAP
FF80
FF80
C000
C000
C000
C000
C000
FF80
FF80
C000
C000
C000
C000
C000
C000
C000
C000
C000
ENDCHAR
STARTCHAR 0047
ENCODING 71
SWIDTH 880 0
DWIDTH 22 0
BBX 18 18 2 0
BITMAP
03F000
0FFC00
1E0F00
380380
700100
600000
C00000
C00000
C00000
C01FC0
C01FC0
E000C0
600080
700180
380380
1E0F00
0FFE00
03F800
ENDCHAR
STARTCHAR 0048
ENCODING 72
SWIDTH 680 0
DWIDTH 17 0
BBX 13 18 2 0
BITMAP
C018
C018
C018
C018
C018
C018
C018
FFF8
FFF8
C018
C018
C018
C018
C018
C018
C018
C018
C018
ENDCHAR
STARTCHAR 0049
ENCODING 73
SWIDTH 240 0
DWIDTH 6 0
BBX 2 18 2 0
BITMAP
C0
C0
C0
C0
C0
C0
C0
C0
C0
C0
C0
C0
C0
C0
C0
C0
C0
C0
ENDCHAR
STARTCHAR 004A
ENCODING 74
SWIDTH 480 0
DWIDTH 12 0
BBX 9 18 1 0
BITMAP
0180
0180
0180
0180
0180
0180
0180
0180
0180
0180
0180
0180
0180
0180
C180
E380
7F00
1E00
ENDCHAR
STARTCHAR 004B
ENCODING 75
SWIDTH 600 0
DWIDTH 15 0
BBX 12 18 2 0
BITMAP
C060
C0C0
C180
C300
CE00
DC00
F800
F000
E000
F000
D800
CC00
C600
C300
C180
C0C0
C060
C030
ENDCHAR
STARTCHAR 004C
ENCODING 76
SWIDTH 480 0
DWIDTH 12 0
BBX 9 18 2 0
BITMAP
C000
C000
C000
C000
C000
C000
C000
C000
C000
C000
C000
C000
C000
C000
C000
C000
FF80
FF80
ENDCHAR
STARTCHAR 004D
ENCODING 77
SWIDTH 1000 0
DWIDTH 25 0
BBX 21 18 2 0
BITMAP
200020
300060
300060
3800E0
7800E0
6C01B0
6C01B0
660330
660330
630630
630630
618C30
618C30
E0D830
C0D818
C07018
C07018
C02018
ENDCHAR
STARTCHAR 004E
ENCODING 78
SWIDTH 760 0
DWIDTH 19 0
BBX 15 18 2 0
BITMAP
8006
C006
E006
F006
F006
D806
CC06
C606
C306
C186
C0C6
C066
C036
C01E
C01E
C00E
C006
C002
ENDCHAR
STARTCHAR 004F
ENCODING 79
SWIDTH 880 0
DWIDTH 22 0
BBX 18 18 2 0
BITMAP
03F000
0FFC00
1C0E00
380700
700380
600180
C000C0
C000C0
C000C0
C000C0
C000C0
C000C0
600180
700380
380700
1C0E00
0FFC00
03F000
ENDCHAR
STARTCHAR 0050
ENCODING 80
SWIDTH 600 0
DWIDTH 15 0
BBX 11 18 2 0
BITMAP
FF00
FFC0
C0C0
C060
C060
C060
C060
C0C0
FFC0
FF00
C000
C000
C000
C000
C000
C000
C000
C000
ENDCHAR
STARTCHAR 0051
ENCODING 81
SWIDTH 880 0
DWIDTH 22 0
BBX 18 19 2 -1
BITMAP
03F000
0FFC00
1C0E00
380700
700380
600180
C000C0
C000C0
C000C0
C000C0
C060C0
C031C0
601980
600F80
300700
1C1E00
0FFB00
03F180
0000C0
ENDCHAR
STARTCHAR 0052
ENCODING 82
SWIDTH 600 0
DWIDTH 15 0
BBX 11 18 2 0
BITMAP
FF00
FFC0
C0C0
C060
C060
C060
C060
C0C0
FFC0
FF00
D800
CC00
C600
C300
C300
C180
C0C0
C060
ENDCHAR
STARTCHAR 0053
ENCODING 83
SWIDTH 480 0
DWIDTH 12 0
BBX 10 18 0 0
BITMAP
1E00
3F80
71C0
6080
6000
6000
3000
1C00
0E00
0700
0380
01C0
00C0
40C0
C0C0
6180
3F80
1E00
ENDCHAR
STARTCHAR 0054
ENCODING 84
SWIDTH 440 0
DWIDTH 11 0
BBX 10 18 0 0
BITMAP
FFC0
FFC0
0C00
0C00
0C00
0C00
0C00
0C00
0C00
0C00
0C00
0C00
0C00
0C00
0C00
0C00
0C00
0C00
ENDCHAR
STARTCHAR 0055
ENCODING 85
SWIDTH 640 0
DWIDTH 16 0
BBX 12 18 2 0
BITMAP
C030
C030
C030
C030
C030
C030
C030
C030
C030
C030
C030
C030
C030
C030
E060
70E0
3FC0
1F80
ENDCHAR
STARTCHAR 0056
ENCODING 86
SWIDTH 760 0
DWIDTH 19 0
BBX 17 18 1 0
BITMAP
C00180
600300
600300
300600
300600
300E00
180C00
180C00
0C1800
0C1800
063000
063000
036000
036000
03E000
01C000
01C000
008000
ENDCHAR
STARTCHAR 0057
ENCODING 87
SWIDTH 920 0
DWIDTH 23 0
BBX 21 18 1 0
BITMAP
C02018
C07018
607030
607030
60D830
60D870
30D860
318C60
318C60
198CC0
1B06C0
1B06C0
1B06C0
0E0380
0E0380
0E0380
0C0180
040100
ENDCHAR
STARTCHAR 0058
ENCODING 88
SWIDTH 600 0
DWIDTH 15 0
BBX 13 18 1 0
BITMAP
C018
E038
6030
3060
38E0
18C0
0D80
0F80
0700
0700
0F80
0D80
18C0
38E0
3060
6030
E038
C018
ENDCHAR
STARTCHAR 0059
ENCODING 89
SWIDTH 640 0
DWIDTH 16 0
BBX 14 18 1 0
BITMAP
C00C
6018
3030
3030
1860
0CE0
0CC0
0780
0780
0300
0300
0300
0300
0300
0300
0300
0300
0300
ENDCHAR
STARTCHAR 005A
ENCODING 90
SWIDTH 480 0
DWIDTH 12 0
BBX 9 18 1 0
BITMAP
7F80
7F00
0300
0300
0600
0600
0E00
0C00
0C00
1800
1800
3800
3000
3000
6000
6000
7F80
FF80
ENDCHAR
STARTCHAR 005B
ENCODING 91
SWIDTH 360 0
DWIDTH 9 0
BBX 4 23 4 -5
BITMAP
F0
F0
C0
C0
C0
C0
C0
C0
C0
C0
C0
C0
C0
C0
C0
C0
C0
C0
C0
C0
C0
F0
F0
ENDCHAR
STARTCHAR 005C
ENCODING 92
SWIDTH 600 0
DWIDTH 15 0
BBX 14 20 0 -2
BITMAP
C000
6000
7000
3000
1800
1800
0C00
0E00
0600
0300
0300
0180
01C0
00C0
0060
0060
0030
0038
0018
000C
ENDCHAR
STARTCHAR 005D
ENCODING 93
SWIDTH 320 0
DWIDTH 8 0
BBX 4 23 1 -5
BITMAP
F0
F0
30
30
30
30
30
30
30
30
30
30
30
30
30
30
30
30
30
30
30
F0
F0
ENDCHAR
STARTCHAR 005E
ENCODING 94
SWIDTH 640 0
DWIDTH 16 0
BBX 13 14 1 4
BITMAP
0200
0700
0700
0F00
0D80
0D80
18C0
18C0
3060
3060
7060
6030
6030
C018
ENDCHAR
STARTCHAR 005F
ENCODING 95
SWIDTH 520 0
DWIDTH 13 0
BBX 13 2 0 -4
BITMAP
FFF8
FFF8
ENDCHAR
STARTCHAR 0060
ENCODING 96
SWIDTH 360 0
DWIDTH 9 0
BBX 5 4 1 16
BITMAP
E0
60
30
18
ENDCHAR
STARTCHAR 0061
ENCODING 97
SWIDTH 680 0
DWIDTH 17 0
BBX 14 13 1 0
BITMAP
0FCC
3FEC
787C
601C
E01C
C00C
C00C
C00C
E00C
601C
787C
3FEC
0FCC
ENDCHAR
STARTCHAR 0062
ENCODING 98
SWIDTH 680 0
DWIDTH 17 0
BBX 14 18 2 0
BITMAP
C000
C000
C000
C000
C000
C7C0
DFF0
F878
E018
C01C
C00C
C00C
C00C
C01C
E018
F878
DFF0
CFC0
ENDCHAR
STARTCHAR 0063
ENCODING 99
SWIDTH 640 0
DWIDTH 16 0
BBX 14 13 1 0
BITMAP
07E0
1FF8
381C
6008
E000
C000
C000
C000
E000
6008
783C
1FF0
0FE0
ENDCHAR
STARTCHAR 0064
ENCODING 100
SWIDTH 680 0
DWIDTH 17 0
BBX 14 18 1 0
BITMAP
000C
000C
000C
000C
000C
0F8C
3FEC
787C
601C
E01C
C00C
C00C
C00C
E00C
601C
787C
3FEC
0FCC
ENDCHAR
STARTCHAR 0065
ENCODING 101
SWIDTH 640 0
DWIDTH 16 0
BBX 14 13 1 0
BITMAP
0FC0
3FE0
7830
6018
C00C
FFFC
FFFC
C000
C000
6018
7038
3FF0
0FC0
ENDCHAR
STARTCHAR 0066
ENCODING 102
SWIDTH 320 0
DWIDTH 8 0
BBX 7 18 1 0
BITMAP
1E
3E
30
30
30
FE
FE
30
30
30
30
30
30
30
30
30
30
30
ENDCHAR
STARTCHAR 0067
ENCODING 103
SWIDTH 680 0
DWIDTH 17 0
BBX 14 18 1 -5
BITMAP
0FCC
3FEC
787C
601C
E00C
C00C
C00C
C00C
C00C
601C
787C
3FEC
0F8C
C00C
6018
7038
3FF0
0FC0
ENDCHAR
STARTCHAR 0068
ENCODING 104
SWIDTH 600 0
DWIDTH 15 0
BBX 11 18 2 0
BITMAP
C000
C000
C000
C000
C000
CF80
DFC0
F0C0
E060
C060
C060
C060
C060
C060
C060
C060
C060
C060
ENDCHAR
STARTCHAR 0069
ENCODING 105
SWIDTH 240 0
DWIDTH 6 0
BBX 4 18 1 0
BITMAP
60
F0
60
00
00
60
60
60
60
60
60
60
60
60
60
60
60
60
ENDCHAR
STARTCHAR 006A
ENCODING 106
SWIDTH 200 0
DWIDTH 5 0
BBX 5 23 -1 -5
BITMAP
30
78
30
00
00
30
30
30
30
30
30
30
30
30
30
30
30
30
30
30
30
F0
E0
ENDCHAR
STARTCHAR 006B
ENCODING 107
SWIDTH 520 0
DWIDTH 13 0
BBX 10 18 2 0
BITMAP
C000
C000
C000
C000
C000
C180
C300
C600
CC00
D800
F000
F000
D800
CC00
C600
C300
C180
C0C0
ENDCHAR
STARTCHAR 006C
ENCODING 108
SWIDTH 240 0
DWIDTH 6 0
BBX 2 18 2 0
BITMAP
C0
C0
C0
C0
C0
C0
C0
C0
C0
C0
C0
C0
C0
C0
C0
C0
C0
C0
ENDCHAR
STARTCHAR 006D
ENCODING 109
SWIDTH 960 0
DWIDTH 24 0
BBX 20 13 2 0
BITMAP
CF87C0
DFCFE0
F0D860
E07030
C06030
C06030
C06030
C06030
C06030
C06030
C06030
C06030
C06030
ENDCHAR
STARTCHAR 006E
ENCODING 110
SWIDTH 600 0
DWIDTH 15 0
BBX 11 13 2 0
BITMAP
CF80
DFC0
F0C0
E060
E060
C060
C060
C060
C060
C060
C060
C060
C060
ENDCHAR
STARTCHAR 006F
ENCODING 111
SWIDTH 640 0
DWIDTH 16 0
BBX 14 13 1 0
BITMAP
0FC0
3FE0
7878
6018
E01C
C00C
C00C
C00C
C01C
6018
7878
3FF0
0FC0
ENDCHAR
STARTCHAR 0070
ENCODING 112
SWIDTH 680 0
DWIDTH 17 0
BBX 14 18 2 -5
BITMAP
CFC0
DFF0
F878
E018
E01C
C00C
C00C
C00C
C01C
E018
F878
DFF0
C7C0
C000
C000
C000
C000
C000
ENDCHAR
STARTCHAR 0071
ENCODING 113
SWIDTH 680 0
DWIDTH 17 0
BBX 14 18 1 -5
BITMAP
0FCC
3FEC
787C
601C
E01C
C00C
C00C
C00C
E00C
601C
787C
3FEC
0F8C
000C
000C
000C
000C
000C
ENDCHAR
STARTCHAR 0072
ENCODING 114
SWIDTH 320 0
DWIDTH 8 0
BBX 7 13 1 0
BITMAP
DE
FC
F0
E0
C0
C0
C0
C0
C0
C0
C0
C0
C0
ENDCHAR
STARTCHAR 0073
ENCODING 115
SWIDTH 400 0
DWIDTH 10 0
BBX 8 13 1 0
BITMAP
1C
3F
62
60
60
38
1C
06
03
03
47
FE
3C
ENDCHAR
STARTCHAR 0074
ENCODING 116
SWIDTH 320 0
DWIDTH 8 0
BBX 6 18 1 0
BITMAP
30
30
30
30
30
FC
FC
30
30
30
30
30
30
30
30
30
30
30
ENDCHAR
STARTCHAR 0075
ENCODING 117
SWIDTH 600 0
DWIDTH 15 0
BBX 11 13 2 0
BITMAP
C060
C060
C060
C060
C060
C060
C060
C060
C060
E0E0
71C0
3F80
1F00
ENDCHAR
STARTCHAR 0076
ENCODING 118
SWIDTH 600 0
DWIDTH 15 0
BBX 13 13 1 0
BITMAP
C018
6030
6030
3060
3060
18C0
18C0
19C0
0D80
0D80
0700
0700
0200
ENDCHAR
STARTCHAR 0077
ENCODING 119
SWIDTH 880 0
DWIDTH 22 0
BBX 21 13 0 0
BITMAP
C02018
606030
607030
307060
30D860
18D8C0
1888C0
0D8CC0
0D8D80
0D0580
070700
070700
020200
ENDCHAR
STARTCHAR 0078
ENCODING 120
SWIDTH 480 0
DWIDTH 12 0
BBX 12 13 0 0
BITMAP
6060
30C0
1980
1980
0F00
0600
0F00
0F00
1980
30C0
30C0
6060
C030
ENDCHAR
STARTCHAR 0079
ENCODING 121
SWIDTH 520 0
DWIDTH 13 0
BBX 12 18 0 -5
BITMAP
C030
6060
6060
6060
30C0
30C0
1980
1980
1980
0F00
0F00
0700
0600
0600
0C00
0C00
0C00
1800
ENDCHAR
STARTCHAR 007A
ENCODING 122
SWIDTH 440 0
DWIDTH 11 0
BBX 11 13 0 0
BITMAP
7FE0
7FC0
0180
0380
0300
0600
0E00
0C00
1800
3800
3000
7FE0
FFE0
ENDCHAR
STARTCHAR 007B
ENCODING 123
SWIDTH 320 0
DWIDTH 8 0
BBX 6 23 1 -5
BITMAP
1C
3C
30
30
30
30
30
30
30
60
C0
C0
60
30
30
30
30
30
30
30
30
1C
1C
ENDCHAR
STARTCHAR 007C
ENCODING 124
SWIDTH 680 0
DWIDTH 17 0
BBX 2 23 7 -5
BITMAP
C0
C0
C0
C0
C0
C0
C0
C0
C0
C0
C0
C0
C0
C0
C0
C0
C0
C0
C0
C0
C0
C0
C0
ENDCHAR
STARTCHAR 007D
ENCODING 125
SWIDTH 280 0
DWIDTH 7 0
BBX 6 23 0 -5
BITMAP
E0
F0
30
30
30
30
30
30
30
18
0C
0C
18
30
30
30
30
30
30
30
30
E0
E0
ENDCHAR
STARTCHAR 007E
ENCODING 126
SWIDTH 600 0
DWIDTH 15 0
BBX 12 4 1 7
BITMAP
7800
FE10
87F0
01E0
ENDCHAR
STARTCHAR 00A0
ENCODING 160
SWIDTH 280 0
DWIDTH 7 0
BBX 1 1 0 0
BITMAP
00
ENDCHAR
STARTCHAR 00A1
ENCODING 161
SWIDTH 360 0
DWIDTH 9 0
BBX 4 18 2 -5
BITMAP
60
F0
60
00
00
60
60
60
60
60
60
60
60
60
60
60
60
60
ENDCHAR
STARTCHAR 00A2
ENCODING 162
SWIDTH 560 0
DWIDTH 14 0
BBX 13 19 1 -3
BITMAP
0018
0038
0030
0FE0
3FE0
78F8
60D0
C180
C180
C300
C600
C600
6C00
7C20
3FF0
1FC0
3000
6000
2000
ENDCHAR
STARTCHAR 00A3
ENCODING 163
SWIDTH 560 0
DWIDTH 14 0
BBX 13 18 0 0
BITMAP
07C0
0FE0
1C60
1830
1830
1800
1800
7FC0
7FC0
0C00
0C00
0C00
0C00
7C18
FC18
DF38
FBF0
70E0
ENDCHAR
STARTCHAR 00A4
ENCODING 164
SWIDTH 560 0
DWIDTH 14 0
BBX 13 13 0 0
BITMAP
4F90
FFF0
3060
6030
C018
C018
C018
C018
C018
6030
7070
FFD8
4F80
ENDCHAR
STARTCHAR 00A5
ENCODING 165
SWIDTH 560 0
DWIDTH 14 0
BBX 12 18 1 0
BITMAP
C030
6060
6060
30C0
30C0
1980
0F00
0F00
0600
7FE0
7FE0
0600
0600
7FE0
7FE0
0600
0600
0600
ENDCHAR
STARTCHAR 00A6
ENCODING 166
SWIDTH 680 0
DWIDTH 17 0
BBX 2 23 7 -5
BITMAP
C0
C0
C0
C0
C0
C0
C0
C0
C0
80
00
40
C0
C0
C0
C0
C0
C0
C0
C0
C0
C0
C0
ENDCHAR
STARTCHAR 00A7
ENCODING 167
SWIDTH 600 0
DWIDTH 15 0
BBX 10 23 1 -5
BITMAP
1E00
3F00
7380
6180
6000
7000
3800
1C00
6F00
C380
C1C0
C0C0
E0C0
7180
3F00
1C00
0600
0300
0300
C300
E700
7E00
3C00
ENDCHAR
STARTCHAR 00A8
ENCODING 168
SWIDTH 360 0
DWIDTH 9 0
BBX 8 3 0 16
BITMAP
E7
E7
E7
ENDCHAR
STARTCHAR 00A9
ENCODING 169
SWIDTH 760 0
DWIDTH 19 0
BBX 19 18 0 0
BITMAP
03F800
0FFE00
1E0F00
380380
71E1C0
63F0C0
E738E0
C61860
C60060
C60060
C61860
C738E0
63F0C0
71E1C0
380380
1E0F00
0FFE00
03F800
ENDCHAR
STARTCHAR 00AA
ENCODING 170
SWIDTH 360 0
DWIDTH 9 0
BBX 7 8 1 10
BITMAP
36
7E
EE
C6
C6
EE
7E
76
ENDCHAR
STARTCHAR 00AB
ENCODING 171
SWIDTH 400 0
DWIDTH 10 0
BBX 10 13 0 0
BITMAP
30C0
31C0
6180
6180
6180
C300
C300
C300
6180
6180
6180
71C0
30C0
ENDCHAR
STARTCHAR 00AC
ENCODING 172
SWIDTH 600 0
DWIDTH 15 0
BBX 12 7 1 6
BITMAP
FFF0
FFF0
0030
0030
0030
0030
0030
ENDCHAR
STARTCHAR 00AD
ENCODING 173
SWIDTH 320 0
DWIDTH 8 0
BBX 7 2 0 6
BITMAP
FE
FE
ENDCHAR
STARTCHAR 00AE
ENCODING 174
SWIDTH 760 0
DWIDTH 19 0
BBX 19 18 0 0
BITMAP
03F800
0FFE00
1E0F00
380380
7001C0
63F0C0
E3F8E0
C31860
C31060
C3F860
C3F860
C318E0
6318C0
7001C0
380380
1E0F00
0FFE00
03F800
ENDCHAR
STARTCHAR 00AF
ENCODING 175
SWIDTH 520 0
DWIDTH 13 0
BBX 15 1 -1 20
BITMAP
FFFE
ENDCHAR
STARTCHAR 00B0
ENCODING 176
SWIDTH 400 0
DWIDTH 10 0
BBX 9 8 0 10
BITMAP
3E00
7F00
E380
C180
C180
E380
7F00
3E00
ENDCHAR
STARTCHAR 00B1
ENCODING 177
SWIDTH 520 0
DWIDTH 13 0
BBX 12 16 0 0
BITMAP
0600
0600
0600
0600
0600
FFF0
FFF0
0600
0600
0600
0600
0600
0000
0000
FFF0
FFF0
ENDCHAR
STARTCHAR 00B2
ENCODING 178
SWIDTH 320 0
DWIDTH 8 0
BBX 7 9 0 9
BITMAP
1C
3E
66
66
0C
18
30
7E
FE
ENDCHAR
STARTCHAR 00B3
ENCODING 179
SWIDTH 360 0
DWIDTH 9 0
BBX 8 9 0 9
BITMAP
3C
7E
C6
06
1C
C3
E3
7F
3C
ENDCHAR
STARTCHAR 00B4
ENCODING 180
SWIDTH 360 0
DWIDTH 9 0
BBX 5 4 3 16
BITMAP
38
30
60
C0
ENDCHAR
STARTCHAR 00B5
ENCODING 181
SWIDTH 560 0
DWIDTH 14 0
BBX 10 18 2 -5
BITMAP
C0C0
C0C0
C0C0
C0C0
C0C0
C0C0
C0C0
C0C0
C0C0
C1C0
E1C0
FFC0
DEC0
C000
C000
C000
C000
C000
ENDCHAR
STARTCHAR 00B6
ENCODING 182
SWIDTH 640 0
DWIDTH 16 0
BBX 13 21 1 -3
BITMAP
1FF8
7E30
7E30
FE30
FE30
FE30
FE30
7E30
7E30
3E30
0630
0630
0630
0630
0630
0630
0630
0630
0630
0630
0630
ENDCHAR
STARTCHAR 00B7
ENCODING 183
SWIDTH 320 0
DWIDTH 8 0
BBX 3 3 6 8
BITMAP
E0
E0
E0
ENDCHAR
STARTCHAR 00B8
ENCODING 184
SWIDTH 320 0
DWIDTH 8 0
BBX 5 4 1 -4
BITMAP
20
38
18
F0
ENDCHAR
STARTCHAR 00B9
ENCODING 185
SWIDTH 320 0
DWIDTH 8 0
BBX 4 9 2 9
BITMAP
70
F0
30
30
30
30
30
30
30
ENDCHAR
STARTCHAR 00BA
ENCODING 186
SWIDTH 360 0
DWIDTH 9 0
BBX 8 8 0 10
BITMAP
3C
7E
E7
C3
C3
E7
7E
3C
ENDCHAR
STARTCHAR 00BB
ENCODING 187
SWIDTH 400 0
DWIDTH 10 0
BBX 10 13 0 0
BITMAP
C300
C300
6180
6180
6180
30C0
30C0
30C0
6180
6180
6180
E300
C300
ENDCHAR
STARTCHAR 00BC
ENCODING 188
SWIDTH 840 0
DWIDTH 21 0
BBX 18 18 2 0
BITMAP
700300
F00600
300C00
300C00
301800
303000
303000
306000
30C000
00C080
018180
030380
030780
060F80
0C1FC0
0C3FC0
180180
300180
ENDCHAR
STARTCHAR 00BD
ENCODING 189
SWIDTH 840 0
DWIDTH 21 0
BBX 17 18 1 0
BITMAP
700300
F00600
300C00
300C00
301800
303000
303000
306000
30C000
00C700
018F80
031980
031980
060300
0C0600
0C0C00
181F80
303F80
ENDCHAR
STARTCHAR 00BE
ENCODING 190
SWIDTH 840 0
DWIDTH 21 0
BBX 20 18 0 0
BITMAP
3C0060
7E00C0
C60180
060180
1C0300
C30600
E30600
7F0C00
3C1800
001820
003060
0060E0
0061E0
00C3E0
0187F0
018FF0
030060
060060
ENDCHAR
STARTCHAR 00BF
ENCODING 191
SWIDTH 600 0
DWIDTH 15 0
BBX 11 18 2 -5
BITMAP
0E00
0E00
0E00
0000
1F00
3F80
71C0
60C0
00C0
0380
1E00
7800
E060
C060
C0E0
E1C0
7F80
1F00
ENDCHAR
STARTCHAR 00C0
ENCODING 192
SWIDTH 760 0
DWIDTH 19 0
BBX 17 23 1 0
BITMAP
070000
030000
018000
00C000
000000
008000
01C000
01C000
03E000
036000
036000
063000
063000
0C1800
0C1800
1FFC00
1FFC00
380600
300600
300600
600300
600300
C00180
ENDCHAR
STARTCHAR 00C1
ENCODING 193
SWIDTH 760 0
DWIDTH 19 0
BBX 17 23 1 0
BITMAP
007000
006000
00C000
018000
000000
008000
01C000
01C000
03E000
036000
036000
063000
063000
0C1800
0C1800
1FFC00
1FFC00
380600
300600
300600
600300
600300
C00180
ENDCHAR
STARTCHAR 00C2
ENCODING 194
SWIDTH 760 0
DWIDTH 19 0
BBX 17 23 1 0
BITMAP
01C000
036000
063000
0E1800
000000
008000
01C000
01C000
03E000
036000
036000
063000
063000
0C1800
0C1800
1FFC00
1FFC00
380600
300600
300600
600300
600300
C00180
ENDCHAR
STARTCHAR 00C3
ENCODING 195
SWIDTH 760 0
DWIDTH 19 0
BBX 17 22 1 0
BITMAP
079000
0FF800
08F000
000000
008000
01C000
01C000
03E000
036000
036000
063000
063000
0C1800
0C1800
1FFC00
1FFC00
380600
300600
300600
600300
600300
C00180
ENDCHAR
STARTCHAR 00C4
ENCODING 196
SWIDTH 760 0
DWIDTH 19 0
BBX 17 22 1 0
BITMAP
073800
073800
073800
000000
008000
01C000
01C000
03E000
036000
036000
063000
063000
0C1800
0C1800
1FFC00
1FFC00
380600
300600
300600
600300
600300
C00180
ENDCHAR
STARTCHAR 00C5
ENCODING 197
SWIDTH 760 0
DWIDTH 19 0
BBX 17 24 1 0
BITMAP
01C000
022000
022000
022000
01C000
000000
008000
01C000
01C000
03E000
036000
036000
063000
063000
0C1800
0C1800
1FFC00
1FFC00
380600
300600
300600
600300
600300
C00180
ENDCHAR
STARTCHAR 00C6
ENCODING 198
SWIDTH 1000 0
DWIDTH 25 0
BBX 23 18 0 0
BITMAP
000FFE
001FFE
001E00
003600
006600
006600
00C600
0187FE
0187FE
030600
07FE00
0FFE00
0C0600
180600
300600
300600
6007FE
C007FE
ENDCHAR
STARTCHAR 00C7
ENCODING 199
SWIDTH 800 0
DWIDTH 20 0
BBX 16 22 2 -4
BITMAP
03F0
0FFC
1C1E
3807
7002
6000
C000
C000
C000
C000
C000
C000
6000
7002
3807
3C1E
0FFC
03F0
0080
00E0
0060
03C0
ENDCHAR
STARTCHAR 00C8
ENCODING 200
SWIDTH 520 0
DWIDTH 13 0
BBX 10 23 2 0
BITMAP
3800
1800
0C00
0600
0000
FFC0
FFC0
C000
C000
C000
C000
C000
FFC0
FFC0
C000
C000
C000
C000
C000
C000
C000
FFC0
FFC0
ENDCHAR
STARTCHAR 00C9
ENCODING 201
SWIDTH 520 0
DWIDTH 13 0
BBX 10 23 2 0
BITMAP
0700
0600
0C00
1800
0000
FFC0
FFC0
C000
C000
C000
C000
C000
FFC0
FFC0
C000
C000
C000
C000
C000
C000
C000
FFC0
FFC0
ENDCHAR
STARTCHAR 00CA
ENCODING 202
SWIDTH 520 0
DWIDTH 13 0
BBX 10 23 2 0
BITMAP
1C00
3600
6300
E180
0000
FFC0
FFC0
C000
C000
C000
C000
C000
FFC0
FFC0
C000
C000
C000
C000
C000
C000
C000
FFC0
FFC0
ENDCHAR
STARTCHAR 00CB
ENCODING 203
SWIDTH 520 0
DWIDTH 13 0
BBX 10 22 2 0
BITMAP
7380
7380
7380
0000
FFC0
FFC0
C000
C000
C000
C000
C000
FFC0
FFC0
C000
C000
C000
C000
C000
C000
C000
FFC0
FFC0
ENDCHAR
STARTCHAR 00CC
ENCODING 204
SWIDTH 240 0
DWIDTH 6 0
BBX 5 23 -1 0
BITMAP
E0
60
30
18
00
18
18
18
18
18
18
18
18
18
18
18
18
18
18
18
18
18
18
ENDCHAR
STARTCHAR 00CD
ENCODING 205
SWIDTH 240 0
DWIDTH 6 0
BBX 5 23 2 0
BITMAP
38
30
60
C0
00
C0
C0
C0
C0
C0
C0
C0
C0
C0
C0
C0
C0
C0
C0
C0
C0
C0
C0
ENDCHAR
STARTCHAR 00CE
ENCODING 206
SWIDTH 240 0
DWIDTH 6 0
BBX 9 23 -2 0
BITMAP
1C00
3600
6300
E180
0000
0C00
0C00
0C00
0C00
0C00
0C00
0C00
0C00
0C00
0C00
0C00
0C00
0C00
0C00
0C00
0C00
0C00
0C00
ENDCHAR
STARTCHAR 00CF
ENCODING 207
SWIDTH 240 0
DWIDTH 6 0
BBX 8 22 -1 0
BITMAP
E7
E7
E7
00
18
18
18
18
18
18
18
18
18
18
18
18
18
18
18
18
18
18
ENDCHAR
STARTCHAR 00D0
ENCODING 208
SWIDTH 800 0
DWIDTH 20 0
BBX 17 18 1 0
BITMAP
3FE000
3FF800
301E00
300600
300300
300300
300180
300180
FF0180
FF0180
300180
300180
300380
300300
300700
301E00
3FFC00
3FF000
ENDCHAR
STARTCHAR 00D1
ENCODING 209
SWIDTH 760 0
DWIDTH 19 0
BBX 15 22 2 0
BITMAP
0F20
1FF0
11E0
0000
8006
C006
E006
F006
F006
D806
CC06
C606
C306
C186
C0C6
C066
C036
C01E
C01E
C00E
C006
C002
ENDCHAR
STARTCHAR 00D2
ENCODING 210
SWIDTH 880 0
DWIDTH 22 0
BBX 18 23 2 0
BITMAP
038000
018000
00C000
006000
000000
03F000
0FFC00
1C0E00
380700
700380
600180
C000C0
C000C0
C000C0
C000C0
C000C0
C000C0
600180
700380
380700
1C0E00
0FFC00
03F000
ENDCHAR
STARTCHAR 00D3
ENCODING 211
SWIDTH 880 0
DWIDTH 22 0
BBX 18 23 2 0
BITMAP
007000
006000
00C000
018000
000000
03F000
0FFC00
1C0E00
380700
700380
600180
C000C0
C000C0
C000C0
C000C0
C000C0
C000C0
600180
700380
380700
1C0E00
0FFC00
03F000
ENDCHAR
STARTCHAR 00D4
ENCODING 212
SWIDTH 880 0
DWIDTH 22 0
BBX 18 23 2 0
BITMAP
01C000
036000
063000
0E1800
000000
03F000
0FFC00
1C0E00
380700
700380
600180
C000C0
C000C0
C000C0
C000C0
C000C0
C000C0
600180
700380
380700
1C0E00
0FFC00
03F000
ENDCHAR
STARTCHAR 00D5
ENCODING 213
SWIDTH 880 0
DWIDTH 22 0
BBX 18 22 2 0
BITMAP
03C800
07FC00
047800
000000
03F000
0FFC00
1C0E00
380700
700380
600180
C000C0
C000C0
C000C0
C000C0
C000C0
C000C0
600180
700380
380700
1C0E00
0FFC00
03F000
ENDCHAR
STARTCHAR 00D6
ENCODING 214
SWIDTH 880 0
DWIDTH 22 0
BBX 18 22 2 0
BITMAP
073800
073800
073800
000000
03F000
0FFC00
1C0E00
380700
700380
600180
C000C0
C000C0
C000C0
C000C0
C000C0
C000C0
600180
700380
380700
1C0E00
0FFC00
03F000
ENDCHAR
STARTCHAR 00D7
ENCODING 215
SWIDTH 640 0
DWIDTH 16 0
BBX 9 9 3 5
BITMAP
8080
C180
7300
3E00
1C00
3E00
6300
C180
8080
ENDCHAR
STARTCHAR 00D8
ENCODING 216
SWIDTH 880 0
DWIDTH 22 0
BBX 18 18 2 0
BITMAP
03F1C0
0FFD80
1C1F00
300700
600F80
601980
C019C0
C030C0
C060C0
C0C0C0
C180C0
E300C0
630180
760180
3C0300
1E0E00
3FFC00
73F000
ENDCHAR
STARTCHAR 00D9
ENCODING 217
SWIDTH 640 0
DWIDTH 16 0
BBX 12 23 2 0
BITMAP
1C00
0C00
0600
0300
0000
C030
C030
C030
C030
C030
C030
C030
C030
C030
C030
C030
C030
C030
C030
E060
70E0
3FC0
1F80
ENDCHAR
STARTCHAR 00DA
ENCODING 218
SWIDTH 640 0
DWIDTH 16 0
BBX 12 23 2 0
BITMAP
0380
0300
0600
0C00
0000
C030
C030
C030
C030
C030
C030
C030
C030
C030
C030
C030
C030
C030
C030
E060
70E0
3FC0
1F80
ENDCHAR
STARTCHAR 00DB
ENCODING 219
SWIDTH 640 0
DWIDTH 16 0
BBX 12 23 2 0
BITMAP
0E00
1B00
3180
70C0
0000
C030
C030
C030
C030
C030
C030
C030
C030
C030
C030
C030
C030
C030
C030
E060
70E0
3FC0
1F80
ENDCHAR
STARTCHAR 00DC
ENCODING 220
SWIDTH 640 0
DWIDTH 16 0
BBX 12 22 2 0
BITMAP
39C0
39C0
39C0
0000
C030
C030
C030
C030
C030
C030
C030
C030
C030
C030
C030
C030
C030
C030
E060
70E0
3FC0
1F80
ENDCHAR
STARTCHAR 00DD
ENCODING 221
SWIDTH 640 0
DWIDTH 16 0
BBX 14 23 1 0
BITMAP
01C0
0180
0300
0600
0000
C00C
6018
3030
3030
1860
0CE0
0CC0
0780
0780
0300
0300
0300
0300
0300
0300
0300
0300
0300
ENDCHAR
STARTCHAR 00DE
ENCODING 222
SWIDTH 600 0
DWIDTH 15 0
BBX 11 18 2 0
BITMAP
C000
C000
C000
C000
FF00
FFC0
C0C0
C060
C060
C060
C060
C0C0
FFC0
FF00
C000
C000
C000
C000
ENDCHAR
STARTCHAR 00DF
ENCODING 223
SWIDTH 560 0
DWIDTH 14 0
BBX 11 18 2 0
BITMAP
1F00
7F80
71C0
E0C0
C0C0
C0C0
C180
CF00
CF00
C180
C0C0
C060
C060
C060
C0E0
C1C0
DFC0
DF00
ENDCHAR
STARTCHAR 00E0
ENCODING 224
SWIDTH 680 0
DWIDTH 17 0
BBX 14 19 1 0
BITMAP
0E00
0600
0300
0180
0000
0000
0FCC
3FEC
787C
601C
E01C
C00C
C00C
C00C
E00C
601C
787C
3FEC
0FCC
ENDCHAR
STARTCHAR 00E1
ENCODING 225
SWIDTH 680 0
DWIDTH 17 0
BBX 14 19 1 0
BITMAP
01C0
0180
0300
0600
0000
0000
0FCC
3FEC
787C
601C
E01C
C00C
C00C
C00C
E00C
601C
787C
3FEC
0FCC
ENDCHAR
STARTCHAR 00E2
ENCODING 226
SWIDTH 680 0
DWIDTH 17 0
BBX 14 19 1 0
BITMAP
0700
0D80
18C0
3860
0000
0000
0FCC
3FEC
787C
601C
E01C
C00C
C00C
C00C
E00C
601C
787C
3FEC
0FCC
ENDCHAR
STARTCHAR 00E3
ENCODING 227
SWIDTH 680 0
DWIDTH 17 0
BBX 14 18 1 0
BITMAP
1E40
3FE0
23C0
0000
0000
0FCC
3FEC
787C
601C
E01C
C00C
C00C
C00C
E00C
601C
787C
3FEC
0FCC
ENDCHAR
STARTCHAR 00E4
ENCODING 228
SWIDTH 680 0
DWIDTH 17 0
BBX 14 18 1 0
BITMAP
1CE0
1CE0
1CE0
0000
0000
0FCC
3FEC
787C
601C
E01C
C00C
C00C
C00C
E00C
601C
787C
3FEC
0FCC
ENDCHAR
STARTCHAR 00E5
ENCODING 229
SWIDTH 680 0
DWIDTH 17 0
BBX 14 20 1 0
BITMAP
0380
0440
0440
0440
0380
0000
0000
0FCC
3FEC
787C
601C
E01C
C00C
C00C
C00C
E00C
601C
787C
3FEC
0FCC
ENDCHAR
STARTCHAR 00E6
ENCODING 230
SWIDTH 1160 0
DWIDTH 29 0
BBX 26 13 2 0
BITMAP
0FCCFC00
3FEDFF00
787F8380
601E0180
C00C00C0
C00FFFC0
C00FFFC0
C00C0000
C00C0180
601E0380
787F0700
3FEDFE00
0FCCF800
ENDCHAR
STARTCHAR 00E7
ENCODING 231
SWIDTH 640 0
DWIDTH 16 0
BBX 14 17 1 -4
BITMAP
07E0
1FF8
381C
6008
E000
C000
C000
C000
E000
6008
783C
1FF0
0FE0
0100
01C0
00C0
0780
ENDCHAR
STARTCHAR 00E8
ENCODING 232
SWIDTH 640 0
DWIDTH 16 0
BBX 14 19 1 0
BITMAP
0E00
0600
0300
0180
0000
0000
0FC0
3FE0
7830
6018
C00C
FFFC
FFFC
C000
C000
6018
7038
3FF0
0FC0
ENDCHAR
STARTCHAR 00E9
ENCODING 233
SWIDTH 640 0
DWIDTH 16 0
BBX 14 19 1 0
BITMAP
01C0
0180
0300
0600
0000
0000
0FC0
3FE0
7830
6018
C00C
FFFC
FFFC
C000
C000
6018
7038
3FF0
0FC0
ENDCHAR
STARTCHAR 00EA
ENCODING 234
SWIDTH 640 0
DWIDTH 16 0
BBX 14 19 1 0
BITMAP
0700
0D80
18C0
3860
0000
0000
0FC0
3FE0
7830
6018
C00C
FFFC
FFFC
C000
C000
6018
7038
3FF0
0FC0
ENDCHAR
STARTCHAR 00EB
ENCODING 235
SWIDTH 640 0
DWIDTH 16 0
BBX 14 18 1 0
BITMAP
1CE0
1CE0
1CE0
0000
0000
0FC0
3FE0
7830
6018
C00C
FFFC
FFFC
C000
C000
6018
7038
3FF0
0FC0
ENDCHAR
STARTCHAR 00EC
ENCODING 236
SWIDTH 240 0
DWIDTH 6 0
BBX 5 19 -1 0
BITMAP
E0
60
30
18
00
00
18
18
18
18
18
18
18
18
18
18
18
18
18
ENDCHAR
STARTCHAR 00ED
ENCODING 237
SWIDTH 240 0
DWIDTH 6 0
BBX 5 19 2 0
BITMAP
38
30
60
C0
00
00
C0
C0
C0
C0
C0
C0
C0
C0
C0
C0
C0
C0
C0
ENDCHAR
STARTCHAR 00EE
ENCODING 238
SWIDTH 240 0
DWIDTH 6 0
BBX 9 19 -1 0
BITMAP
1C00
3600
6300
E180
0000
0000
1800
1800
1800
1800
1800
1800
1800
1800
1800
1800
1800
1800
1800
ENDCHAR
STARTCHAR 00EF
ENCODING 239
SWIDTH 240 0
DWIDTH 6 0
BBX 8 18 -1 0
BITMAP
E7
E7
E7
00
00
18
18
18
18
18
18
18
18
18
18
18
18
18
ENDCHAR
STARTCHAR 00F0
ENCODING 240
SWIDTH 640 0
DWIDTH 16 0
BBX 14 18 1 0
BITMAP
06C0
03C0
0FC0
0CE0
0060
0FF0
3FF8
7878
601C
C00C
C00C
C00C
C00C
E01C
6018
7870
3FE0
0FC0
ENDCHAR
STARTCHAR 00F1
ENCODING 241
SWIDTH 600 0
DWIDTH 15 0
BBX 11 18 2 0
BITMAP
3C80
7FC0
4780
0000
0000
CF80
DFC0
F0C0
E060
E060
C060
C060
C060
C060
C060
C060
C060
C060
ENDCHAR
STARTCHAR 00F2
ENCODING 242
SWIDTH 640 0
DWIDTH 16 0
BBX 14 19 1 0
BITMAP
0E00
0600
0300
0180
0000
0000
0FC0
3FE0
7878
6018
E01C
C00C
C00C
C00C
C01C
6018
7878
3FF0
0FC0
ENDCHAR
STARTCHAR 00F3
ENCODING 243
SWIDTH 640 0
DWIDTH 16 0
BBX 14 19 1 0
BITMAP
01C0
0180
0300
0600
0000
0000
0FC0
3FE0
7878
6018
E01C
C00C
C00C
C00C
C01C
6018
7878
3FF0
0FC0
ENDCHAR
STARTCHAR 00F4
ENCODING 244
SWIDTH 640 0
DWIDTH 16 0
BBX 14 19 1 0
BITMAP
0700
0D80
18C0
3860
0000
0000
0FC0
3FE0
7878
6018
E01C
C00C
C00C
C00C
C01C
6018
7878
3FF0
0FC0
ENDCHAR
STARTCHAR 00F5
ENCODING 245
SWIDTH 640 0
DWIDTH 16 0
BBX 14 18 1 0
BITMAP
1E40
3FE0
23C0
0000
0000
0FC0
3FE0
7878
6018
E01C
C00C
C00C
C00C
C01C
6018
7878
3FF0
0FC0
ENDCHAR
STARTCHAR 00F6
ENCODING 246
SWIDTH 640 0
DWIDTH 16 0
BBX 14 18 1 0
BITMAP
1CE0
1CE0
1CE0
0000
0000
0FC0
3FE0
7878
6018
E01C
C00C
C00C
C00C
C01C
6018
7878
3FF0
0FC0
ENDCHAR
STARTCHAR 00F7
ENCODING 247
SWIDTH 560 0
DWIDTH 14 0
BBX 13 12 0 3
BITMAP
0700
0700
0000
0000
0000
FFF8
FFF8
0000
0000
0000
0700
0700
ENDCHAR
STARTCHAR 00F8
ENCODING 248
SWIDTH 640 0
DWIDTH 16 0
BBX 14 14 1 -1
BITMAP
0FC8
3FEC
7878
6038
C07C
C0CC
C18C
C30C
E60C
7C18
3878
3FF0
7FC0
6000
ENDCHAR
STARTCHAR 00F9
ENCODING 249
SWIDTH 600 0
DWIDTH 15 0
BBX 11 19 2 0
BITMAP
3800
1800
0C00
0600
0000
0000
C060
C060
C060
C060
C060
C060
C060
C060
C060
E0E0
71C0
3F80
1F00
ENDCHAR
STARTCHAR 00FA
ENCODING 250
SWIDTH 600 0
DWIDTH 15 0
BBX 11 19 2 0
BITMAP
0380
0300
0600
0C00
0000
0000
C060
C060
C060
C060
C060
C060
C060
C060
C060
E0E0
71C0
3F80
1F00
ENDCHAR
STARTCHAR 00FB
ENCODING 251
SWIDTH 600 0
DWIDTH 15 0
BBX 11 19 2 0
BITMAP
0E00
1B00
3180
70C0
0000
0000
C060
C060
C060
C060
C060
C060
C060
C060
C060
E0E0
71C0
3F80
1F00
ENDCHAR
STARTCHAR 00FC
ENCODING 252
SWIDTH 600 0
DWIDTH 15 0
BBX 11 18 2 0
BITMAP
39C0
39C0
39C0
0000
0000
C060
C060
C060
C060
C060
C060
C060
C060
C060
E0E0
71C0
3F80
1F00
ENDCHAR
STARTCHAR 00FD
ENCODING 253
SWIDTH 520 0
DWIDTH 13 0
BBX 12 24 0 -5
BITMAP
0380
0300
0600
0C00
0000
0000
C030
6060
6060
6060
30C0
30C0
1980
1980
1980
0F00
0F00
0700
0600
0600
0C00
0C00
0C00
1800
ENDCHAR
STARTCHAR 00FE
ENCODING 254
SWIDTH 680 0
DWIDTH 17 0
BBX 14 23 2 -5
BITMAP
C000
C000
C000
C000
C000
C7C0
DFF0
F878
E018
E01C
C00C
C00C
C00C
C01C
E018
F878
DFF0
C7C0
C000
C000
C000
C000
C000
ENDCHAR
STARTCHAR 00FF
ENCODING 255
SWIDTH 520 0
DWIDTH 13 0
BBX 12 23 0 -5
BITMAP
39C0
39C0
39C0
0000
0000
C030
6060
6060
6060
30C0
30C0
1980
1980
1980
0F00
0F00
0700
0600
0600
0C00
0C00
0C00
1800
ENDCHAR
STARTCHAR 0100
ENCODING 256
SWIDTH 760 0
DWIDTH 19 0
BBX 17 23 1 0
BITMAP
07F800
07F800
000000
000000
000000
008000
01C000
01C000
03E000
036000
036000
063000
063000
0C1800
0C1800
1FFC00
1FFC00
380600
300600
300600
600300
600300
C00180
ENDCHAR
STARTCHAR 0101
ENCODING 257
SWIDTH 680 0
DWIDTH 17 0
BBX 14 17 1 0
BITMAP
0FF0
0FF0
0000
0000
0FCC
3FEC
787C
601C
E01C
C00C
C00C
C00C
E00C
601C
787C
3FEC
0FCC
ENDCHAR
STARTCHAR 0102
ENCODING 258
SWIDTH 760 0
DWIDTH 19 0
BBX 17 22 1 0
BITMAP
0C3000
07E000
03C000
000000
008000
01C000
01C000
03E000
036000
036000
063000
063000
0C1800
0C1800
1FFC00
1FFC00
380600
300600
300600
600300
600300
C00180
ENDCHAR
STARTCHAR 0103
ENCODING 259
SWIDTH 680 0
DWIDTH 17 0
BBX 14 18 1 0
BITMAP
1860
0FC0
0780
0000
0000
0FCC
3FEC
787C
601C
E01C
C00C
C00C
C00C
E00C
601C
787C
3FEC
0FCC
ENDCHAR
STARTCHAR 0104
ENCODING 260
SWIDTH 760 0
DWIDTH 19 0
BBX 19 23 1 -5
BITMAP
008000
01C000
01C000
03E000
036000
036000
063000
063000
0C1800
0C1800
1FFC00
1FFC00
380600
300600
300600
600300
600300
C00180
000180
000300
000300
000300
0001E0
ENDCHAR
STARTCHAR 0105
ENCODING 261
SWIDTH 680 0
DWIDTH 17 0
BBX 16 18 1 -5
BITMAP
0FCC
3FEC
787C
601C
E01C
C00C
C00C
C00C
E00C
601C
787C
3FEC
0FCC
000C
0018
0018
0018
000F
ENDCHAR
STARTCHAR 0106
ENCODING 262
SWIDTH 800 0
DWIDTH 20 0
BBX 16 23 2 0
BITMAP
0070
0060
00C0
0180
0000
03F0
0FFC
1C1E
3807
7002
6000
C000
C000
C000
C000
C000
C000
6000
7002
3807
3C1E
0FFC
03F0
ENDCHAR
STARTCHAR 0107
ENCODING 263
SWIDTH 640 0
DWIDTH 16 0
BBX 14 19 1 0
BITMAP
01C0
0180
0300
0600
0000
0000
07E0
1FF8
381C
6008
E000
C000
C000
C000
E000
6008
783C
1FF0
0FE0
ENDCHAR
STARTCHAR 0108
ENCODING 264
SWIDTH 800 0
DWIDTH 20 0
BBX 16 23 2 0
BITMAP
01C0
0360
0630
0E18
0000
03F0
0FFC
1C1E
3807
7002
6000
C000
C000
C000
C000
C000
C000
6000
7002
3807
3C1E
0FFC
03F0
ENDCHAR
STARTCHAR 0109
ENCODING 265
SWIDTH 640 0
DWIDTH 16 0
BBX 14 19 1 0
BITMAP
0380
06C0
0C60
1C30
0000
0000
07E0
1FF8
381C
6008
E000
C000
C000
C000
E000
6008
783C
1FF0
0FE0
ENDCHAR
STARTCHAR 010A
ENCODING 266
SWIDTH 800 0
DWIDTH 20 0
BBX 16 22 2 0
BITMAP
0380
0380
0380
0000
03F0
0FFC
1C1E
3807
7002
6000
C000
C000
C000
C000
C000
C000
6000
7002
3807
3C1E
0FFC
03F0
ENDCHAR
STARTCHAR 010B
ENCODING 267
SWIDTH 640 0
DWIDTH 16 0
BBX 14 18 1 0
BITMAP
0700
0700
0700
0000
0000
07E0
1FF8
381C
6008
E000
C000
C000
C000
E000
6008
783C
1FF0
0FE0
ENDCHAR
STARTCHAR 010C
ENCODING 268
SWIDTH 800 0
DWIDTH 20 0
BBX 16 23 2 0
BITMAP
0E38
0630
0360
01C0
0000
03F0
0FFC
1C1E
3807
7002
6000
C000
C000
C000
C000
C000
C000
6000
7002
3807
3C1E
0FFC
03F0
ENDCHAR
STARTCHAR 010D
ENCODING 269
SWIDTH 640 0
DWIDTH 16 0
BBX 14 19 1 0
BITMAP
38E0
18C0
0D80
0700
0000
0000
07E0
1FF8
381C
6008
E000
C000
C000
C000
E000
6008
783C
1FF0
0FE0
ENDCHAR
STARTCHAR 010E
ENCODING 270
SWIDTH 760 0
DWIDTH 19 0
BBX 15 23 2 0
BITMAP
71C0
3180
1B00
0E00
0000
FF80
FFE0
C0F0
C038
C01C
C00C
C006
C006
C006
C006
C006
C006
C00C
C00C
C01C
C078
FFF0
FFC0
ENDCHAR
STARTCHAR 010F
ENCODING 271
SWIDTH 680 0
DWIDTH 17 0
BBX 17 18 1 0
BITMAP
000D80
000D80
000D80
000C80
000C80
0FCD00
3FEC00
787C00
601C00
E00C00
C00C00
C00C00
C00C00
E00C00
601C00
787C00
3FEC00
0F8C00
ENDCHAR
STARTCHAR 0110
ENCODING 272
SWIDTH 800 0
DWIDTH 20 0
BBX 17 18 1 0
BITMAP
3FE000
3FF800
301E00
300600
300300
300300
300180
300180
FF0180
FF0180
300180
300180
300380
300300
300700
301E00
3FFC00
3FF000
ENDCHAR
STARTCHAR 0111
ENCODING 273
SWIDTH 680 0
DWIDTH 17 0
BBX 16 18 1 0
BITMAP
000C
000C
00FF
00FF
000C
0F8C
3FEC
787C
601C
E01C
C00C
C00C
C00C
E00C
601C
787C
3FEC
0FCC
ENDCHAR
STARTCHAR 0112
ENCODING 274
SWIDTH 520 0
DWIDTH 13 0
BBX 10 23 2 0
BITMAP
7F80
7F80
0000
0000
0000
FFC0
FFC0
C000
C000
C000
C000
C000
FFC0
FFC0
C000
C000
C000
C000
C000
C000
C000
FFC0
FFC0
ENDCHAR
STARTCHAR 0113
ENCODING 275
SWIDTH 640 0
DWIDTH 16 0
BBX 14 19 1 0
BITMAP
1FE0
1FE0
0000
0000
0000
0000
0FC0
3FE0
7830
6018
C00C
FFFC
FFFC
C000
C000
6018
7038
3FF0
0FC0
ENDCHAR
STARTCHAR 0114
ENCODING 276
SWIDTH 520 0
DWIDTH 13 0
BBX 10 22 2 0
BITMAP
6180
3F00
1E00
0000
FFC0
FFC0
C000
C000
C000
C000
C000
FFC0
FFC0
C000
C000
C000
C000
C000
C000
C000
FFC0
FFC0
ENDCHAR
STARTCHAR 0115
ENCODING 277
SWIDTH 640 0
DWIDTH 16 0
BBX 14 18 1 0
BITMAP
1860
0FC0
0780
0000
0000
0FC0
3FE0
7830
6018
C00C
FFFC
FFFC
C000
C000
6018
7038
3FF0
0FC0
ENDCHAR
STARTCHAR 0116
ENCODING 278
SWIDTH 520 0
DWIDTH 13 0
BBX 10 22 2 0
BITMAP
1C00
1C00
1C00
0000
FFC0
FFC0
C000
C000
C000
C000
C000
FFC0
FFC0
C000
C000
C000
C000
C000
C000
C000
FFC0
FFC0
ENDCHAR
STARTCHAR 0117
ENCODING 279
SWIDTH 640 0
DWIDTH 16 0
BBX 14 18 1 0
BITMAP
0380
0380
0380
0000
0000
0FC0
3FE0
7830
6018
C00C
FFFC
FFFC
C000
C000
6018
7038
3FF0
0FC0
ENDCHAR
STARTCHAR 0118
ENCODING 280
SWIDTH 520 0
DWIDTH 13 0
BBX 10 23 2 -5
BITMAP
FFC0
FFC0
C000
C000
C000
C000
C000
FFC0
FFC0
C000
C000
C000
C000
C000
C000
C000
FFC0
FFC0
0300
0600
0600
0600
03C0
ENDCHAR
STARTCHAR 0119
ENCODING 281
SWIDTH 640 0
DWIDTH 16 0
BBX 14 18 1 -5
BITMAP
0FC0
3FE0
7830
6018
C00C
FFFC
FFFC
C000
C000
6018
7038
3FF0
0FC0
0300
0600
0600
0600
03C0
ENDCHAR
STARTCHAR 011A
ENCODING 282
SWIDTH 520 0
DWIDTH 13 0
BBX 10 23 2 0
BITMAP
E380
6300
3600
1C00
0000
FFC0
FFC0
C000
C000
C000
C000
C000
FFC0
FFC0
C000
C000
C000
C000
C000
C000
C000
FFC0
FFC0
ENDCHAR
STARTCHAR 011B
ENCODING 283
SWIDTH 640 0
DWIDTH 16 0
BBX 14 19 1 0
BITMAP
38E0
18C0
0D80
0700
0000
0000
0FC0
3FE0
7830
6018
C00C
FFFC
FFFC
C000
C000
6018
7038
3FF0
0FC0
ENDCHAR
STARTCHAR 011C
ENCODING 284
SWIDTH 880 0
DWIDTH 22 0
BBX 18 23 2 0
BITMAP
01C000
036000
063000
0E1800
000000
03F000
0FFC00
1E0F00
380380
700100
600000
C00000
C00000
C00000
C01FC0
C01FC0
E000C0
600080
700180
380380
1E0F00
0FFE00
03F800
ENDCHAR
STARTCHAR 011D
ENCODING 285
SWIDTH 680 0
DWIDTH 17 0
BBX 14 24 1 -5
BITMAP
0700
0D80
18C0
3860
0000
0000
0FCC
3FEC
787C
601C
E00C
C00C
C00C
C00C
C00C
601C
787C
3FEC
0F8C
C00C
6018
7038
3FF0
0FC0
ENDCHAR
STARTCHAR 011E
ENCODING 286
SWIDTH 880 0
DWIDTH 22 0
BBX 18 22 2 0
BITMAP
061800
03F000
01E000
000000
03F000
0FFC00
1E0F00
380380
700100
600000
C00000
C00000
C00000
C01FC0
C01FC0
E000C0
600080
700180
380380
1E0F00
0FFE00
03F800
ENDCHAR
STARTCHAR 011F
ENCODING 287
SWIDTH 680 0
DWIDTH 17 0
BBX 14 23 1 -5
BITMAP
1860
0FC0
0780
0000
0000
0FCC
3FEC
787C
601C
E00C
C00C
C00C
C00C
C00C
601C
787C
3FEC
0F8C
C00C
6018
7038
3FF0
0FC0
ENDCHAR
STARTCHAR 0120
ENCODING 288
SWIDTH 880 0
DWIDTH 22 0
BBX 18 22 2 0
BITMAP
00E000
00E000
00E000
000000
03F000
0FFC00
1E0F00
380380
700100
600000
C00000
C00000
C00000
C01FC0
C01FC0
E000C0
600080
700180
380380
1E0F00
0FFE00
03F800
ENDCHAR
STARTCHAR 0121
ENCODING 289
SWIDTH 680 0
DWIDTH 17 0
BBX 14 23 1 -5
BITMAP
0700
0700
0700
0000
0000
0FCC
3FEC
787C
601C
E00C
C00C
C00C
C00C
C00C
601C
787C
3FEC
0F8C
C00C
6018
7038
3FF0
0FC0
ENDCHAR
STARTCHAR 0122
ENCODING 290
SWIDTH 880 0
DWIDTH 22 0
BBX 18 22 2 -4
BITMAP
03F000
0FFC00
1E0F00
380380
700100
600000
C00000
C00000
C00000
C01FC0
C01FC0
E000C0
600080
700180
380380
1E0F00
0FFE00
03F800
008000
00E000
006000
03C000
ENDCHAR
STARTCHAR 0123
ENCODING 291
SWIDTH 680 0
DWIDTH 17 0
BBX 14 26 1 -5
BITMAP
0100
0200
0200
0300
0300
0300
0000
0000
0FCC
3FEC
787C
601C
E00C
C00C
C00C
C00C
C00C
601C
787C
3FEC
0F8C
C00C
6018
7038
3FF0
0FC0
ENDCHAR
STARTCHAR 0124
ENCODING 292
SWIDTH 680 0
DWIDTH 17 0
BBX 13 23 2 0
BITMAP
0700
0D80
18C0
3860
0000
C018
C018
C018
C018
C018
C018
C018
FFF8
FFF8
C018
C018
C018
C018
C018
C018
C018
C018
C018
ENDCHAR
STARTCHAR 0125
ENCODING 293
SWIDTH 600 0
DWIDTH 15 0
BBX 11 23 2 0
BITMAP
0E00
1B00
3180
70C0
0000
C000
C000
C000
C000
C000
CF80
DFC0
F0C0
E060
C060
C060
C060
C060
C060
C060
C060
C060
C060
ENDCHAR
STARTCHAR 0126
ENCODING 294
SWIDTH 680 0
DWIDTH 17 0
BBX 17 18 0 0
BITMAP
300600
300600
FFFF80
FFFF80
300600
300600
300600
3FFE00
3FFE00
300600
300600
300600
300600
300600
300600
300600
300600
300600
ENDCHAR
STARTCHAR 0127
ENCODING 295
SWIDTH 600 0
DWIDTH 15 0
BBX 13 18 0 0
BITMAP
3000
FF80
FF80
3000
3000
33E0
37F0
3C30
3818
3018
3018
3018
3018
3018
3018
3018
3018
3018
ENDCHAR
STARTCHAR 0128
ENCODING 296
SWIDTH 240 0
DWIDTH 6 0
BBX 9 22 -1 0
BITMAP
7900
FF80
8F00
0000
1800
1800
1800
1800
1800
1800
1800
1800
1800
1800
1800
1800
1800
1800
1800
1800
1800
1800
ENDCHAR
STARTCHAR 0129
ENCODING 297
SWIDTH 240 0
DWIDTH 6 0
BBX 9 18 -1 0
BITMAP
7900
FF80
8F00
0000
0000
1800
1800
1800
1800
1800
1800
1800
1800
1800
1800
1800
1800
1800
ENDCHAR
STARTCHAR 012A
ENCODING 298
SWIDTH 240 0
DWIDTH 6 0
BBX 8 23 -1 0
BITMAP
FF
FF
00
00
00
18
18
18
18
18
18
18
18
18
18
18
18
18
18
18
18
18
18
ENDCHAR
STARTCHAR 012B
ENCODING 299
SWIDTH 240 0
DWIDTH 6 0
BBX 8 19 -1 0
BITMAP
FF
FF
00
00
00
00
18
18
18
18
18
18
18
18
18
18
18
18
18
ENDCHAR
STARTCHAR 012C
ENCODING 300
SWIDTH 240 0
DWIDTH 6 0
BBX 8 22 -1 0
BITMAP
C3
7E
3C
00
18
18
18
18
18
18
18
18
18
18
18
18
18
18
18
18
18
18
ENDCHAR
STARTCHAR 012D
ENCODING 301
SWIDTH 240 0
DWIDTH 6 0
BBX 8 18 -1 0
BITMAP
C3
7E
3C
00
00
18
18
18
18
18
18
18
18
18
18
18
18
18
ENDCHAR
STARTCHAR 012E
ENCODING 302
SWIDTH 240 0
DWIDTH 6 0
BBX 5 23 0 -5
BITMAP
30
30
30
30
30
30
30
30
30
30
30
30
30
30
30
30
30
30
60
C0
C0
C0
78
ENDCHAR
STARTCHAR 012F
ENCODING 303
SWIDTH 240 0
DWIDTH 6 0
BBX 5 23 1 -5
BITMAP
60
F0
60
00
00
60
60
60
60
60
60
60
60
60
60
60
60
60
60
C0
C0
C0
78
ENDCHAR
STARTCHAR 0130
ENCODING 304
SWIDTH 240 0
DWIDTH 6 0
BBX 3 22 2 0
BITMAP
E0
E0
E0
00
C0
C0
C0
C0
C0
C0
C0
C0
C0
C0
C0
C0
C0
C0
C0
C0
C0
C0
ENDCHAR
STARTCHAR 0131
ENCODING 305
SWIDTH 240 0
DWIDTH 6 0
BBX 2 13 2 0
BITMAP
C0
C0
C0
C0
C0
C0
C0
C0
C0
C0
C0
C0
C0
ENDCHAR
STARTCHAR 0132
ENCODING 306
SWIDTH 720 0
DWIDTH 18 0
BBX 14 18 2 0
BITMAP
C00C
C00C
C00C
C00C
C00C
C00C
C00C
C00C
C00C
C00C
C00C
C00C
C00C
C00C
C60C
C71C
C3F8
C0F0
ENDCHAR
STARTCHAR 0133
ENCODING 307
SWIDTH 400 0
DWIDTH 10 0
BBX 10 23 0 -5
BITMAP
6180
F3C0
6180
0000
0000
6180
6180
6180
6180
6180
6180
6180
6180
6180
6180
6180
6180
6180
0180
0180
0180
0780
0700
ENDCHAR
STARTCHAR 0134
ENCODING 308
SWIDTH 480 0
DWIDTH 12 0
BBX 11 23 1 0
BITMAP
0700
0D80
18C0
3860
0000
0180
0180
0180
0180
0180
0180
0180
0180
0180
0180
0180
0180
0180
0180
C180
E380
7F00
1E00
ENDCHAR
STARTCHAR 0135
ENCODING 309
SWIDTH 240 0
DWIDTH 6 0
BBX 9 25 -2 -5
BITMAP
1C00
3600
6300
E180
0000
0000
0000
0C00
0C00
0C00
0C00
0C00
0C00
0C00
0C00
0C00
0C00
0C00
0C00
0C00
0C00
0C00
0C00
3C00
3800
ENDCHAR
STARTCHAR 0136
ENCODING 310
SWIDTH 600 0
DWIDTH 15 0
BBX 12 22 2 -4
BITMAP
C060
C0C0
C180
C300
CE00
DC00
F800
F000
E000
F000
D800
CC00
C600
C300
C180
C0C0
C060
C030
0000
0E00
0600
3C00
ENDCHAR
STARTCHAR 0137
ENCODING 311
SWIDTH 520 0
DWIDTH 13 0
BBX 10 22 2 -4
BITMAP
C000
C000
C000
C000
C000
C180
C300
C600
CC00
D800
F000
F000
D800
CC00
C600
C300
C180
C0C0
0000
1C00
0C00
7800
ENDCHAR
STARTCHAR 0138
ENCODING 312
SWIDTH 520 0
DWIDTH 13 0
BBX 10 13 2 0
BITMAP
C180
C300
C600
CC00
D800
F000
F000
D800
CC00
C600
C300
C180
C0C0
ENDCHAR
STARTCHAR 0139
ENCODING 313
SWIDTH 480 0
DWIDTH 12 0
BBX 9 23 2 0
BITMAP
0E00
0C00
1800
3000
0000
C000
C000
C000
C000
C000
C000
C000
C000
C000
C000
C000
C000
C000
C000
C000
C000
FF80
FF80
ENDCHAR
STARTCHAR 013A
ENCODING 314
SWIDTH 240 0
DWIDTH 6 0
BBX 5 23 1 0
BITMAP
38
30
60
C0
00
60
60
60
60
60
60
60
60
60
60
60
60
60
60
60
60
60
60
ENDCHAR
STARTCHAR 013B
ENCODING 315
SWIDTH 480 0
DWIDTH 12 0
BBX 9 22 2 -4
BITMAP
C000
C000
C000
C000
C000
C000
C000
C000
C000
C000
C000
C000
C000
C000
C000
C000
FF80
FF80
0000
1C00
0C00
7800
ENDCHAR
STARTCHAR 013C
ENCODING 316
SWIDTH 240 0
DWIDTH 6 0
BBX 5 20 -1 -2
BITMAP
18
18
18
18
18
18
18
18
18
18
18
18
18
18
18
18
18
18
00
F8
ENDCHAR
STARTCHAR 013D
ENCODING 317
SWIDTH 480 0
DWIDTH 12 0
BBX 9 18 2 0
BITMAP
CC00
CC00
CC00
C400
C400
C800
C000
C000
C000
C000
C000
C000
C000
C000
C000
C000
FF80
FF80
ENDCHAR
STARTCHAR 013E
ENCODING 318
SWIDTH 200 0
DWIDTH 5 0
BBX 5 18 1 0
BITMAP
D8
D8
D8
C8
C8
D0
C0
C0
C0
C0
C0
C0
C0
C0
C0
C0
C0
C0
ENDCHAR
STARTCHAR 013F
ENCODING 319
SWIDTH 480 0
DWIDTH 12 0
BBX 9 18 2 0
BITMAP
C000
C000
C000
C000
C000
C000
C000
CE00
CE00
CE00
C000
C000
C000
C000
C000
C000
FF80
FF80
ENDCHAR
STARTCHAR 0140
ENCODING 320
SWIDTH 280 0
DWIDTH 7 0
BBX 5 18 2 0
BITMAP
C0
C0
C0
C0
C0
C0
C0
F8
F8
F8
C0
C0
C0
C0
C0
C0
C0
C0
ENDCHAR
STARTCHAR 0141
ENCODING 321
SWIDTH 520 0
DWIDTH 13 0
BBX 11 18 1 0
BITMAP
3000
3000
3000
3000
3000
3200
3600
3C00
3800
3000
7000
F000
B000
3000
3000
3000
3FE0
3FE0
ENDCHAR
STARTCHAR 0142
ENCODING 322
SWIDTH 280 0
DWIDTH 7 0
BBX 6 18 1 0
BITMAP
30
30
30
30
30
34
3C
38
70
F0
B0
30
30
30
30
30
30
30
ENDCHAR
STARTCHAR 0143
ENCODING 323
SWIDTH 760 0
DWIDTH 19 0
BBX 15 23 2 0
BITMAP
01C0
0180
0300
0600
0000
8006
C006
E006
F006
F006
D806
CC06
C606
C306
C186
C0C6
C066
C036
C01E
C01E
C00E
C006
C002
ENDCHAR
STARTCHAR 0144
ENCODING 324
SWIDTH 600 0
DWIDTH 15 0
BBX 11 19 2 0
BITMAP
0700
0600
0C00
1800
0000
0000
CF80
DFC0
F0C0
E060
E060
C060
C060
C060
C060
C060
C060
C060
C060
ENDCHAR
STARTCHAR 0145
ENCODING 325
SWIDTH 760 0
DWIDTH 19 0
BBX 15 22 2 -4
BITMAP
8006
C006
E006
F006
F006
D806
CC06
C606
C306
C186
C0C6
C066
C036
C01E
C01E
C00E
C006
C002
0000
0380
0180
0F00
ENDCHAR
STARTCHAR 0146
ENCODING 326
SWIDTH 600 0
DWIDTH 15 0
BBX 11 17 2 -4
BITMAP
CF80
DFC0
F0C0
E060
E060
C060
C060
C060
C060
C060
C060
C060
C060
0000
0E00
0600
3C00
ENDCHAR
STARTCHAR 0147
ENCODING 327
SWIDTH 760 0
DWIDTH 19 0
BBX 15 23 2 0
BITMAP
1C70
0C60
06C0
0380
0000
8006
C006
E006
F006
F006
D806
CC06
C606
C306
C186
C0C6
C066
C036
C01E
C01E
C00E
C006
C002
ENDCHAR
STARTCHAR 0148
ENCODING 328
SWIDTH 600 0
DWIDTH 15 0
BBX 11 19 2 0
BITMAP
71C0
3180
1B00
0E00
0000
0000
CF80
DFC0
F0C0
E060
E060
C060
C060
C060
C060
C060
C060
C060
C060
ENDCHAR
STARTCHAR 0149
ENCODING 329
SWIDTH 600 0
DWIDTH 15 0
BBX 14 18 -1 0
BITMAP
C000
C000
C000
4000
4000
99F0
1BF8
1E18
1C0C
1C0C
180C
180C
180C
180C
180C
180C
180C
180C
ENDCHAR
STARTCHAR 014A
ENCODING 330
SWIDTH 760 0
DWIDTH 19 0
BBX 15 18 2 0
BITMAP
C7C0
DFF0
F878
E018
C00C
C00C
C006
C006
C006
C006
C006
C006
C00E
C00C
C01C
CC38
CFF0
C3E0
ENDCHAR
STARTCHAR 014B
ENCODING 331
SWIDTH 600 0
DWIDTH 15 0
BBX 11 18 2 -5
BITMAP
CF80
DFC0
F0C0
E060
C060
C060
C060
C060
C060
C060
C060
C060
C060
0060
0060
0060
01E0
01C0
ENDCHAR
STARTCHAR 014C
ENCODING 332
SWIDTH 880 0
DWIDTH 22 0
BBX 18 23 2 0
BITMAP
07F800
07F800
000000
000000
000000
03F000
0FFC00
1C0E00
380700
700380
600180
C000C0
C000C0
C000C0
C000C0
C000C0
C000C0
600180
700380
380700
1C0E00
0FFC00
03F000
ENDCHAR
STARTCHAR 014D
ENCODING 333
SWIDTH 640 0
DWIDTH 16 0
BBX 14 19 1 0
BITMAP
1FE0
1FE0
0000
0000
0000
0000
0FC0
3FE0
7878
6018
E01C
C00C
C00C
C00C
C01C
6018
7878
3FF0
0FC0
ENDCHAR
STARTCHAR 014E
ENCODING 334
SWIDTH 880 0
DWIDTH 22 0
BBX 18 22 2 0
BITMAP
061800
03F000
01E000
000000
03F000
0FFC00
1C0E00
380700
700380
600180
C000C0
C000C0
C000C0
C000C0
C000C0
C000C0
600180
700380
380700
1C0E00
0FFC00
03F000
ENDCHAR
STARTCHAR 014F
ENCODING 335
SWIDTH 640 0
DWIDTH 16 0
BBX 14 18 1 0
BITMAP
1860
0FC0
0780
0000
0000
0FC0
3FE0
7878
6018
E01C
C00C
C00C
C00C
C01C
6018
7878
3FF0
0FC0
ENDCHAR
STARTCHAR 0150
ENCODING 336
SWIDTH 880 0
DWIDTH 22 0
BBX 18 23 2 0
BITMAP
00EE00
00CC00
019800
033000
000000
03F000
0FFC00
1C0E00
380700
700380
600180
C000C0
C000C0
C000C0
C000C0
C000C0
C000C0
600180
700380
380700
1C0E00
0FFC00
03F000
ENDCHAR
STARTCHAR 0151
ENCODING 337
SWIDTH 640 0
DWIDTH 16 0
BBX 14 19 1 0
BITMAP
0770
0660
0CC0
1980
0000
0000
0FC0
3FE0
7878
6018
E01C
C00C
C00C
C00C
C01C
6018
7878
3FF0
0FC0
ENDCHAR
STARTCHAR 0152
ENCODING 338
SWIDTH 1200 0
DWIDTH 30 0
BBX 27 18 2 0
BITMAP
03F87FE0
0FFE7FE0
1E0F6000
3803E000
7001E000
6000E000
C0006000
C0007FE0
C0007FE0
C0006000
C0006000
C0006000
6000E000
7001E000
3803E000
1E0F6000
0FFE7FE0
03FC7FE0
ENDCHAR
STARTCHAR 0153
ENCODING 339
SWIDTH 1120 0
DWIDTH 28 0
BBX 26 13 1 0
BITMAP
0F80FC00
3FE1FE00
78738380
601E0180
E01C00C0
C00FFFC0
C00FFFC0
C00C0000
C00C0100
601E0180
78730700
3FE1FE00
0FC0F800
ENDCHAR
STARTCHAR 0154
ENCODING 340
SWIDTH 600 0
DWIDTH 15 0
BBX 11 23 2 0
BITMAP
0700
0600
0C00
1800
0000
FF00
FFC0
C0C0
C060
C060
C060
C060
C0C0
FFC0
FF00
D800
CC00
C600
C300
C300
C180
C0C0
C060
ENDCHAR
STARTCHAR 0155
ENCODING 341
SWIDTH 320 0
DWIDTH 8 0
BBX 7 19 1 0
BITMAP
1C
18
30
60
00
00
DE
FC
F0
E0
C0
C0
C0
C0
C0
C0
C0
C0
C0
ENDCHAR
STARTCHAR 0156
ENCODING 342
SWIDTH 600 0
DWIDTH 15 0
BBX 11 22 2 -4
BITMAP
FF00
FFC0
C0C0
C060
C060
C060
C060
C0C0
FFC0
FF00
D800
CC00
C600
C300
C300
C180
C0C0
C060
0000
0E00
0600
3C00
ENDCHAR
STARTCHAR 0157
ENCODING 343
SWIDTH 320 0
DWIDTH 8 0
BBX 8 17 0 -4
BITMAP
6F
7E
78
70
60
60
60
60
60
60
60
60
60
00
38
18
F0
ENDCHAR
STARTCHAR 0158
ENCODING 344
SWIDTH 600 0
DWIDTH 15 0
BBX 11 23 2 0
BITMAP
E380
6300
3600
1C00
0000
FF00
FFC0
C0C0
C060
C060
C060
C060
C0C0
FFC0
FF00
D800
CC00
C600
C300
C300
C180
C0C0
C060
ENDCHAR
STARTCHAR 0159
ENCODING 345
SWIDTH 320 0
DWIDTH 8 0
BBX 9 20 0 0
BITMAP
E380
6300
3600
1C00
0000
0000
0000
6F00
7E00
7800
7000
6000
6000
6000
6000
6000
6000
6000
6000
6000
ENDCHAR
STARTCHAR 015A
ENCODING 346
SWIDTH 480 0
DWIDTH 12 0
BBX 10 23 0 0
BITMAP
0380
0300
0600
0C00
0000
1E00
3F80
71C0
6080
6000
6000
3000
1C00
0E00
0700
0380
01C0
00C0
40C0
C0C0
6180
3F80
1E00
ENDCHAR
STARTCHAR 015B
ENCODING 347
SWIDTH 400 0
DWIDTH 10 0
BBX 8 19 1 0
BITMAP
38
30
60
C0
00
00
1C
3F
62
60
60
38
1C
06
03
03
47
FE
3C
ENDCHAR
STARTCHAR 015C
ENCODING 348
SWIDTH 480 0
DWIDTH 12 0
BBX 10 23 0 0
BITMAP
0E00
1B00
3180
70C0
0000
1E00
3F80
71C0
6080
6000
6000
3000
1C00
0E00
0700
0380
01C0
00C0
40C0
C0C0
6180
3F80
1E00
ENDCHAR
STARTCHAR 015D
ENCODING 349
SWIDTH 400 0
DWIDTH 10 0
BBX 9 19 1 0
BITMAP
1C00
3600
6300
E180
0000
0000
1C00
3F00
6200
6000
6000
3800
1C00
0600
0300
0300
4700
FE00
3C00
ENDCHAR
STARTCHAR 015E
ENCODING 350
SWIDTH 480 0
DWIDTH 12 0
BBX 10 22 0 -4
BITMAP
1E00
3F80
71C0
6080
6000
6000
3000
1C00
0E00
0700
0380
01C0
00C0
40C0
C0C0
6180
3F80
1E00
0400
0700
0300
1E00
ENDCHAR
STARTCHAR 015F
ENCODING 351
SWIDTH 400 0
DWIDTH 10 0
BBX 8 17 1 -4
BITMAP
1C
3F
62
60
60
38
1C
06
03
03
47
FE
3C
10
1C
0C
78
ENDCHAR
STARTCHAR 0160
ENCODING 352
SWIDTH 480 0
DWIDTH 12 0
BBX 10 23 0 0
BITMAP
71C0
3180
1B00
0E00
0000
1E00
3F80
71C0
6080
6000
6000
3000
1C00
0E00
0700
0380
01C0
00C0
40C0
C0C0
6180
3F80
1E00
ENDCHAR
STARTCHAR 0161
ENCODING 353
SWIDTH 400 0
DWIDTH 10 0
BBX 9 19 0 0
BITMAP
E380
6300
3600
1C00
0000
0000
0E00
1F80
3100
3000
3000
1C00
0E00
0300
0180
0180
2380
7F00
1E00
ENDCHAR
STARTCHAR 0162
ENCODING 354
SWIDTH 440 0
DWIDTH 11 0
BBX 10 23 0 -5
BITMAP
FFC0
FFC0
0C00
0C00
0C00
0C00
0C00
0C00
0C00
0C00
0C00
0C00
0C00
0C00
0C00
0C00
0C00
0C00
0000
0C00
0C00
0400
0800
ENDCHAR
STARTCHAR 0163
ENCODING 355
SWIDTH 320 0
DWIDTH 8 0
BBX 6 23 1 -5
BITMAP
30
30
30
30
30
FC
FC
30
30
30
30
30
30
30
30
30
30
30
00
30
30
10
20
ENDCHAR
STARTCHAR 0164
ENCODING 356
SWIDTH 440 0
DWIDTH 11 0
BBX 10 23 0 0
BITMAP
E380
6300
3600
1C00
0000
FFC0
FFC0
0C00
0C00
0C00
0C00
0C00
0C00
0C00
0C00
0C00
0C00
0C00
0C00
0C00
0C00
0C00
0C00
ENDCHAR
STARTCHAR 0165
ENCODING 357
SWIDTH 320 0
DWIDTH 8 0
BBX 7 18 1 0
BITMAP
36
36
32
3C
30
FC
FC
30
30
30
30
30
30
30
30
30
30
30
ENDCHAR
STARTCHAR 0166
ENCODING 358
SWIDTH 440 0
DWIDTH 11 0
BBX 10 18 0 0
BITMAP
FFC0
FFC0
0C00
0C00
0C00
0C00
0C00
0C00
7F80
7F80
0C00
0C00
0C00
0C00
0C00
0C00
0C00
0C00
ENDCHAR
STARTCHAR 0167
ENCODING 359
SWIDTH 320 0
DWIDTH 8 0
BBX 6 18 1 0
BITMAP
30
30
30
30
30
FC
FC
30
30
30
30
FC
FC
30
30
30
30
30
ENDCHAR
STARTCHAR 0168
ENCODING 360
SWIDTH 640 0
DWIDTH 16 0
BBX 12 22 2 0
BITMAP
3C80
7FC0
4780
0000
C030
C030
C030
C030
C030
C030
C030
C030
C030
C030
C030
C030
C030
C030
E060
70E0
3FC0
1F80
ENDCHAR
STARTCHAR 0169
ENCODING 361
SWIDTH 600 0
DWIDTH 15 0
BBX 11 18 2 0
BITMAP
3C80
7FC0
4780
0000
0000
C060
C060
C060
C060
C060
C060
C060
C060
C060
E0E0
71C0
3F80
1F00
ENDCHAR
STARTCHAR 016A
ENCODING 362
SWIDTH 640 0
DWIDTH 16 0
BBX 12 23 2 0
BITMAP
3FC0
3FC0
0000
0000
0000
C030
C030
C030
C030
C030
C030
C030
C030
C030
C030
C030
C030
C030
C030
E060
70E0
3FC0
1F80
ENDCHAR
STARTCHAR 016B
ENCODING 363
SWIDTH 600 0
DWIDTH 15 0
BBX 11 19 2 0
BITMAP
7F80
7F80
0000
0000
0000
0000
C060
C060
C060
C060
C060
C060
C060
C060
C060
E0E0
71C0
3F80
1F00
ENDCHAR
STARTCHAR 016C
ENCODING 364
SWIDTH 640 0
DWIDTH 16 0
BBX 12 22 2 0
BITMAP
30C0
1F80
0F00
0000
C030
C030
C030
C030
C030
C030
C030
C030
C030
C030
C030
C030
C030
C030
E060
70E0
3FC0
1F80
ENDCHAR
STARTCHAR 016D
ENCODING 365
SWIDTH 600 0
DWIDTH 15 0
BBX 11 18 2 0
BITMAP
30C0
1F80
0F00
0000
0000
C060
C060
C060
C060
C060
C060
C060
C060
C060
E0E0
71C0
3F80
1F00
ENDCHAR
STARTCHAR 016E
ENCODING 366
SWIDTH 640 0
DWIDTH 16 0
BBX 12 24 2 0
BITMAP
0700
0880
0880
0880
0700
0000
C030
C030
C030
C030
C030
C030
C030
C030
C030
C030
C030
C030
C030
C030
E060
70E0
3FC0
1F80
ENDCHAR
STARTCHAR 016F
ENCODING 367
SWIDTH 600 0
DWIDTH 15 0
BBX 11 20 2 0
BITMAP
0E00
1100
1100
1100
0E00
0000
0000
C060
C060
C060
C060
C060
C060
C060
C060
C060
E0E0
71C0
3F80
1F00
ENDCHAR
STARTCHAR 0170
ENCODING 368
SWIDTH 640 0
DWIDTH 16 0
BBX 12 23 2 0
BITMAP
0EE0
0CC0
1980
3300
0000
C030
C030
C030
C030
C030
C030
C030
C030
C030
C030
C030
C030
C030
C030
E060
70E0
3FC0
1F80
ENDCHAR
STARTCHAR 0171
ENCODING 369
SWIDTH 600 0
DWIDTH 15 0
BBX 11 19 2 0
BITMAP
0EE0
0CC0
1980
3300
0000
0000
C060
C060
C060
C060
C060
C060
C060
C060
C060
E0E0
71C0
3F80
1F00
ENDCHAR
STARTCHAR 0172
ENCODING 370
SWIDTH 640 0
DWIDTH 16 0
BBX 12 23 2 -5
BITMAP
C030
C030
C030
C030
C030
C030
C030
C030
C030
C030
C030
C030
C030
C030
E060
70E0
3FC0
1F80
0300
0600
0600
0600
03C0
ENDCHAR
STARTCHAR 0173
ENCODING 371
SWIDTH 600 0
DWIDTH 15 0
BBX 11 18 2 -5
BITMAP
C060
C060
C060
C060
C060
C060
C060
C060
C060
E0E0
71C0
3F80
1F00
0600
0C00
0C00
0C00
0780
ENDCHAR
STARTCHAR 0174
ENCODING 372
SWIDTH 920 0
DWIDTH 23 0
BBX 21 23 1 0
BITMAP
007000
00D800
018C00
038600
000000
C02018
C07018
607030
607030
60D830
60D870
30D860
318C60
318C60
198CC0
1B06C0
1B06C0
1B06C0
0E0380
0E0380
0E0380
0C0180
040100
ENDCHAR
STARTCHAR 0175
ENCODING 373
SWIDTH 880 0
DWIDTH 22 0
BBX 21 19 0 0
BITMAP
007000
00D800
018C00
038600
000000
000000
C02018
606030
607030
307060
30D860
18D8C0
1888C0
0D8CC0
0D8D80
0D0580
070700
070700
020200
ENDCHAR
STARTCHAR 0176
ENCODING 374
SWIDTH 640 0
DWIDTH 16 0
BBX 14 23 1 0
BITMAP
0380
06C0
0C60
1C30
0000
C00C
6018
3030
3030
1860
0CE0
0CC0
0780
0780
0300
0300
0300
0300
0300
0300
0300
0300
0300
ENDCHAR
STARTCHAR 0177
ENCODING 375
SWIDTH 520 0
DWIDTH 13 0
BBX 12 24 0 -5
BITMAP
0E00
1B00
3180
70C0
0000
0000
C030
6060
6060
6060
30C0
30C0
1980
1980
1980
0F00
0F00
0700
0600
0600
0C00
0C00
0C00
1800
ENDCHAR
STARTCHAR 0178
ENCODING 376
SWIDTH 640 0
DWIDTH 16 0
BBX 14 22 1 0
BITMAP
1CE0
1CE0
1CE0
0000
C00C
6018
3030
3030
1860
0CE0
0CC0
0780
0780
0300
0300
0300
0300
0300
0300
0300
0300
0300
ENDCHAR
STARTCHAR 0179
ENCODING 377
SWIDTH 480 0
DWIDTH 12 0
BBX 9 23 1 0
BITMAP
0E00
0C00
1800
3000
0000
7F80
7F00
0300
0300
0600
0600
0E00
0C00
0C00
1800
1800
3800
3000
3000
6000
6000
7F80
FF80
ENDCHAR
STARTCHAR 017A
ENCODING 378
SWIDTH 440 0
DWIDTH 11 0
BBX 11 19 0 0
BITMAP
0700
0600
0C00
1800
0000
0000
7FE0
7FC0
0180
0380
0300
0600
0E00
0C00
1800
3800
3000
7FE0
FFE0
ENDCHAR
STARTCHAR 017B
ENCODING 379
SWIDTH 480 0
DWIDTH 12 0
BBX 9 22 1 0
BITMAP
1C00
1C00
1C00
0000
7F80
7F00
0300
0300
0600
0600
0E00
0C00
0C00
1800
1800
3800
3000
3000
6000
6000
7F80
FF80
ENDCHAR
STARTCHAR 017C
ENCODING 380
SWIDTH 440 0
DWIDTH 11 0
BBX 11 18 0 0
BITMAP
0E00
0E00
0E00
0000
0000
7FE0
7FC0
0180
0380
0300
0600
0E00
0C00
1800
3800
3000
7FE0
FFE0
ENDCHAR
STARTCHAR 017D
ENCODING 381
SWIDTH 480 0
DWIDTH 12 0
BBX 9 23 1 0
BITMAP
E380
6300
3600
1C00
0000
7F80
7F00
0300
0300
0600
0600
0E00
0C00
0C00
1800
1800
3800
3000
3000
6000
6000
7F80
FF80
ENDCHAR
STARTCHAR 017E
ENCODING 382
SWIDTH 440 0
DWIDTH 11 0
BBX 11 19 0 0
BITMAP
71C0
3180
1B00
0E00
0000
0000
7FE0
7FC0
0180
0380
0300
0600
0E00
0C00
1800
3800
3000
7FE0
FFE0
ENDCHAR
STARTCHAR 017F
ENCODING 383
SWIDTH 240 0
DWIDTH 6 0
BBX 5 18 2 0
BITMAP
78
F8
C0
C0
C0
C0
C0
C0
C0
C0
C0
C0
C0
C0
C0
C0
C0
C0
ENDCHAR
STARTCHAR 0192
ENCODING 402
SWIDTH 560 0
DWIDTH 14 0
BBX 11 23 0 -5
BITMAP
01C0
03E0
0320
0300
0300
0300
0300
0600
1FC0
1FC0
0600
0600
0600
0E00
0C00
0C00
0C00
0C00
0C00
1C00
1800
F800
F000
ENDCHAR
STARTCHAR 01FA
ENCODING 506
SWIDTH 760 0
DWIDTH 19 0
BBX 17 28 1 0
BITMAP
00E000
00C000
018000
030000
000000
000000
01C000
022000
022000
022000
01C000
01C000
01C000
03E000
036000
036000
063000
063000
0C1800
0C1800
1FFC00
1FFC00
380600
300600
300600
600300
600300
C00180
ENDCHAR
STARTCHAR 01FB
ENCODING 507
SWIDTH 680 0
DWIDTH 17 0
BBX 14 27 1 0
BITMAP
01C0
0180
0300
0600
0000
0000
0380
0440
0440
0440
0380
0000
0000
0000
0FCC
3FEC
787C
601C
E01C
C00C
C00C
C00C
E00C
601C
787C
3FEC
0FCC
ENDCHAR
STARTCHAR 01FC
ENCODING 508
SWIDTH 1000 0
DWIDTH 25 0
BBX 23 23 0 0
BITMAP
0000E0
0000C0
000180
000300
000000
000FFE
001FFE
001E00
003600
006600
006600
00C600
0187FE
0187FE
030600
07FE00
0FFE00
0C0600
180600
300600
300600
6007FE
C007FE
ENDCHAR
STARTCHAR 01FD
ENCODING 509
SWIDTH 1160 0
DWIDTH 29 0
BBX 26 19 2 0
BITMAP
00070000
00060000
000C0000
00180000
00000000
00000000
0FCCFC00
3FEDFF00
787F8380
601E0180
C00C00C0
C00FFFC0
C00FFFC0
C00C0000
C00C0180
601E0380
787F0700
3FEDFE00
0FCCF800
ENDCHAR
STARTCHAR 01FE
ENCODING 510
SWIDTH 880 0
DWIDTH 22 0
BBX 18 23 2 0
BITMAP
007000
006000
00C000
018000
000000
03F1C0
0FFD80
1C1F00
300700
600F80
601980
C019C0
C030C0
C060C0
C0C0C0
C180C0
E300C0
630180
760180
3C0300
1E0E00
3FFC00
73F000
ENDCHAR
STARTCHAR 01FF
ENCODING 511
SWIDTH 640 0
DWIDTH 16 0
BBX 14 20 1 -1
BITMAP
01C0
0180
0300
0600
0000
0000
0FC8
3FEC
7878
6038
C07C
C0CC
C18C
C30C
E60C
7C18
3878
3FF0
7FC0
6000
ENDCHAR
STARTCHAR 02C6
ENCODING 710
SWIDTH 520 0
DWIDTH 13 0
BBX 9 4 2 16
BITMAP
1C00
3600
6300
E180
ENDCHAR
STARTCHAR 02C7
ENCODING 711
SWIDTH 520 0
DWIDTH 13 0
BBX 9 4 2 16
BITMAP
E380
6300
3600
1C00
ENDCHAR
STARTCHAR 02C9
ENCODING 713
SWIDTH 480 0
DWIDTH 12 0
BBX 8 2 2 17
BITMAP
FF
FF
ENDCHAR
STARTCHAR 02D8
ENCODING 728
SWIDTH 440 0
DWIDTH 11 0
BBX 8 3 1 16
BITMAP
C3
7E
3C
ENDCHAR
STARTCHAR 02D9
ENCODING 729
SWIDTH 240 0
DWIDTH 6 0
BBX 3 3 1 16
BITMAP
E0
E0
E0
ENDCHAR
STARTCHAR 02DA
ENCODING 730
SWIDTH 320 0
DWIDTH 8 0
BBX 5 5 1 16
BITMAP
70
88
88
88
70
ENDCHAR
STARTCHAR 02DB
ENCODING 731
SWIDTH 320 0
DWIDTH 8 0
BBX 5 5 2 -5
BITMAP
60
C0
C0
C0
78
ENDCHAR
STARTCHAR 02DC
ENCODING 732
SWIDTH 440 0
DWIDTH 11 0
BBX 9 3 1 16
BITMAP
7900
FF80
8F00
ENDCHAR
STARTCHAR 02DD
ENCODING 733
SWIDTH 560 0
DWIDTH 14 0
BBX 9 4 3 16
BITMAP
3B80
3300
6600
CC00
ENDCHAR
STARTCHAR 037E
ENCODING 894
SWIDTH 280 0
DWIDTH 7 0
BBX 4 16 1 -3
BITMAP
70
70
70
00
00
00
00
00
00
00
20
30
60
60
C0
C0
ENDCHAR
STARTCHAR 0384
ENCODING 900
SWIDTH 360 0
DWIDTH 9 0
BBX 2 4 4 16
BITMAP
C0
C0
C0
C0
ENDCHAR
STARTCHAR 0385
ENCODING 901
SWIDTH 360 0
DWIDTH 9 0
BBX 8 4 1 16
BITMAP
18
18
DB
DB
ENDCHAR
STARTCHAR 0386
ENCODING 902
SWIDTH 760 0
DWIDTH 19 0
BBX 17 18 1 0
BITMAP
308000
31C000
31C000
33E000
036000
036000
063000
063000
0C1800
0C1800
1FFC00
1FFC00
380600
300600
300600
600300
600300
C00180
ENDCHAR
STARTCHAR 0387
ENCODING 903
SWIDTH 280 0
DWIDTH 7 0
BBX 3 3 2 10
BITMAP
E0
E0
E0
ENDCHAR
STARTCHAR 0388
ENCODING 904
SWIDTH 600 0
DWIDTH 15 0
BBX 15 18 -1 0
BITMAP
C7FE
C7FE
8600
8600
8600
0600
0600
07FE
07FE
0600
0600
0600
0600
0600
0600
0600
07FE
07FE
ENDCHAR
STARTCHAR 0389
ENCODING 905
SWIDTH 720 0
DWIDTH 18 0
BBX 17 18 -1 0
BITMAP
CC0180
CC0180
8C0180
8C0180
8C0180
0C0180
0C0180
0FFF80
0FFF80
0C0180
0C0180
0C0180
0C0180
0C0180
0C0180
0C0180
0C0180
0C0180
ENDCHAR
STARTCHAR 038A
ENCODING 906
SWIDTH 280 0
DWIDTH 7 0
BBX 6 18 -1 0
BITMAP
CC
CC
CC
CC
0C
0C
0C
0C
0C
0C
0C
0C
0C
0C
0C
0C
0C
0C
ENDCHAR
STARTCHAR 038C
ENCODING 908
SWIDTH 880 0
DWIDTH 22 0
BBX 21 18 -1 0
BITMAP
C07E00
C1FF80
8381C0
8700E0
8E0070
0C0030
180018
180018
180018
180018
180018
180018
0C0030
0E0070
0700E0
0381C0
01FF80
007E00
ENDCHAR
STARTCHAR 038E
ENCODING 910
SWIDTH 640 0
DWIDTH 16 0
BBX 17 18 -1 0
BITMAP
D80180
CC0300
860600
860600
030C00
019C00
019800
00F000
00F000
006000
006000
006000
006000
006000
006000
006000
006000
006000
ENDCHAR
STARTCHAR 038F
ENCODING 911
SWIDTH 840 0
DWIDTH 21 0
BBX 20 18 -1 0
BITMAP
C0FE00
C3FF80
8783C0
8E00E0
8C0060
1C0070
180030
180030
180030
180030
180030
0C0060
0C00E0
0601C0
038380
00C600
0FC7E0
0FC7E0
ENDCHAR
STARTCHAR 0390
ENCODING 912
SWIDTH 240 0
DWIDTH 6 0
BBX 6 20 1 0
BITMAP
60
60
EC
EC
00
00
00
60
60
60
60
60
60
60
60
60
60
60
60
60
ENDCHAR
STARTCHAR 0391
ENCODING 913
SWIDTH 760 0
DWIDTH 19 0
BBX 17 18 1 0
BITMAP
008000
01C000
01C000
03E000
036000
036000
063000
063000
0C1800
0C1800
1FFC00
1FFC00
380600
300600
300600
600300
600300
C00180
ENDCHAR
STARTCHAR 0392
ENCODING 914
SWIDTH 560 0
DWIDTH 14 0
BBX 10 18 2 0
BITMAP
FC00
FF00
C380
C180
C180
C180
C180
C300
FE00
FF00
C380
C0C0
C0C0
C0C0
C0C0
C180
FF80
FE00
ENDCHAR
STARTCHAR 0393
ENCODING 915
SWIDTH 480 0
DWIDTH 12 0
BBX 10 18 2 0
BITMAP
FFC0
FFC0
C000
C000
C000
C000
C000
C000
C000
C000
C000
C000
C000
C000
C000
C000
C000
C000
ENDCHAR
STARTCHAR 0394
ENCODING 916
SWIDTH 760 0
DWIDTH 19 0
BBX 17 18 1 0
BITMAP
008000
01C000
01C000
036000
036000
037000
063000
063000
0C1800
0C1800
180C00
180C00
300600
300600
600300
600300
FFFF80
FFFF80
ENDCHAR
STARTCHAR 0395
ENCODING 917
SWIDTH 520 0
DWIDTH 13 0
BBX 10 18 2 0
BITMAP
FFC0
FFC0
C000
C000
C000
C000
C000
FFC0
FFC0
C000
C000
C000
C000
C000
C000
C000
FFC0
FFC0
ENDCHAR
STARTCHAR 0396
ENCODING 918
SWIDTH 480 0
DWIDTH 12 0
BBX 9 18 1 0
BITMAP
7F80
7F00
0300
0300
0600
0600
0E00
0C00
0C00
1800
1800
3800
3000
3000
6000
6000
7F80
FF80
ENDCHAR
STARTCHAR 0397
ENCODING 919
SWIDTH 680 0
DWIDTH 17 0
BBX 13 18 2 0
BITMAP
C018
C018
C018
C018
C018
C018
C018
FFF8
FFF8
C018
C018
C018
C018
C018
C018
C018
C018
C018
ENDCHAR
STARTCHAR 0398
ENCODING 920
SWIDTH 880 0
DWIDTH 22 0
BBX 18 18 2 0
BITMAP
03F000
0FFC00
1C0E00
380700
700380
600180
C000C0
C000C0
C7F8C0
C7F8C0
C000C0
C000C0
600180
700380
380700
1C0E00
0FFC00
03F000
ENDCHAR
STARTCHAR 0399
ENCODING 921
SWIDTH 240 0
DWIDTH 6 0
BBX 2 18 2 0
BITMAP
C0
C0
C0
C0
C0
C0
C0
C0
C0
C0
C0
C0
C0
C0
C0
C0
C0
C0
ENDCHAR
STARTCHAR 039A
ENCODING 922
SWIDTH 600 0
DWIDTH 15 0
BBX 12 18 2 0
BITMAP
C060
C0C0
C180
C300
CE00
DC00
F800
F000
E000
F000
D800
CC00
C600
C300
C180
C0C0
C060
C030
ENDCHAR
STARTCHAR 039B
ENCODING 923
SWIDTH 680 0
DWIDTH 17 0
BBX 17 18 0 0
BITMAP
008000
01C000
01C000
03E000
036000
036000
063000
063000
0C1800
0C1800
180C00
180C00
380600
300600
300600
600300
600300
C00180
ENDCHAR
STARTCHAR 039C
ENCODING 924
SWIDTH 1000 0
DWIDTH 25 0
BBX 21 18 2 0
BITMAP
200020
300060
300060
3800E0
7800E0
6C01B0
6C01B0
660330
660330
630630
630630
618C30
618C30
E0D830
C0D818
C07018
C07018
C02018
ENDCHAR
STARTCHAR 039D
ENCODING 925
SWIDTH 760 0
DWIDTH 19 0
BBX 15 18 2 0
BITMAP
8006
C006
E006
F006
F006
D806
CC06
C606
C306
C186
C0C6
C066
C036
C01E
C01E
C00E
C006
C002
ENDCHAR
STARTCHAR 039E
ENCODING 926
SWIDTH 520 0
DWIDTH 13 0
BBX 9 18 2 0
BITMAP
FF80
FF80
0000
0000
0000
0000
0000
FF80
FF80
0000
0000
0000
0000
0000
0000
0000
FF80
FF80
ENDCHAR
STARTCHAR 039F
ENCODING 927
SWIDTH 880 0
DWIDTH 22 0
BBX 18 18 2 0
BITMAP
03F000
0FFC00
1C0E00
380700
700380
600180
C000C0
C000C0
C000C0
C000C0
C000C0
C000C0
600180
700380
380700
1C0E00
0FFC00
03F000
ENDCHAR
STARTCHAR 03A0
ENCODING 928
SWIDTH 680 0
DWIDTH 17 0
BBX 13 18 2 0
BITMAP
FFF8
FFF8
C018
C018
C018
C018
C018
C018
C018
C018
C018
C018
C018
C018
C018
C018
C018
C018
ENDCHAR
STARTCHAR 03A1
ENCODING 929
SWIDTH 600 0
DWIDTH 15 0
BBX 11 18 2 0
BITMAP
FF00
FFC0
C0C0
C060
C060
C060
C060
C0C0
FFC0
FF00
C000
C000
C000
C000
C000
C000
C000
C000
ENDCHAR
STARTCHAR 03A3
ENCODING 931
SWIDTH 520 0
DWIDTH 13 0
BBX 11 18 1 0
BITMAP
FFE0
7FE0
6000
3000
3000
1800
0C00
0C00
0600
0600
0C00
0C00
1800
3000
3000
6000
7FE0
FFE0
ENDCHAR
STARTCHAR 03A4
ENCODING 932
SWIDTH 440 0
DWIDTH 11 0
BBX 10 18 0 0
BITMAP
FFC0
FFC0
0C00
0C00
0C00
0C00
0C00
0C00
0C00
0C00
0C00
0C00
0C00
0C00
0C00
0C00
0C00
0C00
ENDCHAR
STARTCHAR 03A5
ENCODING 933
SWIDTH 640 0
DWIDTH 16 0
BBX 14 18 1 0
BITMAP
C00C
6018
3030
3030
1860
0CE0
0CC0
0780
0780
0300
0300
0300
0300
0300
0300
0300
0300
0300
ENDCHAR
STARTCHAR 03A6
ENCODING 934
SWIDTH 840 0
DWIDTH 21 0
BBX 17 18 2 0
BITMAP
00C000
00C000
07F000
1FFC00
38CE00
70C300
E0C380
C0C180
C0C180
C0C180
C0C180
E0C380
70C300
38CE00
1FFC00
07F000
00C000
00C000
ENDCHAR
STARTCHAR 03A7
ENCODING 935
SWIDTH 600 0
DWIDTH 15 0
BBX 13 18 1 0
BITMAP
C018
E038
6030
3060
38E0
18C0
0D80
0F80
0700
0700
0F80
0D80
18C0
38E0
3060
6030
E038
C018
ENDCHAR
STARTCHAR 03A8
ENCODING 936
SWIDTH 800 0
DWIDTH 20 0
BBX 16 18 2 0
BITMAP
C183
C183
C183
C183
C183
C183
C183
C183
C183
C187
6186
799E
3FFC
0FF0
0180
0180
0180
0180
ENDCHAR
STARTCHAR 03A9
ENCODING 937
SWIDTH 840 0
DWIDTH 21 0
BBX 17 18 2 0
BITMAP
07F000
1FFC00
3C1E00
700700
600300
E00380
C00180
C00180
C00180
C00180
C00180
600300
600700
300E00
1C1C00
063000
7E3F00
7E3F00
ENDCHAR
STARTCHAR 03AA
ENCODING 938
SWIDTH 240 0
DWIDTH 6 0
BBX 8 22 -1 0
BITMAP
E7
E7
E7
00
18
18
18
18
18
18
18
18
18
18
18
18
18
18
18
18
18
18
ENDCHAR
STARTCHAR 03AB
ENCODING 939
SWIDTH 640 0
DWIDTH 16 0
BBX 14 22 1 0
BITMAP
1CE0
1CE0
1CE0
0000
C00C
6018
3030
3030
1860
0CE0
0CC0
0780
0780
0300
0300
0300
0300
0300
0300
0300
0300
0300
ENDCHAR
STARTCHAR 03AC
ENCODING 940
SWIDTH 680 0
DWIDTH 17 0
BBX 14 20 1 0
BITMAP
0300
0300
0300
0200
0200
0000
0000
0FCC
3FEC
787C
601C
E01C
C00C
C00C
C00C
E00C
601C
787C
3FEC
0FCC
ENDCHAR
STARTCHAR 03AD
ENCODING 941
SWIDTH 440 0
DWIDTH 11 0
BBX 9 20 1 0
BITMAP
0C00
0C00
0C00
0800
0800
0000
0000
1E00
7F00
6100
6000
7000
1C00
7C00
E000
C000
C000
E180
7F80
3E00
ENDCHAR
STARTCHAR 03AE
ENCODING 942
SWIDTH 600 0
DWIDTH 15 0
BBX 11 25 2 -5
BITMAP
0600
0600
0600
0400
0400
0000
0000
CF80
DFC0
F0C0
E060
E060
C060
C060
C060
C060
C060
C060
C060
C060
0060
0060
0060
0060
0060
ENDCHAR
STARTCHAR 03AF
ENCODING 943
SWIDTH 240 0
DWIDTH 6 0
BBX 2 20 2 0
BITMAP
C0
C0
C0
C0
00
00
00
C0
C0
C0
C0
C0
C0
C0
C0
C0
C0
C0
C0
C0
ENDCHAR
STARTCHAR 03B0
ENCODING 944
SWIDTH 600 0
DWIDTH 15 0
BBX 12 20 2 0
BITMAP
0600
0600
34C0
34C0
0000
0000
0000
C180
C1C0
C0E0
C060
C030
C030
C030
C030
C030
E060
70E0
3FC0
1F80
ENDCHAR
STARTCHAR 03B1
ENCODING 945
SWIDTH 680 0
DWIDTH 17 0
BBX 14 13 1 0
BITMAP
0FCC
3FEC
787C
601C
E01C
C00C
C00C
C00C
E00C
601C
787C
3FEC
0FCC
ENDCHAR
STARTCHAR 03B2
ENCODING 946
SWIDTH 600 0
DWIDTH 15 0
BBX 12 23 2 -5
BITMAP
1F00
7F80
E1C0
C0C0
C0C0
C180
CF00
CFC0
C0E0
C070
C030
C030
C030
C030
E060
F0E0
DFC0
CF80
C000
C000
C000
C000
C000
ENDCHAR
STARTCHAR 03B3
ENCODING 947
SWIDTH 560 0
DWIDTH 14 0
BBX 12 18 1 -5
BITMAP
C030
C030
6060
6060
30C0
30C0
1980
1980
0F00
0F00
0F00
0600
0600
0600
0600
0600
0600
0600
ENDCHAR
STARTCHAR 03B4
ENCODING 948
SWIDTH 560 0
DWIDTH 14 0
BBX 12 18 1 0
BITMAP
0FC0
1FC0
3800
3000
3000
1C00
0F00
3FC0
70E0
E060
C030
C030
C030
C030
E070
70E0
3FC0
1F80
ENDCHAR
STARTCHAR 03B5
ENCODING 949
SWIDTH 440 0
DWIDTH 11 0
BBX 9 13 1 0
BITMAP
1E00
7F00
6100
6000
7000
1C00
7C00
E000
C000
C000
E180
7F80
3E00
ENDCHAR
STARTCHAR 03B6
ENCODING 950
SWIDTH 480 0
DWIDTH 12 0
BBX 11 23 1 -5
BITMAP
3FE0
3FE0
00C0
0180
0600
0C00
1800
3000
6000
6000
C000
C000
C000
C000
E000
7800
3F00
0FC0
00E0
0060
00E0
0FC0
0F80
ENDCHAR
STARTCHAR 03B7
ENCODING 951
SWIDTH 600 0
DWIDTH 15 0
BBX 11 18 2 -5
BITMAP
CF80
DFC0
F0C0
E060
E060
C060
C060
C060
C060
C060
C060
C060
C060
0060
0060
0060
0060
0060
ENDCHAR
STARTCHAR 03B8
ENCODING 952
SWIDTH 640 0
DWIDTH 16 0
BBX 14 18 1 0
BITMAP
0FC0
1FE0
3870
7038
6018
C00C
C00C
C00C
FFFC
FFFC
C00C
C00C
C00C
6018
6038
3870
1FE0
0FC0
ENDCHAR
STARTCHAR 03B9
ENCODING 953
SWIDTH 240 0
DWIDTH 6 0
BBX 2 13 2 0
BITMAP
C0
C0
C0
C0
C0
C0
C0
C0
C0
C0
C0
C0
C0
ENDCHAR
STARTCHAR 03BA
ENCODING 954
SWIDTH 520 0
DWIDTH 13 0
BBX 10 13 2 0
BITMAP
C180
C300
C600
CC00
D800
F000
F000
D800
CC00
C600
C300
C180
C0C0
ENDCHAR
STARTCHAR 03BB
ENCODING 955
SWIDTH 520 0
DWIDTH 13 0
BBX 13 18 0 0
BITMAP
1800
1800
0C00
0C00
0600
0600
0700
0700
0D80
0D80
18C0
18C0
3860
3060
7030
6030
E018
C018
ENDCHAR
STARTCHAR 03BC
ENCODING 956
SWIDTH 600 0
DWIDTH 15 0
BBX 11 18 2 -5
BITMAP
C060
C060
C060
C060
C060
C060
C060
C060
C0E0
C0E0
E1E0
FF60
DE60
C000
C000
C000
C000
C000
ENDCHAR
STARTCHAR 03BD
ENCODING 957
SWIDTH 600 0
DWIDTH 15 0
BBX 13 13 1 0
BITMAP
C018
6030
6030
3060
3060
18C0
18C0
19C0
0D80
0D80
0700
0700
0200
ENDCHAR
STARTCHAR 03BE
ENCODING 958
SWIDTH 480 0
DWIDTH 12 0
BBX 11 23 1 -5
BITMAP
0FE0
3FE0
7000
6000
6000
6000
3800
0FC0
3FC0
7000
E000
C000
C000
C000
E000
7800
3F00
0FC0
00E0
0060
00E0
0FC0
0F80
ENDCHAR
STARTCHAR 03BF
ENCODING 959
SWIDTH 640 0
DWIDTH 16 0
BBX 14 13 1 0
BITMAP
0FC0
3FE0
7878
6018
E01C
C00C
C00C
C00C
C01C
6018
7878
3FF0
0FC0
ENDCHAR
STARTCHAR 03C0
ENCODING 960
SWIDTH 680 0
DWIDTH 17 0
BBX 15 13 1 0
BITMAP
FFFE
FFFE
1830
1830
1830
1830
1830
1830
1830
1830
1830
1830
1830
ENDCHAR
STARTCHAR 03C1
ENCODING 961
SWIDTH 680 0
DWIDTH 17 0
BBX 14 18 2 -5
BITMAP
0FC0
3FE0
7878
6018
C01C
C00C
C00C
C00C
E00C
E018
F878
DFF0
C7C0
C000
C000
C000
C000
C000
ENDCHAR
STARTCHAR 03C2
ENCODING 962
SWIDTH 560 0
DWIDTH 14 0
BBX 12 18 1 -5
BITMAP
0F80
3FE0
7070
6030
C000
C000
C000
C000
C000
6000
7800
3F80
07E0
00E0
0060
00E0
07C0
0780
ENDCHAR
STARTCHAR 03C3
ENCODING 963
SWIDTH 720 0
DWIDTH 18 0
BBX 16 13 1 0
BITMAP
0FFF
1FFF
7870
6018
E01C
C00C
C00C
C00C
C01C
6018
7878
3FF0
0FC0
ENDCHAR
STARTCHAR 03C4
ENCODING 964
SWIDTH 400 0
DWIDTH 10 0
BBX 8 13 1 0
BITMAP
FF
FF
18
18
18
18
18
18
18
18
18
18
18
ENDCHAR
STARTCHAR 03C5
ENCODING 965
SWIDTH 600 0
DWIDTH 15 0
BBX 12 13 2 0
BITMAP
C180
C1C0
C0E0
C060
C030
C030
C030
C030
C030
E060
70E0
3FC0
1F80
ENDCHAR
STARTCHAR 03C6
ENCODING 966
SWIDTH 760 0
DWIDTH 19 0
BBX 17 18 1 -5
BITMAP
09F000
39FC00
798E00
618300
C18380
C18180
C18180
C18180
C18180
618300
798F00
3FFC00
0FF000
018000
018000
018000
018000
018000
ENDCHAR
STARTCHAR 03C7
ENCODING 967
SWIDTH 480 0
DWIDTH 12 0
BBX 12 18 0 -5
BITMAP
6060
30C0
30C0
1980
1980
0F00
0F00
0600
0600
0F00
0F00
1980
1980
30C0
30C0
6060
6060
C030
ENDCHAR
STARTCHAR 03C8
ENCODING 968
SWIDTH 720 0
DWIDTH 18 0
BBX 14 18 2 -5
BITMAP
C30C
C30C
C30C
C30C
C30C
C30C
C30C
C30C
C30C
E31C
7338
3FF0
1FC0
0300
0300
0300
0300
0300
ENDCHAR
STARTCHAR 03C9
ENCODING 969
SWIDTH 840 0
DWIDTH 21 0
BBX 19 13 1 0
BITMAP
061C00
1E1F00
380380
6001C0
E000C0
C00060
C0C060
C0C060
C0C060
E1E0E0
61F1C0
3F3F80
1E1F00
ENDCHAR
STARTCHAR 03CA
ENCODING 970
SWIDTH 240 0
DWIDTH 6 0
BBX 8 18 -1 0
BITMAP
E7
E7
E7
00
00
18
18
18
18
18
18
18
18
18
18
18
18
18
ENDCHAR
STARTCHAR 03CB
ENCODING 971
SWIDTH 600 0
DWIDTH 15 0
BBX 12 19 2 0
BITMAP
39C0
39C0
39C0
0000
0000
0000
C180
C1C0
C0E0
C060
C030
C030
C030
C030
C030
E060
70E0
3FC0
1F80
ENDCHAR
STARTCHAR 03CC
ENCODING 972
SWIDTH 640 0
DWIDTH 16 0
BBX 14 20 1 0
BITMAP
0180
0180
0180
0100
0100
0000
0000
0FC0
3FE0
7878
6018
E01C
C00C
C00C
C00C
C01C
6018
7878
3FF0
0FC0
ENDCHAR
STARTCHAR 03CD
ENCODING 973
SWIDTH 600 0
DWIDTH 15 0
BBX 12 20 2 0
BITMAP
0600
0600
0600
0400
0400
0000
0000
C180
C1C0
C0E0
C060
C030
C030
C030
C030
C030
E060
70E0
3FC0
1F80
ENDCHAR
STARTCHAR 03CE
ENCODING 974
SWIDTH 840 0
DWIDTH 21 0
BBX 19 20 1 0
BITMAP
00C000
00C000
00C000
008000
008000
000000
000000
061C00
1E1F00
380380
6001C0
E000C0
C00060
C0C060
C0C060
C0C060
E1E0E0
61F1C0
3F3F80
1E1F00
ENDCHAR
STARTCHAR 0401
ENCODING 1025
SWIDTH 520 0
DWIDTH 13 0
BBX 10 22 2 0
BITMAP
7380
7380
7380
0000
FFC0
FFC0
C000
C000
C000
C000
C000
FFC0
FFC0
C000
C000
C000
C000
C000
C000
C000
FFC0
FFC0
ENDCHAR
STARTCHAR 0402
ENCODING 1026
SWIDTH 680 0
DWIDTH 17 0
BBX 15 18 0 0
BITMAP
FFC0
FFC0
0C00
0C00
0C00
0C00
0C00
0FF0
0FFC
0C1C
0C06
0C06
0C06
0C06
0C06
0CCE
0CFC
0C78
ENDCHAR
STARTCHAR 0403
ENCODING 1027
SWIDTH 480 0
DWIDTH 12 0
BBX 10 23 2 0
BITMAP
0380
0300
0600
0C00
0000
FFC0
FFC0
C000
C000
C000
C000
C000
C000
C000
C000
C000
C000
C000
C000
C000
C000
C000
C000
ENDCHAR
STARTCHAR 0404
ENCODING 1028
SWIDTH 800 0
DWIDTH 20 0
BBX 16 18 2 0
BITMAP
03F0
0FFC
1C0E
3807
6002
6000
C000
C000
FFC0
FFC0
C000
C000
6000
6002
3007
1C0E
0FFC
03F0
ENDCHAR
STARTCHAR 0405
ENCODING 1029
SWIDTH 480 0
DWIDTH 12 0
BBX 10 18 0 0
BITMAP
1E00
3F80
71C0
6080
6000
6000
3000
1C00
0E00
0700
0380
01C0
00C0
40C0
C0C0
6180
3F80
1E00
ENDCHAR
STARTCHAR 0406
ENCODING 1030
SWIDTH 240 0
DWIDTH 6 0
BBX 2 18 2 0
BITMAP
C0
C0
C0
C0
C0
C0
C0
C0
C0
C0
C0
C0
C0
C0
C0
C0
C0
C0
ENDCHAR
STARTCHAR 0407
ENCODING 1031
SWIDTH 240 0
DWIDTH 6 0
BBX 8 22 -1 0
BITMAP
E7
E7
E7
00
18
18
18
18
18
18
18
18
18
18
18
18
18
18
18
18
18
18
ENDCHAR
STARTCHAR 0408
ENCODING 1032
SWIDTH 480 0
DWIDTH 12 0
BBX 9 18 1 0
BITMAP
0180
0180
0180
0180
0180
0180
0180
0180
0180
0180
0180
0180
0180
0180
C180
E380
7F00
1E00
ENDCHAR
STARTCHAR 0409
ENCODING 1033
SWIDTH 1080 0
DWIDTH 27 0
BBX 25 18 0 0
BITMAP
00800000
01C00000
01C00000
03600000
03600000
03700000
06300000
063FF800
0C1FFE00
0C180700
180C0380
180C0180
30060180
30060180
60030380
60030700
E001FE00
C001FC00
ENDCHAR
STARTCHAR 040A
ENCODING 1034
SWIDTH 1040 0
DWIDTH 26 0
BBX 22 18 2 0
BITMAP
C03000
C03000
C03000
C03000
C03000
C03000
C03000
FFFFE0
FFFFF0
C03038
C0301C
C0300C
C0300C
C0300C
C0300C
C03038
C03FF8
C03FE0
ENDCHAR
STARTCHAR 040B
ENCODING 1035
SWIDTH 680 0
DWIDTH 17 0
BBX 15 18 0 0
BITMAP
FFC0
FFC0
0C00
0C00
0C00
0C00
0C00
0FF8
0FFC
0C0E
0C06
0C06
0C06
0C06
0C06
0C06
0C06
0C06
ENDCHAR
STARTCHAR 040C
ENCODING 1036
SWIDTH 600 0
DWIDTH 15 0
BBX 12 23 2 0
BITMAP
01C0
0180
0300
0600
0000
C060
C0C0
C180
C300
CE00
DC00
F800
F000
E000
F000
D800
CC00
C600
C300
C180
C0C0
C060
C030
ENDCHAR
STARTCHAR 040E
ENCODING 1038
SWIDTH 640 0
DWIDTH 16 0
BBX 14 22 1 0
BITMAP
1860
0FC0
0780
0000
C00C
C00C
6018
6018
3038
3030
1830
1860
0C60
0CC0
06C0
07C0
0380
0380
0300
E300
7E00
3C00
ENDCHAR
STARTCHAR 040F
ENCODING 1039
SWIDTH 640 0
DWIDTH 16 0
BBX 12 21 2 -3
BITMAP
C030
C030
C030
C030
C030
C030
C030
C030
C030
C030
C030
C030
C030
C030
C030
C030
FFF0
FFF0
0600
0600
0600
ENDCHAR
STARTCHAR 0410
ENCODING 1040
SWIDTH 760 0
DWIDTH 19 0
BBX 17 18 1 0
BITMAP
008000
01C000
01C000
03E000
036000
036000
063000
063000
0C1800
0C1800
1FFC00
1FFC00
380600
300600
300600
600300
600300
C00180
ENDCHAR
STARTCHAR 0411
ENCODING 1041
SWIDTH 560 0
DWIDTH 14 0
BBX 10 18 2 0
BITMAP
FF00
FF00
C000
C000
C000
C000
C000
FE00
FF00
C380
C1C0
C0C0
C0C0
C0C0
C1C0
C380
FF00
FE00
ENDCHAR
STARTCHAR 0412
ENCODING 1042
SWIDTH 560 0
DWIDTH 14 0
BBX 10 18 2 0
BITMAP
FC00
FF00
C380
C180
C180
C180
C180
C300
FE00
FF00
C380
C0C0
C0C0
C0C0
C0C0
C180
FF80
FE00
ENDCHAR
STARTCHAR 0413
ENCODING 1043
SWIDTH 480 0
DWIDTH 12 0
BBX 10 18 2 0
BITMAP
FFC0
FFC0
C000
C000
C000
C000
C000
C000
C000
C000
C000
C000
C000
C000
C000
C000
C000
C000
ENDCHAR
STARTCHAR 0414
ENCODING 1044
SWIDTH 760 0
DWIDTH 19 0
BBX 19 21 0 -3
BITMAP
004000
00E000
00E000
01B000
01B000
031800
031800
070800
060C00
0E0C00
0C0600
0C0600
180300
180300
300180
300180
FFFFE0
FFFFE0
C00060
C00060
C00060
ENDCHAR
STARTCHAR 0415
ENCODING 1045
SWIDTH 520 0
DWIDTH 13 0
BBX 10 18 2 0
BITMAP
FFC0
FFC0
C000
C000
C000
C000
C000
FFC0
FFC0
C000
C000
C000
C000
C000
C000
C000
FFC0
FFC0
ENDCHAR
STARTCHAR 0416
ENCODING 1046
SWIDTH 920 0
DWIDTH 23 0
BBX 20 18 1 0
BITMAP
606060
3060C0
186180
0C6300
0E6700
066600
036C00
01F800
01F800
036C00
066600
066600
0C6300
186180
3060C0
7060E0
606060
C06030
ENDCHAR
STARTCHAR 0417
ENCODING 1047
SWIDTH 600 0
DWIDTH 15 0
BBX 12 18 1 0
BITMAP
1F00
7FC0
70E0
0060
0060
0060
00C0
0F00
0FC0
00E0
0070
0030
0030
0030
C070
70E0
7FC0
1F80
ENDCHAR
STARTCHAR 0418
ENCODING 1048
SWIDTH 760 0
DWIDTH 19 0
BBX 15 18 2 0
BITMAP
C002
C006
C00E
C01E
C01E
C036
C066
C0C6
C186
C306
C606
CC06
D806
F006
F006
E006
C006
8006
ENDCHAR
STARTCHAR 0419
ENCODING 1049
SWIDTH 760 0
DWIDTH 19 0
BBX 15 22 2 0
BITMAP
0C30
07E0
03C0
0000
C002
C006
C00E
C01E
C01E
C036
C066
C0C6
C186
C306
C606
CC06
D806
F006
F006
E006
C006
8006
ENDCHAR
STARTCHAR 041A
ENCODING 1050
SWIDTH 600 0
DWIDTH 15 0
BBX 12 18 2 0
BITMAP
C060
C0C0
C180
C300
CE00
DC00
F800
F000
E000
F000
D800
CC00
C600
C300
C180
C0C0
C060
C030
ENDCHAR
STARTCHAR 041B
ENCODING 1051
SWIDTH 680 0
DWIDTH 17 0
BBX 17 18 0 0
BITMAP
008000
01C000
01C000
03E000
036000
036000
063000
063000
0C1800
0C1800
180C00
180C00
380600
300600
300600
600300
600300
C00180
ENDCHAR
STARTCHAR 041C
ENCODING 1052
SWIDTH 1000 0
DWIDTH 25 0
BBX 21 18 2 0
BITMAP
200020
300060
300060
3800E0
7800E0
6C01B0
6C01B0
660330
660330
630630
630630
618C30
618C30
E0D830
C0D818
C07018
C07018
C02018
ENDCHAR
STARTCHAR 041D
ENCODING 1053
SWIDTH 680 0
DWIDTH 17 0
BBX 13 18 2 0
BITMAP
C018
C018
C018
C018
C018
C018
C018
FFF8
FFF8
C018
C018
C018
C018
C018
C018
C018
C018
C018
ENDCHAR
STARTCHAR 041E
ENCODING 1054
SWIDTH 880 0
DWIDTH 22 0
BBX 18 18 2 0
BITMAP
03F000
0FFC00
1C0E00
380700
700380
600180
C000C0
C000C0
C000C0
C000C0
C000C0
C000C0
600180
700380
380700
1C0E00
0FFC00
03F000
ENDCHAR
STARTCHAR 041F
ENCODING 1055
SWIDTH 680 0
DWIDTH 17 0
BBX 13 18 2 0
BITMAP
FFF8
FFF8
C018
C018
C018
C018
C018
C018
C018
C018
C018
C018
C018
C018
C018
C018
C018
C018
ENDCHAR
STARTCHAR 0420
ENCODING 1056
SWIDTH 600 0
DWIDTH 15 0
BBX 11 18 2 0
BITMAP
FF00
FFC0
C0C0
C060
C060
C060
C060
C0C0
FFC0
FF00
C000
C000
C000
C000
C000
C000
C000
C000
ENDCHAR
STARTCHAR 0421
ENCODING 1057
SWIDTH 800 0
DWIDTH 20 0
BBX 16 18 2 0
BITMAP
03F0
0FFC
1C1E
3807
7002
6000
C000
C000
C000
C000
C000
C000
6000
7002
3807
3C1E
0FFC
03F0
ENDCHAR
STARTCHAR 0422
ENCODING 1058
SWIDTH 440 0
DWIDTH 11 0
BBX 10 18 0 0
BITMAP
FFC0
FFC0
0C00
0C00
0C00
0C00
0C00
0C00
0C00
0C00
0C00
0C00
0C00
0C00
0C00
0C00
0C00
0C00
ENDCHAR
STARTCHAR 0423
ENCODING 1059
SWIDTH 640 0
DWIDTH 16 0
BBX 14 18 1 0
BITMAP
C00C
C00C
6018
6018
3038
3030
1830
1860
0C60
0CC0
06C0
07C0
0380
0380
0300
E300
7E00
3C00
ENDCHAR
STARTCHAR 0424
ENCODING 1060
SWIDTH 880 0
DWIDTH 22 0
BBX 18 18 2 0
BITMAP
00C000
00C000
1FFE00
3FFF00
70C380
E0C1C0
C0C0C0
C0C0C0
C0C0C0
C0C1C0
60C180
7FFF80
1FFE00
00C000
00C000
00C000
00C000
00C000
ENDCHAR
STARTCHAR 0425
ENCODING 1061
SWIDTH 600 0
DWIDTH 15 0
BBX 13 18 1 0
BITMAP
C018
E038
6030
3060
38E0
18C0
0D80
0F80
0700
0700
0F80
0D80
18C0
38E0
3060
6030
E038
C018
ENDCHAR
STARTCHAR 0426
ENCODING 1062
SWIDTH 720 0
DWIDTH 18 0
BBX 16 21 2 -3
BITMAP
C018
C018
C018
C018
C018
C018
C018
C018
C018
C018
C018
C018
C018
C018
C018
C018
FFFF
FFFF
0003
0003
0003
ENDCHAR
STARTCHAR 0427
ENCODING 1063
SWIDTH 520 0
DWIDTH 13 0
BBX 11 18 0 0
BITMAP
C060
C060
C060
C060
C060
C060
C060
6060
7FE0
1FE0
0060
0060
0060
0060
0060
0060
0060
0060
ENDCHAR
STARTCHAR 0428
ENCODING 1064
SWIDTH 1000 0
DWIDTH 25 0
BBX 21 18 2 0
BITMAP
C06018
C06018
C06018
C06018
C06018
C06018
C06018
C06018
C06018
C06018
C06018
C06018
C06018
C06018
C06018
C06018
FFFFF8
FFFFF8
ENDCHAR
STARTCHAR 0429
ENCODING 1065
SWIDTH 1080 0
DWIDTH 27 0
BBX 25 21 2 -3
BITMAP
C0601800
C0601800
C0601800
C0601800
C0601800
C0601800
C0601800
C0601800
C0601800
C0601800
C0601800
C0601800
C0601800
C0601800
C0601800
C0601800
FFFFFF80
FFFFFF80
00000180
00000180
00000180
ENDCHAR
STARTCHAR 042A
ENCODING 1066
SWIDTH 680 0
DWIDTH 17 0
BBX 15 18 0 0
BITMAP
FC00
FC00
0C00
0C00
0C00
0C00
0C00
0FF0
0FFC
0C0C
0C06
0C06
0C06
0C06
0C06
0C0C
0FFC
0FF0
ENDCHAR
STARTCHAR 042B
ENCODING 1067
SWIDTH 800 0
DWIDTH 20 0
BBX 16 18 2 0
BITMAP
C003
C003
C003
C003
C003
C003
C003
FF83
FFE3
C0E3
C073
C033
C033
C033
C073
C0E3
FFE3
FF83
ENDCHAR
STARTCHAR 042C
ENCODING 1068
SWIDTH 600 0
DWIDTH 15 0
BBX 11 18 2 0
BITMAP
C000
C000
C000
C000
C000
C000
C000
FF00
FFC0
C0C0
C060
C060
C060
C060
C060
C0C0
FFC0
FF00
ENDCHAR
STARTCHAR 042D
ENCODING 1069
SWIDTH 800 0
DWIDTH 20 0
BBX 16 18 2 0
BITMAP
0FC0
3FF0
7038
E01C
4006
0006
0003
0003
03FF
03FF
0003
0003
0006
4006
E00C
7038
3FF0
0FC0
ENDCHAR
STARTCHAR 042E
ENCODING 1070
SWIDTH 1080 0
DWIDTH 27 0
BBX 23 18 2 0
BITMAP
C01F80
C07FE0
C0E070
C1C038
C3801C
C3000C
C60006
C60006
FE0006
FE0006
C60006
C60006
C3000C
C3801C
C1C038
C0E070
C07FE0
C01F80
ENDCHAR
STARTCHAR 042F
ENCODING 1071
SWIDTH 600 0
DWIDTH 15 0
BBX 11 18 2 0
BITMAP
1FE0
7FE0
6060
C060
C060
C060
C060
6060
7FE0
1FE0
0360
0660
0C60
1860
1860
3060
6060
C060
ENDCHAR
STARTCHAR 0430
ENCODING 1072
SWIDTH 680 0
DWIDTH 17 0
BBX 14 13 1 0
BITMAP
0FCC
3FEC
787C
601C
E01C
C00C
C00C
C00C
E00C
601C
787C
3FEC
0FCC
ENDCHAR
STARTCHAR 0431
ENCODING 1073
SWIDTH 680 0
DWIDTH 17 0
BBX 15 18 1 0
BITMAP
03FC
1FFC
3800
6000
4000
C7C0
9FF0
B838
F00C
E00E
E006
C006
C006
600E
600C
3838
1FF0
07E0
ENDCHAR
STARTCHAR 0432
ENCODING 1074
SWIDTH 480 0
DWIDTH 12 0
BBX 9 13 2 0
BITMAP
FC00
FE00
C300
C300
C300
FC00
FF00
C380
C180
C180
C380
FF00
FE00
ENDCHAR
STARTCHAR 0433
ENCODING 1075
SWIDTH 360 0
DWIDTH 9 0
BBX 7 13 2 0
BITMAP
FE
FE
C0
C0
C0
C0
C0
C0
C0
C0
C0
C0
C0
ENDCHAR
STARTCHAR 0434
ENCODING 1076
SWIDTH 600 0
DWIDTH 15 0
BBX 15 15 0 -2
BITMAP
0100
0380
0380
06C0
06C0
0C60
0C60
1830
1830
3018
3018
FFFE
FFFE
C006
C006
ENDCHAR
STARTCHAR 0435
ENCODING 1077
SWIDTH 640 0
DWIDTH 16 0
BBX 14 13 1 0
BITMAP
0FC0
3FE0
7830
6018
C00C
FFFC
FFFC
C000
C000
6018
7038
3FF0
0FC0
ENDCHAR
STARTCHAR 0436
ENCODING 1078
SWIDTH 760 0
DWIDTH 19 0
BBX 20 13 -1 0
BITMAP
C06030
7060E0
3861C0
0C6300
066600
03FC00
03FC00
066600
0C6300
186180
3060C0
606060
C06030
ENDCHAR
STARTCHAR 0437
ENCODING 1079
SWIDTH 440 0
DWIDTH 11 0
BBX 10 13 0 0
BITMAP
1E00
7F00
4380
0180
0380
0F00
0F80
01C0
00C0
00C0
61C0
FF80
3F00
ENDCHAR
STARTCHAR 0438
ENCODING 1080
SWIDTH 600 0
DWIDTH 15 0
BBX 11 13 2 0
BITMAP
C020
C060
C0E0
C1E0
C360
C660
CE60
CC60
D860
F060
E060
C060
8060
ENDCHAR
STARTCHAR 0439
ENCODING 1081
SWIDTH 600 0
DWIDTH 15 0
BBX 11 18 2 0
BITMAP
30C0
1F80
0F00
0000
0000
C020
C060
C0E0
C1E0
C360
C660
CE60
CC60
D860
F060
E060
C060
8060
ENDCHAR
STARTCHAR 043A
ENCODING 1082
SWIDTH 520 0
DWIDTH 13 0
BBX 11 13 2 0
BITMAP
C0C0
C180
C300
CE00
DC00
F000
F000
D800
CC00
C700
C380
C0C0
C060
ENDCHAR
STARTCHAR 043B
ENCODING 1083
SWIDTH 560 0
DWIDTH 14 0
BBX 12 13 1 0
BITMAP
0600
0600
0F00
0F00
0980
1980
1980
30C0
30C0
6060
6060
C030
C030
ENDCHAR
STARTCHAR 043C
ENCODING 1084
SWIDTH 880 0
DWIDTH 22 0
BBX 20 13 1 0
BITMAP
180180
180180
1C0380
1C03C0
3606C0
360EC0
330CC0
619860
619860
60F060
E0F070
C06030
C06030
ENDCHAR
STARTCHAR 043D
ENCODING 1085
SWIDTH 600 0
DWIDTH 15 0
BBX 11 13 2 0
BITMAP
C060
C060
C060
C060
C060
FFE0
FFE0
C060
C060
C060
C060
C060
C060
ENDCHAR
STARTCHAR 043E
ENCODING 1086
SWIDTH 640 0
DWIDTH 16 0
BBX 14 13 1 0
BITMAP
0FC0
3FE0
7878
6018
E01C
C00C
C00C
C00C
C01C
6018
7878
3FF0
0FC0
ENDCHAR
STARTCHAR 043F
ENCODING 1087
SWIDTH 600 0
DWIDTH 15 0
BBX 11 13 2 0
BITMAP
FFE0
FFE0
C060
C060
C060
C060
C060
C060
C060
C060
C060
C060
C060
ENDCHAR
STARTCHAR 0440
ENCODING 1088
SWIDTH 680 0
DWIDTH 17 0
BBX 14 18 2 -5
BITMAP
CFC0
DFF0
F878
E018
E01C
C00C
C00C
C00C
C01C
E018
F878
DFF0
C7C0
C000
C000
C000
C000
C000
ENDCHAR
STARTCHAR 0441
ENCODING 1089
SWIDTH 640 0
DWIDTH 16 0
BBX 14 13 1 0
BITMAP
07E0
1FF8
381C
6008
E000
C000
C000
C000
E000
6008
783C
1FF0
0FE0
ENDCHAR
STARTCHAR 0442
ENCODING 1090
SWIDTH 400 0
DWIDTH 10 0
BBX 8 13 1 0
BITMAP
FF
FF
18
18
18
18
18
18
18
18
18
18
18
ENDCHAR
STARTCHAR 0443
ENCODING 1091
SWIDTH 520 0
DWIDTH 13 0
BBX 12 18 0 -5
BITMAP
C030
6060
6060
6060
30C0
30C0
1980
1980
1980
0F00
0F00
0700
0600
0600
0C00
0C00
0C00
1800
ENDCHAR
STARTCHAR 0444
ENCODING 1092
SWIDTH 1080 0
DWIDTH 27 0
BBX 25 23 1 -5
BITMAP
00180000
00180000
00180000
00180000
00180000
0F99F800
3FDBFC00
787F0F00
603C0300
C01C0380
C0180180
C0180180
C0180180
C0180380
603C0300
787F0F00
3FDBFE00
0F99F800
00180000
00180000
00180000
00180000
00180000
ENDCHAR
STARTCHAR 0445
ENCODING 1093
SWIDTH 480 0
DWIDTH 12 0
BBX 12 13 0 0
BITMAP
6060
30C0
1980
1980
0F00
0600
0F00
0F00
1980
30C0
30C0
6060
C030
ENDCHAR
STARTCHAR 0446
ENCODING 1094
SWIDTH 640 0
DWIDTH 16 0
BBX 14 15 2 -2
BITMAP
C060
C060
C060
C060
C060
C060
C060
C060
C060
C060
C060
FFFC
FFFC
000C
000C
ENDCHAR
STARTCHAR 0447
ENCODING 1095
SWIDTH 440 0
DWIDTH 11 0
BBX 8 13 1 0
BITMAP
C3
C3
C3
C3
C3
E3
7F
3F
03
03
03
03
03
ENDCHAR
STARTCHAR 0448
ENCODING 1096
SWIDTH 960 0
DWIDTH 24 0
BBX 20 13 2 0
BITMAP
C06030
C06030
C06030
C06030
C06030
C06030
C06030
C06030
C06030
C06030
C06030
FFFFF0
FFFFF0
ENDCHAR
STARTCHAR 0449
ENCODING 1097
SWIDTH 1000 0
DWIDTH 25 0
BBX 23 15 2 -2
BITMAP
C06030
C06030
C06030
C06030
C06030
C06030
C06030
C06030
C06030
C06030
C06030
FFFFFE
FFFFFE
000006
000006
ENDCHAR
STARTCHAR 044A
ENCODING 1098
SWIDTH 520 0
DWIDTH 13 0
BBX 11 13 1 0
BITMAP
F000
F000
3000
3000
3000
3F80
3FC0
30E0
3060
3060
30E0
3FC0
3F80
ENDCHAR
STARTCHAR 044B
ENCODING 1099
SWIDTH 680 0
DWIDTH 17 0
BBX 13 13 2 0
BITMAP
C018
C018
C018
C018
C018
FE18
FF18
C398
C198
C198
C398
FF18
FE18
ENDCHAR
STARTCHAR 044C
ENCODING 1100
SWIDTH 480 0
DWIDTH 12 0
BBX 9 13 2 0
BITMAP
C000
C000
C000
C000
C000
FE00
FF00
C380
C180
C180
C380
FF00
FE00
ENDCHAR
STARTCHAR 044D
ENCODING 1101
SWIDTH 640 0
DWIDTH 16 0
BBX 14 13 1 0
BITMAP
0F80
3FE0
F070
C018
000C
03FC
03FC
000C
001C
C038
F070
3FE0
0F80
ENDCHAR
STARTCHAR 044E
ENCODING 1102
SWIDTH 840 0
DWIDTH 21 0
BBX 18 13 2 0
BITMAP
C0FC00
C3FE00
C78780
CE0180
CE01C0
FC00C0
FC00C0
CC00C0
CC01C0
C60180
C78780
C3FF00
C0FC00
ENDCHAR
STARTCHAR 044F
ENCODING 1103
SWIDTH 440 0
DWIDTH 11 0
BBX 8 13 1 0
BITMAP
3F
7F
E3
C3
C3
E3
7F
3F
1B
33
73
63
C3
ENDCHAR
STARTCHAR 0451
ENCODING 1105
SWIDTH 640 0
DWIDTH 16 0
BBX 14 18 1 0
BITMAP
1CE0
1CE0
1CE0
0000
0000
0FC0
3FE0
7830
6018
C00C
FFFC
FFFC
C000
C000
6018
7038
3FF0
0FC0
ENDCHAR
STARTCHAR 0452
ENCODING 1106
SWIDTH 640 0
DWIDTH 16 0
BBX 14 23 0 -5
BITMAP
3000
FFC0
FFC0
3000
3000
31E0
37F8
3E38
381C
380C
300C
300C
300C
300C
300C
300C
300C
300C
000C
000C
000C
003C
0038
ENDCHAR
STARTCHAR 0453
ENCODING 1107
SWIDTH 360 0
DWIDTH 9 0
BBX 7 19 2 0
BITMAP
0E
0C
18
30
00
00
FE
FE
C0
C0
C0
C0
C0
C0
C0
C0
C0
C0
C0
ENDCHAR
STARTCHAR 0454
ENCODING 1108
SWIDTH 640 0
DWIDTH 16 0
BBX 14 13 1 0
BITMAP
07C0
1FF0
3838
600C
C000
FF00
FF00
C000
E000
600C
383C
1FF0
07C0
ENDCHAR
STARTCHAR 0455
ENCODING 1109
SWIDTH 400 0
DWIDTH 10 0
BBX 8 13 1 0
BITMAP
1C
3F
62
60
60
38
1C
06
03
03
47
FE
3C
ENDCHAR
STARTCHAR 0456
ENCODING 1110
SWIDTH 240 0
DWIDTH 6 0
BBX 4 18 1 0
BITMAP
60
F0
60
00
00
60
60
60
60
60
60
60
60
60
60
60
60
60
ENDCHAR
STARTCHAR 0457
ENCODING 1111
SWIDTH 240 0
DWIDTH 6 0
BBX 8 18 -1 0
BITMAP
E7
E7
E7
00
00
18
18
18
18
18
18
18
18
18
18
18
18
18
ENDCHAR
STARTCHAR 0458
ENCODING 1112
SWIDTH 200 0
DWIDTH 5 0
BBX 5 23 -1 -5
BITMAP
30
78
30
00
00
30
30
30
30
30
30
30
30
30
30
30
30
30
30
30
30
F0
E0
ENDCHAR
STARTCHAR 0459
ENCODING 1113
SWIDTH 800 0
DWIDTH 20 0
BBX 18 13 1 0
BITMAP
060000
060000
0F0000
0F0000
0F8000
19FF00
19FF80
30C1C0
30C0C0
6060C0
6061C0
C03F80
C03F00
ENDCHAR
STARTCHAR 045A
ENCODING 1114
SWIDTH 840 0
DWIDTH 21 0
BBX 18 13 2 0
BITMAP
C06000
C06000
C06000
C06000
C06000
FFFF00
FFFF80
C061C0
C060C0
C060C0
C061C0
C07F80
C07F00
ENDCHAR
STARTCHAR 045B
ENCODING 1115
SWIDTH 640 0
DWIDTH 16 0
BBX 14 18 0 0
BITMAP
3000
FFC0
FFC0
3000
3000
31E0
37F8
3E38
381C
380C
300C
300C
300C
300C
300C
300C
300C
300C
ENDCHAR
STARTCHAR 045C
ENCODING 1116
SWIDTH 520 0
DWIDTH 13 0
BBX 11 19 2 0
BITMAP
0700
0600
0C00
1800
0000
0000
C0C0
C180
C300
CE00
DC00
F000
F000
D800
CC00
C700
C380
C0C0
C060
ENDCHAR
STARTCHAR 045E
ENCODING 1118
SWIDTH 520 0
DWIDTH 13 0
BBX 12 23 0 -5
BITMAP
30C0
1F80
0F00
0000
0000
C030
6060
6060
6060
30C0
30C0
1980
1980
1980
0F00
0F00
0700
0600
0600
0C00
0C00
0C00
1800
ENDCHAR
STARTCHAR 045F
ENCODING 1119
SWIDTH 600 0
DWIDTH 15 0
BBX 11 15 2 -2
BITMAP
C060
C060
C060
C060
C060
C060
C060
C060
C060
C060
C060
FFE0
FFE0
0600
0600
ENDCHAR
STARTCHAR 0490
ENCODING 1168
SWIDTH 400 0
DWIDTH 10 0
BBX 8 21 2 0
BITMAP
03
03
03
FF
FF
C0
C0
C0
C0
C0
C0
C0
C0
C0
C0
C0
C0
C0
C0
C0
C0
ENDCHAR
STARTCHAR 0491
ENCODING 1169
SWIDTH 360 0
DWIDTH 9 0
BBX 6 15 2 0
BITMAP
0C
0C
FC
FC
C0
C0
C0
C0
C0
C0
C0
C0
C0
C0
C0
ENDCHAR
STARTCHAR 1E80
ENCODING 7808
SWIDTH 920 0
DWIDTH 23 0
BBX 21 23 1 0
BITMAP
00E000
006000
003000
001800
000000
C02018
C07018
607030
607030
60D830
60D870
30D860
318C60
318C60
198CC0
1B06C0
1B06C0
1B06C0
0E0380
0E0380
0E0380
0C0180
040100
ENDCHAR
STARTCHAR 1E81
ENCODING 7809
SWIDTH 880 0
DWIDTH 22 0
BBX 21 19 0 0
BITMAP
01C000
00C000
006000
003000
000000
000000
C02018
606030
607030
307060
30D860
18D8C0
1888C0
0D8CC0
0D8D80
0D0580
070700
070700
020200
ENDCHAR
STARTCHAR 1E82
ENCODING 7810
SWIDTH 920 0
DWIDTH 23 0
BBX 21 23 1 0
BITMAP
000E00
000C00
001800
003000
000000
C02018
C07018
607030
607030
60D830
60D870
30D860
318C60
318C60
198CC0
1B06C0
1B06C0
1B06C0
0E0380
0E0380
0E0380
0C0180
040100
ENDCHAR
STARTCHAR 1E83
ENCODING 7811
SWIDTH 880 0
DWIDTH 22 0
BBX 21 19 0 0
BITMAP
001C00
001800
003000
006000
000000
000000
C02018
606030
607030
307060
30D860
18D8C0
1888C0
0D8CC0
0D8D80
0D0580
070700
070700
020200
ENDCHAR
STARTCHAR 1E84
ENCODING 7812
SWIDTH 960 0
DWIDTH 24 0
BBX 21 22 1 0
BITMAP
01CE00
01CE00
01CE00
000000
C02018
C07018
607030
607030
60D830
60D870
30D860
318C60
318C60
198CC0
1B06C0
1B06C0
1B06C0
0E0380
0E0380
0E0380
0C0180
040100
ENDCHAR
STARTCHAR 1E85
ENCODING 7813
SWIDTH 880 0
DWIDTH 22 0
BBX 21 18 0 0
BITMAP
01CE00
01CE00
01CE00
000000
000000
C02018
606030
607030
307060
30D860
18D8C0
1888C0
0D8CC0
0D8D80
0D0580
070700
070700
020200
ENDCHAR
STARTCHAR 1EF2
ENCODING 7922
SWIDTH 640 0
DWIDTH 16 0
BBX 14 23 1 0
BITMAP
0E00
0600
0300
0180
0000
C00C
6018
3030
3030
1860
0CE0
0CC0
0780
0780
0300
0300
0300
0300
0300
0300
0300
0300
0300
ENDCHAR
STARTCHAR 1EF3
ENCODING 7923
SWIDTH 520 0
DWIDTH 13 0
BBX 12 24 0 -5
BITMAP
1C00
0C00
0600
0300
0000
0000
C030
6060
6060
6060
30C0
30C0
1980
1980
1980
0F00
0F00
0700
0600
0600
0C00
0C00
0C00
1800
ENDCHAR
STARTCHAR 2013
ENCODING 8211
SWIDTH 520 0
DWIDTH 13 0
BBX 13 2 0 6
BITMAP
FFF8
FFF8
ENDCHAR
STARTCHAR 2014
ENCODING 8212
SWIDTH 1000 0
DWIDTH 25 0
BBX 25 2 0 6
BITMAP
FFFFFF80
FFFFFF80
ENDCHAR
STARTCHAR 2015
ENCODING 8213
SWIDTH 760 0
DWIDTH 19 0
BBX 19 2 0 6
BITMAP
FFFFE0
FFFFE0
ENDCHAR
STARTCHAR 2017
ENCODING 8215
SWIDTH 520 0
DWIDTH 13 0
BBX 15 3 -1 -5
BITMAP
FFFE
0000
FFFE
ENDCHAR
STARTCHAR 2018
ENCODING 8216
SWIDTH 360 0
DWIDTH 9 0
BBX 2 6 4 12
BITMAP
40
80
80
C0
C0
C0
ENDCHAR
STARTCHAR 2019
ENCODING 8217
SWIDTH 360 0
DWIDTH 9 0
BBX 2 6 3 12
BITMAP
C0
C0
C0
40
40
80
ENDCHAR
STARTCHAR 201A
ENCODING 8218
SWIDTH 360 0
DWIDTH 9 0
BBX 2 6 3 -3
BITMAP
C0
C0
C0
40
40
80
ENDCHAR
STARTCHAR 201B
ENCODING 8219
SWIDTH 360 0
DWIDTH 9 0
BBX 2 6 3 12
BITMAP
C0
C0
C0
80
80
40
ENDCHAR
STARTCHAR 201C
ENCODING 8220
SWIDTH 520 0
DWIDTH 13 0
BBX 7 6 3 12
BITMAP
42
84
84
C6
C6
C6
ENDCHAR
STARTCHAR 201D
ENCODING 8221
SWIDTH 480 0
DWIDTH 12 0
BBX 7 6 2 12
BITMAP
C6
C6
C6
42
42
84
ENDCHAR
STARTCHAR 201E
ENCODING 8222
SWIDTH 520 0
DWIDTH 13 0
BBX 7 6 2 -3
BITMAP
C6
C6
C6
42
42
84
ENDCHAR
STARTCHAR 2020
ENCODING 8224
SWIDTH 560 0
DWIDTH 14 0
BBX 10 22 2 -4
BITMAP
0C00
0C00
0C00
0C00
0C00
FFC0
FFC0
0C00
0C00
0C00
0C00
0C00
0C00
0C00
0C00
0C00
0C00
0C00
0C00
0C00
0C00
0C00
ENDCHAR
STARTCHAR 2021
ENCODING 8225
SWIDTH 560 0
DWIDTH 14 0
BBX 10 22 2 -4
BITMAP
0C00
0C00
0C00
0C00
FFC0
FFC0
0C00
0C00
0C00
0C00
0C00
0C00
0C00
0C00
0C00
0C00
FFC0
FFC0
0C00
0C00
0C00
0C00
ENDCHAR
STARTCHAR 2022
ENCODING 8226
SWIDTH 560 0
DWIDTH 14 0
BBX 7 8 3 5
BITMAP
38
7C
FE
FE
FE
FE
7C
38
ENDCHAR
STARTCHAR 2026
ENCODING 8230
SWIDTH 960 0
DWIDTH 24 0
BBX 19 3 2 0
BITMAP
E0E0E0
E0E0E0
E0E0E0
ENDCHAR
STARTCHAR 2030
ENCODING 8240
SWIDTH 1080 0
DWIDTH 27 0
BBX 26 19 0 -1
BITMAP
3C0E0000
7FFC0000
E7D80000
C3180000
C3300000
C3700000
E7600000
7EC00000
3CC00000
019E0F00
033F1F80
0373B9C0
0661B0C0
0C61B0C0
0C61B0C0
1873B9C0
183F1F80
301E0F00
60000000
ENDCHAR
STARTCHAR 2032
ENCODING 8242
SWIDTH 200 0
DWIDTH 5 0
BBX 3 6 1 12
BITMAP
60
60
40
C0
C0
80
ENDCHAR
STARTCHAR 2033
ENCODING 8243
SWIDTH 320 0
DWIDTH 8 0
BBX 7 6 1 12
BITMAP
C6
C6
C6
C6
84
84
ENDCHAR
STARTCHAR 2039
ENCODING 8249
SWIDTH 280 0
DWIDTH 7 0
BBX 5 13 1 0
BITMAP
18
30
30
60
60
E0
C0
C0
60
60
30
30
18
ENDCHAR
STARTCHAR 203A
ENCODING 8250
SWIDTH 280 0
DWIDTH 7 0
BBX 5 13 1 0
BITMAP
C0
60
60
30
30
18
18
38
30
30
60
60
C0
ENDCHAR
STARTCHAR 203C
ENCODING 8252
SWIDTH 520 0
DWIDTH 13 0
BBX 11 18 1 0
BITMAP
60C0
60C0
60C0
60C0
60C0
60C0
60C0
60C0
60C0
60C0
60C0
60C0
60C0
0000
0000
60C0
F1E0
60C0
ENDCHAR
STARTCHAR 203E
ENCODING 8254
SWIDTH 560 0
DWIDTH 14 0
BBX 16 1 -1 22
BITMAP
FFFF
ENDCHAR
STARTCHAR 2044
ENCODING 8260
SWIDTH 160 0
DWIDTH 4 0
BBX 14 18 -5 0
BITMAP
000C
0018
0030
0030
0060
00C0
00C0
0180
0300
0300
0600
0C00
0C00
1800
3000
3000
6000
C000
ENDCHAR
STARTCHAR 207F
ENCODING 8319
SWIDTH 360 0
DWIDTH 9 0
BBX 7 9 1 7
BITMAP
DC
FE
E6
C6
C6
C6
C6
C6
C6
ENDCHAR
STARTCHAR 20A3
ENCODING 8355
SWIDTH 480 0
DWIDTH 12 0
BBX 11 18 0 0
BITMAP
3FE0
3FE0
3000
3000
3000
3000
3000
3FE0
3FE0
3000
3000
3000
3000
FE00
FE00
3000
3000
3000
ENDCHAR
STARTCHAR 20A4
ENCODING 8356
SWIDTH 560 0
DWIDTH 14 0
BBX 13 18 0 0
BITMAP
07C0
0FE0
1C60
1830
1830
1800
7FC0
7FC0
0C00
7FC0
7FC0
0C00
0C00
7C18
FC18
DF38
FFF0
71E0
ENDCHAR
STARTCHAR 20A7
ENCODING 8359
SWIDTH 1080 0
DWIDTH 27 0
BBX 24 18 2 0
BITMAP
FE0C00
FF8C00
C18C00
C0CC00
C0CC00
C0FFFC
C0FFFF
C1CC62
FF8C60
FF0C60
C00C38
C00C1C
C00C0E
C00C03
C00C03
C00C47
C00CFE
C00C3C
ENDCHAR
STARTCHAR 20AC
ENCODING 8364
SWIDTH 560 0
DWIDTH 14 0
BBX 12 18 1 0
BITMAP
01F0
07F0
0E00
1C00
3000
3000
FFE0
FFE0
6000
6000
FFC0
FFC0
7000
3000
1800
1E00
07F0
01F0
ENDCHAR
STARTCHAR 2105
ENCODING 8453
SWIDTH 880 0
DWIDTH 22 0
BBX 20 18 1 0
BITMAP
3C0300
7E0600
E30600
C00C00
C01800
C01800
E33000
7E3000
3C6000
0063C0
00C7E0
00CE70
018C30
038C30
030C30
060E70
0607E0
0C03C0
ENDCHAR
STARTCHAR 2113
ENCODING 8467
SWIDTH 360 0
DWIDTH 9 0
BBX 8 18 0 0
BITMAP
1E
33
33
33
33
36
36
3C
38
30
30
70
F0
70
30
33
3F
1E
ENDCHAR
STARTCHAR 2116
ENCODING 8470
SWIDTH 1080 0
DWIDTH 27 0
BBX 24 18 2 0
BITMAP
800C00
C00C00
E00C00
E00C00
F00C00
D80C00
CC0C00
C60C3C
C30C42
C30C81
C18C81
C0CC81
C06C81
C03C42
C01C3C
C01C00
C00C00
C004FF
ENDCHAR
STARTCHAR 2122
ENCODING 8482
SWIDTH 1000 0
DWIDTH 25 0
BBX 25 11 0 7
BITMAP
FFCE0380
FFCF0780
0C0F0780
0C0D8D80
0C0D8D80
0C0DDD80
0C0CD980
0C0CD980
0C0C7180
0C0C7180
0C0C2180
ENDCHAR
STARTCHAR 2126
ENCODING 8486
SWIDTH 760 0
DWIDTH 19 0
BBX 16 18 2 0
BITMAP
07E0
1FF8
3C1C
700E
6006
E007
C003
C003
C003
C003
C003
C006
6006
700C
381C
0C30
FE7F
FE7F
ENDCHAR
STARTCHAR 212E
ENCODING 8494
SWIDTH 600 0
DWIDTH 15 0
BBX 13 14 1 0
BITMAP
0F80
3060
6030
6030
E038
E038
FFF8
E000
E000
E000
6010
6030
3060
0F80
ENDCHAR
STARTCHAR 215B
ENCODING 8539
SWIDTH 840 0
DWIDTH 21 0
BBX 18 18 2 0
BITMAP
700C00
F01800
301800
303000
306000
306000
30C000
318000
318000
030F80
031FC0
0618C0
0C0F80
0C0F80
1818C0
3018C0
301FC0
600F80
ENDCHAR
STARTCHAR 215C
ENCODING 8540
SWIDTH 840 0
DWIDTH 21 0
BBX 20 18 0 0
BITMAP
780180
FC0300
CC0300
180600
1C0C00
060C00
C61800
7E1800
7C3000
0063E0
0067F0
00C630
0183E0
0183E0
030630
030630
0607F0
0C03E0
ENDCHAR
STARTCHAR 215D
ENCODING 8541
SWIDTH 840 0
DWIDTH 21 0
BBX 19 18 1 0
BITMAP
3E0300
3E0600
600600
7C0C00
7E1800
061800
C63000
FC6000
786000
00C7C0
00CFE0
018C60
0307C0
0307C0
060C60
0C0C60
0C0FE0
1807C0
ENDCHAR
STARTCHAR 215E
ENCODING 8542
SWIDTH 840 0
DWIDTH 21 0
BBX 19 18 1 0
BITMAP
FE0600
FC0C00
0C0C00
181800
303000
303000
606000
C0C000
C0C000
0187C0
018FE0
030C60
0607C0
0607C0
0C0C60
180C60
180FE0
3007C0
ENDCHAR
STARTCHAR 2190
ENCODING 8592
SWIDTH 1000 0
DWIDTH 25 0
BBX 23 9 1 2
BITMAP
040000
080000
180000
700000
FFFFFE
700000
180000
080000
040000
ENDCHAR
STARTCHAR 2191
ENCODING 8593
SWIDTH 520 0
DWIDTH 13 0
BBX 9 23 2 -5
BITMAP
0800
1C00
1C00
3E00
6B00
8880
0800
0800
0800
0800
0800
0800
0800
0800
0800
0800
0800
0800
0800
0800
0800
0800
0800
ENDCHAR
STARTCHAR 2192
ENCODING 8594
SWIDTH 1000 0
DWIDTH 25 0
BBX 23 9 1 2
BITMAP
000040
000020
000030
00001C
FFFFFE
00001C
000030
000020
000040
ENDCHAR
STARTCHAR 2193
ENCODING 8595
SWIDTH 520 0
DWIDTH 13 0
BBX 9 23 2 -5
BITMAP
0800
0800
0800
0800
0800
0800
0800
0800
0800
0800
0800
0800
0800
0800
0800
0800
0800
8880
6B00
3E00
1C00
1C00
0800
ENDCHAR
STARTCHAR 2194
ENCODING 8596
SWIDTH 1000 0
DWIDTH 25 0
BBX 23 9 1 2
BITMAP
040040
080020
180030
70001C
FFFFFE
70001C
180030
080020
040040
ENDCHAR
STARTCHAR 2195
ENCODING 8597
SWIDTH 520 0
DWIDTH 13 0
BBX 9 23 2 -5
BITMAP
0800
1C00
1C00
3E00
6B00
8880
0800
0800
0800
0800
0800
0800
0800
0800
0800
0800
0800
8880
6B00
3E00
1C00
1C00
0800
ENDCHAR
STARTCHAR 21A8
ENCODING 8616
SWIDTH 520 0
DWIDTH 13 0
BBX 9 25 2 -7
BITMAP
0800
1C00
1C00
3E00
6B00
8880
0800
0800
0800
0800
0800
0800
0800
0800
0800
0800
0800
8880
6B00
3E00
1C00
1C00
0800
0000
FF80
ENDCHAR
STARTCHAR 2202
ENCODING 8706
SWIDTH 480 0
DWIDTH 12 0
BBX 11 18 0 0
BITMAP
0380
07C0
0CC0
1860
0860
0060
0060
07E0
1FE0
3C60
7060
E0C0
C0C0
C0C0
C180
E300
7E00
3C00
ENDCHAR
STARTCHAR 2206
ENCODING 8710
SWIDTH 600 0
DWIDTH 15 0
BBX 15 17 0 0
BITMAP
0080
0080
0180
01C0
02C0
0260
0460
0460
0830
0830
1038
1018
2018
200C
400C
400C
FFFE
ENDCHAR
STARTCHAR 220F
ENCODING 8719
SWIDTH 840 0
DWIDTH 21 0
BBX 17 23 2 -5
BITMAP
FFFF80
FFFF80
C00180
C00180
C00180
C00180
C00180
C00180
C00180
C00180
C00180
C00180
C00180
C00180
C00180
C00180
C00180
C00180
C00180
C00180
C00180
C00180
C00180
ENDCHAR
STARTCHAR 2211
ENCODING 8721
SWIDTH 720 0
DWIDTH 18 0
BBX 15 23 2 -5
BITMAP
FFFE
FFFE
E000
6000
3000
1800
1C00
0C00
0600
0300
0380
0180
0380
0700
0600
0C00
1C00
3800
3000
6000
C000
FFFE
FFFE
ENDCHAR
STARTCHAR 2212
ENCODING 8722
SWIDTH 600 0
DWIDTH 15 0
BBX 12 2 1 8
BITMAP
FFF0
FFF0
ENDCHAR
STARTCHAR 2215
ENCODING 8725
SWIDTH 160 0
DWIDTH 4 0
BBX 14 18 -5 0
BITMAP
000C
0018
0030
0030
0060
00C0
00C0
0180
0300
0300
0600
0C00
0C00
1800
3000
3000
6000
C000
ENDCHAR
STARTCHAR 2219
ENCODING 8729
SWIDTH 280 0
DWIDTH 7 0
BBX 3 3 2 7
BITMAP
E0
E0
E0
ENDCHAR
STARTCHAR 221A
ENCODING 8730
SWIDTH 560 0
DWIDTH 14 0
BBX 13 23 1 0
BITMAP
0008
0008
0008
0010
0010
0010
0010
0010
0010
0020
1020
7020
9820
1820
0C20
0E40
0640
0740
0340
01C0
01C0
0080
0080
ENDCHAR
STARTCHAR 221E
ENCODING 8734
SWIDTH 720 0
DWIDTH 18 0
BBX 14 9 2 4
BITMAP
0070
71F8
F99C
CF0C
C60C
CF0C
F99C
71F8
0070
ENDCHAR
STARTCHAR 221F
ENCODING 8735
SWIDTH 960 0
DWIDTH 24 0
BBX 16 16 4 0
BITMAP
8000
8000
8000
8000
8000
8000
8000
8000
8000
8000
8000
8000
8000
8000
8000
FFFF
ENDCHAR
STARTCHAR 2229
ENCODING 8745
SWIDTH 600 0
DWIDTH 15 0
BBX 11 18 2 0
BITMAP
1E00
3180
4040
4040
8020
8020
8020
8020
8020
8020
8020
8020
8020
8020
8020
8020
8020
8020
ENDCHAR
STARTCHAR 222B
ENCODING 8747
SWIDTH 240 0
DWIDTH 6 0
BBX 6 26 0 -3
BITMAP
1C
1C
2C
20
20
20
20
30
30
30
30
30
30
30
30
30
30
30
30
30
10
10
10
E0
E0
E0
ENDCHAR
STARTCHAR 2248
ENCODING 8776
SWIDTH 560 0
DWIDTH 14 0
BBX 13 9 0 4
BITMAP
7800
FF08
87F8
01F0
0000
7800
FF08
87F8
00F0
ENDCHAR
STARTCHAR 2260
ENCODING 8800
SWIDTH 560 0
DWIDTH 14 0
BBX 13 20 0 -1
BITMAP
0060
00C0
00C0
00C0
0180
0180
FFF8
FFF8
0300
0300
0600
0600
FFF8
FFF8
0C00
0C00
1800
1800
1800
3000
ENDCHAR
STARTCHAR 2261
ENCODING 8801
SWIDTH 600 0
DWIDTH 15 0
BBX 12 14 1 2
BITMAP
FFF0
FFF0
0000
0000
0000
0000
FFF0
FFF0
0000
0000
0000
0000
FFF0
FFF0
ENDCHAR
STARTCHAR 2264
ENCODING 8804
SWIDTH 560 0
DWIDTH 14 0
BBX 13 16 0 1
BITMAP
0008
0078
01F0
07C0
3E00
F800
C000
F800
3E00
07C0
01F0
0078
0008
0000
FFF8
FFF8
ENDCHAR
STARTCHAR 2265
ENCODING 8805
SWIDTH 560 0
DWIDTH 14 0
BBX 13 16 0 1
BITMAP
8000
F000
7C00
1F00
03E0
00F8
0018
00F8
03E0
1F00
7C00
F000
8000
0000
FFF8
FFF8
ENDCHAR
STARTCHAR 2302
ENCODING 8962
SWIDTH 600 0
DWIDTH 15 0
BBX 11 14 2 0
BITMAP
0400
0A00
1B00
3180
60C0
4040
8020
8020
8020
8020
8020
8020
8020
FFE0
ENDCHAR
STARTCHAR 2310
ENCODING 8976
SWIDTH 600 0
DWIDTH 15 0
BBX 12 7 1 6
BITMAP
FFF0
FFF0
C000
C000
C000
C000
C000
ENDCHAR
STARTCHAR 2320
ENCODING 8992
SWIDTH 600 0
DWIDTH 15 0
BBX 5 27 7 -6
BITMAP
78
98
80
80
80
80
80
80
80
80
80
80
80
80
80
80
80
80
80
80
80
80
80
80
80
80
80
ENDCHAR
STARTCHAR 2321
ENCODING 8993
SWIDTH 600 0
DWIDTH 15 0
BBX 5 27 3 -6
BITMAP
08
08
08
08
08
08
08
08
08
08
08
08
08
08
08
08
08
08
08
08
08
08
08
08
08
C8
F0
ENDCHAR
STARTCHAR 2500
ENCODING 9472
SWIDTH 720 0
DWIDTH 18 0
BBX 18 2 0 7
BITMAP
FFFFC0
FFFFC0
ENDCHAR
STARTCHAR 2502
ENCODING 9474
SWIDTH 720 0
DWIDTH 18 0
BBX 2 31 8 -8
BITMAP
C0
C0
C0
C0
C0
C0
C0
C0
C0
C0
C0
C0
C0
C0
C0
C0
C0
C0
C0
C0
C0
C0
C0
C0
C0
C0
C0
C0
C0
C0
C0
ENDCHAR
STARTCHAR 250C
ENCODING 9484
SWIDTH 720 0
DWIDTH 18 0
BBX 10 17 8 -8
BITMAP
FFC0
FFC0
C000
C000
C000
C000
C000
C000
C000
C000
C000
C000
C000
C000
C000
C000
C000
ENDCHAR
STARTCHAR 2510
ENCODING 9488
SWIDTH 720 0
DWIDTH 18 0
BBX 10 17 0 -8
BITMAP
FFC0
FFC0
00C0
00C0
00C0
00C0
00C0
00C0
00C0
00C0
00C0
00C0
00C0
00C0
00C0
00C0
00C0
ENDCHAR
STARTCHAR 2514
ENCODING 9492
SWIDTH 720 0
DWIDTH 18 0
BBX 10 16 8 7
BITMAP
C000
C000
C000
C000
C000
C000
C000
C000
C000
C000
C000
C000
C000
C000
FFC0
FFC0
ENDCHAR
STARTCHAR 2518
ENCODING 9496
SWIDTH 720 0
DWIDTH 18 0
BBX 10 16 0 7
BITMAP
00C0
00C0
00C0
00C0
00C0
00C0
00C0
00C0
00C0
00C0
00C0
00C0
00C0
00C0
FFC0
FFC0
ENDCHAR
STARTCHAR 251C
ENCODING 9500
SWIDTH 720 0
DWIDTH 18 0
BBX 10 31 8 -8
BITMAP
C000
C000
C000
C000
C000
C000
C000
C000
C000
C000
C000
C000
C000
C000
FFC0
FFC0
C000
C000
C000
C000
C000
C000
C000
C000
C000
C000
C000
C000
C000
C000
C000
ENDCHAR
STARTCHAR 2524
ENCODING 9508
SWIDTH 720 0
DWIDTH 18 0
BBX 10 31 0 -8
BITMAP
00C0
00C0
00C0
00C0
00C0
00C0
00C0
00C0
00C0
00C0
00C0
00C0
00C0
00C0
FFC0
FFC0
00C0
00C0
00C0
00C0
00C0
00C0
00C0
00C0
00C0
00C0
00C0
00C0
00C0
00C0
00C0
ENDCHAR
STARTCHAR 252C
ENCODING 9516
SWIDTH 720 0
DWIDTH 18 0
BBX 18 17 0 -8
BITMAP
FFFFC0
FFFFC0
00C000
00C000
00C000
00C000
00C000
00C000
00C000
00C000
00C000
00C000
00C000
00C000
00C000
00C000
00C000
ENDCHAR
STARTCHAR 2534
ENCODING 9524
SWIDTH 720 0
DWIDTH 18 0
BBX 18 16 0 7
BITMAP
00C000
00C000
00C000
00C000
00C000
00C000
00C000
00C000
00C000
00C000
00C000
00C000
00C000
00C000
FFFFC0
FFFFC0
ENDCHAR
STARTCHAR 253C
ENCODING 9532
SWIDTH 720 0
DWIDTH 18 0
BBX 18 31 0 -8
BITMAP
00C000
00C000
00C000
00C000
00C000
00C000
00C000
00C000
00C000
00C000
00C000
00C000
00C000
00C000
FFFFC0
FFFFC0
00C000
00C000
00C000
00C000
00C000
00C000
00C000
00C000
00C000
00C000
00C000
00C000
00C000
00C000
00C000
ENDCHAR
STARTCHAR 2550
ENCODING 9552
SWIDTH 720 0
DWIDTH 18 0
BBX 18 7 0 4
BITMAP
FFFFC0
FFFFC0
000000
000000
000000
FFFFC0
FFFFC0
ENDCHAR
STARTCHAR 2551
ENCODING 9553
SWIDTH 720 0
DWIDTH 18 0
BBX 6 31 6 -8
BITMAP
CC
CC
CC
CC
CC
CC
CC
CC
CC
CC
CC
CC
CC
CC
CC
CC
CC
CC
CC
CC
CC
CC
CC
CC
CC
CC
CC
CC
CC
CC
CC
ENDCHAR
STARTCHAR 2552
ENCODING 9554
SWIDTH 720 0
DWIDTH 18 0
BBX 10 19 8 -8
BITMAP
FFC0
FFC0
C000
C000
C000
FFC0
FFC0
C000
C000
C000
C000
C000
C000
C000
C000
C000
C000
C000
C000
ENDCHAR
STARTCHAR 2553
ENCODING 9555
SWIDTH 720 0
DWIDTH 18 0
BBX 12 17 6 -8
BITMAP
FFF0
FFF0
FC00
CC00
CC00
CC00
CC00
CC00
CC00
CC00
CC00
CC00
CC00
CC00
CC00
CC00
CC00
ENDCHAR
STARTCHAR 2554
ENCODING 9556
SWIDTH 720 0
DWIDTH 18 0
BBX 12 19 6 -8
BITMAP
FFF0
FFF0
C000
C000
C000
CFF0
CFF0
CC00
CC00
CC00
CC00
CC00
CC00
CC00
CC00
CC00
CC00
CC00
CC00
ENDCHAR
STARTCHAR 2555
ENCODING 9557
SWIDTH 720 0
DWIDTH 18 0
BBX 10 19 0 -8
BITMAP
FFC0
FFC0
00C0
00C0
00C0
FFC0
FFC0
00C0
00C0
00C0
00C0
00C0
00C0
00C0
00C0
00C0
00C0
00C0
00C0
ENDCHAR
STARTCHAR 2556
ENCODING 9558
SWIDTH 720 0
DWIDTH 18 0
BBX 12 17 0 -8
BITMAP
FFF0
FFF0
0330
0330
0330
0330
0330
0330
0330
0330
0330
0330
0330
0330
0330
0330
0330
ENDCHAR
STARTCHAR 2557
ENCODING 9559
SWIDTH 720 0
DWIDTH 18 0
BBX 12 19 0 -8
BITMAP
FFF0
FFF0
0030
0030
0030
FF30
FF30
0330
0330
0330
0330
0330
0330
0330
0330
0330
0330
0330
0330
ENDCHAR
STARTCHAR 2558
ENCODING 9560
SWIDTH 720 0
DWIDTH 18 0
BBX 10 19 8 4
BITMAP
C000
C000
C000
C000
C000
C000
C000
C000
C000
C000
C000
C000
FFC0
FFC0
C000
C000
C000
FFC0
FFC0
ENDCHAR
STARTCHAR 2559
ENCODING 9561
SWIDTH 720 0
DWIDTH 18 0
BBX 12 16 6 7
BITMAP
CC00
CC00
CC00
CC00
CC00
CC00
CC00
CC00
CC00
CC00
CC00
CC00
CC00
CC00
FFF0
FFF0
ENDCHAR
STARTCHAR 255A
ENCODING 9562
SWIDTH 720 0
DWIDTH 18 0
BBX 12 19 6 4
BITMAP
CC00
CC00
CC00
CC00
CC00
CC00
CC00
CC00
CC00
CC00
CC00
CC00
CFF0
CFF0
C000
C000
C000
FFF0
FFF0
ENDCHAR
STARTCHAR 255B
ENCODING 9563
SWIDTH 720 0
DWIDTH 18 0
BBX 10 19 0 4
BITMAP
00C0
00C0
00C0
00C0
00C0
00C0
00C0
00C0
00C0
00C0
00C0
00C0
FFC0
FFC0
00C0
00C0
00C0
FFC0
FFC0
ENDCHAR
STARTCHAR 255C
ENCODING 9564
SWIDTH 720 0
DWIDTH 18 0
BBX 12 16 0 7
BITMAP
0330
0330
0330
0330
0330
0330
0330
0330
0330
0330
0330
0330
0330
0330
FFF0
FFF0
ENDCHAR
STARTCHAR 255D
ENCODING 9565
SWIDTH 720 0
DWIDTH 18 0
BBX 12 19 0 4
BITMAP
0330
0330
0330
0330
0330
0330
0330
0330
0330
0330
0330
0330
FF30
FF30
0030
0030
0030
FFF0
FFF0
ENDCHAR
STARTCHAR 255E
ENCODING 9566
SWIDTH 720 0
DWIDTH 18 0
BBX 10 31 8 -8
BITMAP
C000
C000
C000
C000
C000
C000
C000
C000
C000
C000
C000
C000
FFC0
FFC0
C000
C000
C000
FFC0
FFC0
C000
C000
C000
C000
C000
C000
C000
C000
C000
C000
C000
C000
ENDCHAR
STARTCHAR 255F
ENCODING 9567
SWIDTH 720 0
DWIDTH 18 0
BBX 12 31 6 -8
BITMAP
CC00
CC00
CC00
CC00
CC00
CC00
CC00
CC00
CC00
CC00
CC00
CC00
CC00
CC00
CFF0
CFF0
CC00
CC00
CC00
CC00
CC00
CC00
CC00
CC00
CC00
CC00
CC00
CC00
CC00
CC00
CC00
ENDCHAR
STARTCHAR 2560
ENCODING 9568
SWIDTH 720 0
DWIDTH 18 0
BBX 12 31 6 -8
BITMAP
CC00
CC00
CC00
CC00
CC00
CC00
CC00
CC00
CC00
CC00
CC00
CC00
CFF0
CFF0
C000
C000
C000
CFF0
CFF0
CC00
CC00
CC00
CC00
CC00
CC00
CC00
CC00
CC00
CC00
CC00
CC00
ENDCHAR
STARTCHAR 2561
ENCODING 9569
SWIDTH 720 0
DWIDTH 18 0
BBX 10 31 0 -8
BITMAP
00C0
00C0
00C0
00C0
00C0
00C0
00C0
00C0
00C0
00C0
00C0
00C0
FFC0
FFC0
00C0
00C0
00C0
FFC0
FFC0
00C0
00C0
00C0
00C0
00C0
00C0
00C0
00C0
00C0
00C0
00C0
00C0
ENDCHAR
STARTCHAR 2562
ENCODING 9570
SWIDTH 720 0
DWIDTH 18 0
BBX 12 31 0 -8
BITMAP
0330
0330
0330
0330
0330
0330
0330
0330
0330
0330
0330
0330
0330
0330
FF30
FF30
0330
0330
0330
0330
0330
0330
0330
0330
0330
0330
0330
0330
0330
0330
0330
ENDCHAR
STARTCHAR 2563
ENCODING 9571
SWIDTH 720 0
DWIDTH 18 0
BBX 12 31 0 -8
BITMAP
0330
0330
0330
0330
0330
0330
0330
0330
0330
0330
0330
0330
FF30
FF30
0030
0030
0030
FF30
FF30
0330
0330
0330
0330
0330
0330
0330
0330
0330
0330
0330
0330
ENDCHAR
STARTCHAR 2564
ENCODING 9572
SWIDTH 720 0
DWIDTH 18 0
BBX 18 19 0 -8
BITMAP
FFFFC0
FFFFC0
000000
000000
000000
FFFFC0
FFFFC0
00C000
00C000
00C000
00C000
00C000
00C000
00C000
00C000
00C000
00C000
00C000
00C000
ENDCHAR
STARTCHAR 2565
ENCODING 9573
SWIDTH 720 0
DWIDTH 18 0
BBX 18 17 0 -8
BITMAP
FFFFC0
FFFFC0
03F000
033000
033000
033000
033000
033000
033000
033000
033000
033000
033000
033000
033000
033000
033000
ENDCHAR
STARTCHAR 2566
ENCODING 9574
SWIDTH 720 0
DWIDTH 18 0
BBX 18 19 0 -8
BITMAP
FFFFC0
FFFFC0
000000
000000
000000
FF3FC0
FF3FC0
033000
033000
033000
033000
033000
033000
033000
033000
033000
033000
033000
033000
ENDCHAR
STARTCHAR 2567
ENCODING 9575
SWIDTH 720 0
DWIDTH 18 0
BBX 18 19 0 4
BITMAP
00C000
00C000
00C000
00C000
00C000
00C000
00C000
00C000
00C000
00C000
00C000
00C000
FFFFC0
FFFFC0
000000
000000
000000
FFFFC0
FFFFC0
ENDCHAR
STARTCHAR 2568
ENCODING 9576
SWIDTH 720 0
DWIDTH 18 0
BBX 18 16 0 7
BITMAP
033000
033000
033000
033000
033000
033000
033000
033000
033000
033000
033000
033000
033000
033000
FFFFC0
FFFFC0
ENDCHAR
STARTCHAR 2569
ENCODING 9577
SWIDTH 720 0
DWIDTH 18 0
BBX 18 19 0 4
BITMAP
033000
033000
033000
033000
033000
033000
033000
033000
033000
033000
033000
033000
FF3FC0
FF3FC0
000000
000000
000000
FFFFC0
FFFFC0
ENDCHAR
STARTCHAR 256A
ENCODING 9578
SWIDTH 720 0
DWIDTH 18 0
BBX 18 31 0 -8
BITMAP
00C000
00C000
00C000
00C000
00C000
00C000
00C000
00C000
00C000
00C000
00C000
00C000
FFFFC0
FFFFC0
00C000
00C000
00C000
FFFFC0
FFFFC0
00C000
00C000
00C000
00C000
00C000
00C000
00C000
00C000
00C000
00C000
00C000
00C000
ENDCHAR
STARTCHAR 256B
ENCODING 9579
SWIDTH 720 0
DWIDTH 18 0
BBX 18 31 0 -8
BITMAP
033000
033000
033000
033000
033000
033000
033000
033000
033000
033000
033000
033000
033000
033000
FFFFC0
FFFFC0
033000
033000
033000
033000
033000
033000
033000
033000
033000
033000
033000
033000
033000
033000
033000
ENDCHAR
STARTCHAR 256C
ENCODING 9580
SWIDTH 720 0
DWIDTH 18 0
BBX 18 31 0 -8
BITMAP
033000
033000
033000
033000
033000
033000
033000
033000
033000
033000
033000
033000
FF3FC0
FF3FC0
000000
000000
000000
FF3FC0
FF3FC0
033000
033000
033000
033000
033000
033000
033000
033000
033000
033000
033000
033000
ENDCHAR
STARTCHAR 2580
ENCODING 9600
SWIDTH 720 0
DWIDTH 18 0
BBX 18 15 0 8
BITMAP
FFFFC0
FFFFC0
FFFFC0
FFFFC0
FFFFC0
FFFFC0
FFFFC0
FFFFC0
FFFFC0
FFFFC0
FFFFC0
FFFFC0
FFFFC0
FFFFC0
FFFFC0
ENDCHAR
STARTCHAR 2584
ENCODING 9604
SWIDTH 720 0
DWIDTH 18 0
BBX 18 16 0 -8
BITMAP
FFFFC0
FFFFC0
FFFFC0
FFFFC0
FFFFC0
FFFFC0
FFFFC0
FFFFC0
FFFFC0
FFFFC0
FFFFC0
FFFFC0
FFFFC0
FFFFC0
FFFFC0
FFFFC0
ENDCHAR
STARTCHAR 2588
ENCODING 9608
SWIDTH 720 0
DWIDTH 18 0
BBX 18 31 0 -8
BITMAP
FFFFC0
FFFFC0
FFFFC0
FFFFC0
FFFFC0
FFFFC0
FFFFC0
FFFFC0
FFFFC0
FFFFC0
FFFFC0
FFFFC0
FFFFC0
FFFFC0
FFFFC0
FFFFC0
FFFFC0
FFFFC0
FFFFC0
FFFFC0
FFFFC0
FFFFC0
FFFFC0
FFFFC0
FFFFC0
FFFFC0
FFFFC0
FFFFC0
FFFFC0
FFFFC0
FFFFC0
ENDCHAR
STARTCHAR 258C
ENCODING 9612
SWIDTH 720 0
DWIDTH 18 0
BBX 9 31 0 -8
BITMAP
FF80
FF80
FF80
FF80
FF80
FF80
FF80
FF80
FF80
FF80
FF80
FF80
FF80
FF80
FF80
FF80
FF80
FF80
FF80
FF80
FF80
FF80
FF80
FF80
FF80
FF80
FF80
FF80
FF80
FF80
FF80
ENDCHAR
STARTCHAR 2590
ENCODING 9616
SWIDTH 720 0
DWIDTH 18 0
BBX 9 31 9 -8
BITMAP
FF80
FF80
FF80
FF80
FF80
FF80
FF80
FF80
FF80
FF80
FF80
FF80
FF80
FF80
FF80
FF80
FF80
FF80
FF80
FF80
FF80
FF80
FF80
FF80
FF80
FF80
FF80
FF80
FF80
FF80
FF80
ENDCHAR
STARTCHAR 2591
ENCODING 9617
SWIDTH 720 0
DWIDTH 18 0
BBX 17 29 1 -6
BITMAP
C30C00
C30C00
000000
186080
186080
000000
C30C00
C30C00
000000
186080
186080
000000
C30C00
C30C00
000000
186080
186080
000000
C30C00
C30C00
000000
000000
186080
000000
000000
C30C00
000000
000000
186080
ENDCHAR
STARTCHAR 2592
ENCODING 9618
SWIDTH 720 0
DWIDTH 18 0
BBX 18 29 0 -6
BITMAP
6DB640
6DB640
000000
924980
924980
000000
6DB640
6DB640
000000
924980
924980
000000
6DB640
6DB640
000000
924980
924980
000000
6DB640
6DB640
000000
000000
924980
000000
000000
6DB640
000000
000000
924980
ENDCHAR
STARTCHAR 2593
ENCODING 9619
SWIDTH 720 0
DWIDTH 18 0
BBX 18 31 0 -8
BITMAP
249240
249240
FFFFC0
DB6D80
DB6D80
FFFFC0
249240
249240
FFFFC0
DB6D80
DB6D80
FFFFC0
249240
249240
FFFFC0
DB6D80
DB6D80
FFFFC0
E49240
249240
FFFFC0
FFFFC0
DB6D80
FFFFC0
FFFFC0
249240
FFFFC0
FFFFC0
DB6D80
FFFFC0
FFFFC0
ENDCHAR
STARTCHAR 25A0
ENCODING 9632
SWIDTH 600 0
DWIDTH 15 0
BBX 11 12 2 0
BITMAP
FFE0
FFE0
FFE0
FFE0
FFE0
FFE0
FFE0
FFE0
FFE0
FFE0
FFE0
FFE0
ENDCHAR
STARTCHAR 25A1
ENCODING 9633
SWIDTH 600 0
DWIDTH 15 0
BBX 11 12 2 0
BITMAP
FFE0
8020
8020
8020
8020
8020
8020
8020
8020
8020
8020
FFE0
ENDCHAR
STARTCHAR 25AA
ENCODING 9642
SWIDTH 360 0
DWIDTH 9 0
BBX 5 6 2 5
BITMAP
F8
F8
F8
F8
F8
F8
ENDCHAR
STARTCHAR 25AB
ENCODING 9643
SWIDTH 360 0
DWIDTH 9 0
BBX 5 6 2 5
BITMAP
F8
88
88
88
88
F8
ENDCHAR
STARTCHAR 25AC
ENCODING 9644
SWIDTH 1000 0
DWIDTH 25 0
BBX 25 5 0 4
BITMAP
FFFFFF80
FFFFFF80
FFFFFF80
FFFFFF80
FFFFFF80
ENDCHAR
STARTCHAR 25B2
ENCODING 9650
SWIDTH 1000 0
DWIDTH 25 0
BBX 17 17 4 0
BITMAP
008000
018000
01C000
03C000
03E000
07E000
07F000
0FF000
0FF800
1FF800
1FFC00
3FFC00
3FFE00
7FFE00
7FFF00
FFFF00
FFFF80
ENDCHAR
STARTCHAR 25BA
ENCODING 9658
SWIDTH 1000 0
DWIDTH 25 0
BBX 17 17 4 0
BITMAP
800000
E00000
F80000
FE0000
FF8000
FFE000
FFF800
FFFE00
FFFF80
FFFE00
FFF800
FFE000
FF8000
FE0000
F80000
E00000
800000
ENDCHAR
STARTCHAR 25BC
ENCODING 9660
SWIDTH 1000 0
DWIDTH 25 0
BBX 17 17 4 0
BITMAP
FFFF80
FFFF00
7FFF00
7FFE00
3FFE00
3FFC00
1FFC00
1FF800
0FF800
0FF000
07F000
07E000
03E000
03C000
01C000
018000
008000
ENDCHAR
STARTCHAR 25C4
ENCODING 9668
SWIDTH 1000 0
DWIDTH 25 0
BBX 17 17 4 0
BITMAP
000080
000380
000F80
003F80
00FF80
03FF80
0FFF80
3FFF80
FFFF80
7FFF80
1FFF80
07FF80
01FF80
007F80
001F80
000780
000180
ENDCHAR
STARTCHAR 25CA
ENCODING 9674
SWIDTH 480 0
DWIDTH 12 0
BBX 11 17 0 0
BITMAP
0E00
1B00
1B00
3180
3180
60C0
60C0
E0E0
C060
C060
60C0
60C0
3180
3180
1B00
1B00
0E00
ENDCHAR
STARTCHAR 25CB
ENCODING 9675
SWIDTH 600 0
DWIDTH 15 0
BBX 11 10 2 2
BITMAP
3F00
60C0
4040
8020
8020
8020
8020
4040
60C0
1F00
ENDCHAR
STARTCHAR 25CF
ENCODING 9679
SWIDTH 600 0
DWIDTH 15 0
BBX 11 11 2 2
BITMAP
1F00
3F80
7FC0
FFE0
FFE0
FFE0
FFE0
FFE0
7FC0
3F80
1F00
ENDCHAR
STARTCHAR 25D8
ENCODING 9688
SWIDTH 600 0
DWIDTH 15 0
BBX 11 12 2 0
BITMAP
FFE0
FFE0
FFE0
FFE0
F1E0
E0E0
E0E0
F1E0
FFE0
FFE0
FFE0
FFE0
ENDCHAR
STARTCHAR 25D9
ENCODING 9689
SWIDTH 600 0
DWIDTH 15 0
BBX 15 14 0 0
BITMAP
FFFE
FFFE
F83E
E7CE
EFEE
DFF6
DFF6
DFF6
DFF6
EFEE
E7CE
F83E
FFFE
FFFE
ENDCHAR
STARTCHAR 25E6
ENCODING 9702
SWIDTH 360 0
DWIDTH 9 0
BBX 7 7 1 5
BITMAP
38
44
82
82
82
44
38
ENDCHAR
STARTCHAR 263A
ENCODING 9786
SWIDTH 1040 0
DWIDTH 26 0
BBX 16 15 5 -1
BITMAP
07E0
1830
300C
6004
4002
8C32
8C32
8003
8003
8002
C822
47C6
210C
1818
0FF0
ENDCHAR
STARTCHAR 263B
ENCODING 9787
SWIDTH 1040 0
DWIDTH 26 0
BBX 16 15 5 -1
BITMAP
07E0
1FF8
3FFC
3FFE
7FFE
73CF
F3CF
FFFF
FFFF
7FFF
7BCE
7C1E
3F7C
1FF8
0FF0
ENDCHAR
STARTCHAR 263C
ENCODING 9788
SWIDTH 920 0
DWIDTH 23 0
BBX 23 23 0 -3
BITMAP
001000
001000
001000
101010
083820
04C640
030180
060080
040040
080040
080020
F8003E
080020
080040
040040
020080
030180
04C640
083820
101010
001000
001000
001000
ENDCHAR
STARTCHAR 2640
ENCODING 9792
SWIDTH 560 0
DWIDTH 14 0
BBX 12 20 1 -3
BITMAP
1F80
6040
4020
8020
8010
8010
8010
8020
4020
2040
1F80
0400
0400
0400
0400
0400
7FC0
0400
0400
0400
ENDCHAR
STARTCHAR 2642
ENCODING 9794
SWIDTH 680 0
DWIDTH 17 0
BBX 15 21 1 -4
BITMAP
0008
0018
0078
0398
002C
0024
0044
0042
0080
0080
0F00
3080
4040
8020
8030
8030
8030
8030
4060
20C0
1F80
ENDCHAR
STARTCHAR 2660
ENCODING 9824
SWIDTH 520 0
DWIDTH 13 0
BBX 12 14 1 0
BITMAP
0400
0600
0F00
1F80
3FC0
7FE0
FFE0
FFF0
FFF0
FDE0
24C0
0400
0E00
7FC0
ENDCHAR
STARTCHAR 2663
ENCODING 9827
SWIDTH 680 0
DWIDTH 17 0
BBX 15 15 1 0
BITMAP
0780
0FC0
0FE0
0FE0
0FC0
7FFC
FFFC
FFFE
FFFE
FEFE
7D7C
3130
0300
0780
1FF0
ENDCHAR
STARTCHAR 2665
ENCODING 9829
SWIDTH 600 0
DWIDTH 15 0
BBX 13 15 1 0
BITMAP
78F0
FDF8
FDF8
FFF8
FFF8
FFF0
7FF0
3FE0
3FC0
1FC0
0F80
0700
0700
0200
0200
ENDCHAR
STARTCHAR 2666
ENCODING 9830
SWIDTH 520 0
DWIDTH 13 0
BBX 11 15 1 0
BITMAP
0400
0C00
0E00
1F00
3F00
7F80
7FC0
FFE0
FFC0
7F80
3F80
1F00
1E00
0C00
0400
ENDCHAR
STARTCHAR 266A
ENCODING 9834
SWIDTH 760 0
DWIDTH 19 0
BBX 19 25 0 -6
BITMAP
001000
001C00
001E00
001F00
001380
0011C0
0010E0
001060
001000
001000
001000
001000
001000
001000
001000
001000
0FD000
3FF000
7FF000
7FF000
FFF000
FFF000
7FE000
3FC000
0E0000
ENDCHAR
STARTCHAR 266B
ENCODING 9835
SWIDTH 1000 0
DWIDTH 25 0
BBX 18 23 4 -5
BITMAP
0001C0
000FC0
007FC0
03FFC0
03FEC0
03E0C0
0300C0
0300C0
0300C0
0300C0
0300C0
0300C0
0300C0
0300C0
031FC0
033FC0
033FC0
7F3F80
FF3F80
FF3F00
FE0000
FE0000
7C0000
ENDCHAR
STARTCHAR F000
ENCODING 61440
SWIDTH 760 0
DWIDTH 19 0
BBX 1 1 0 0
BITMAP
00
ENDCHAR
STARTCHAR F001
ENCODING 61441
SWIDTH 480 0
DWIDTH 12 0
BBX 9 18 1 0
BITMAP
0F00
1F80
3180
3000
3000
FD80
FD80
3180
3180
3180
3180
3180
3180
3180
3180
3180
3180
3180
ENDCHAR
STARTCHAR F002
ENCODING 61442
SWIDTH 480 0
DWIDTH 12 0
BBX 9 18 1 0
BITMAP
0E00
1F00
3380
3180
3180
FD80
FD80
3180
3180
3180
3180
3180
3180
3180
3180
3180
3180
3180
ENDCHAR
STARTCHAR F003
ENCODING 61443
SWIDTH 360 0
DWIDTH 9 0
BBX 8 9 0 9
BITMAP
02
06
0E
1E
3E
7F
FF
06
06
ENDCHAR
STARTCHAR F004
ENCODING 61444
SWIDTH 320 0
DWIDTH 8 0
BBX 3 5 2 -6
BITMAP
60
60
40
C0
80
ENDCHAR
STARTCHAR F005
ENCODING 61445
SWIDTH 320 0
DWIDTH 8 0
BBX 5 3 1 -4
BITMAP
38
18
F0
ENDCHAR
STARTCHAR F006
ENCODING 61446
SWIDTH 560 0
DWIDTH 14 0
BBX 14 13 0 0
BITMAP
FFFC
FFFC
3030
3030
3030
3030
3030
3030
3030
3030
3030
3030
3030
ENDCHAR
STARTCHAR F100
ENCODING 61696
SWIDTH 560 0
DWIDTH 14 0
BBX 11 18 2 0
BITMAP
FFE0
FFE0
C000
C000
C000
C000
C000
C000
C000
C000
C000
C000
C000
C000
C000
C000
C000
C000
ENDCHAR
STARTCHAR F101
ENCODING 61697
SWIDTH 760 0
DWIDTH 19 0
BBX 15 18 2 0
BITMAP
07C0
1FF0
3838
701C
600C
C006
C006
C006
CFE6
CFE6
C006
C006
C006
600C
601C
3838
1FF0
07C0
ENDCHAR
STARTCHAR F102
ENCODING 61698
SWIDTH 840 0
DWIDTH 21 0
BBX 18 20 1 -2
BITMAP
00C000
00C000
07F800
3FFE00
78C780
60C180
C0C1C0
C0C0C0
C0C0C0
C0C0C0
C0C0C0
E0C1C0
60C180
78C780
3FFF00
07F800
00C000
00C000
00C000
00C000
ENDCHAR
STARTCHAR F103
ENCODING 61699
SWIDTH 640 0
DWIDTH 16 0
BBX 14 13 1 0
BITMAP
0F8C
3FFC
7078
6038
C018
C018
C018
C018
C018
6038
7078
3FEC
0F8C
ENDCHAR
STARTCHAR F104
ENCODING 61700
SWIDTH 640 0
DWIDTH 16 0
BBX 14 19 1 0
BITMAP
03F0
0FF0
0E00
0C00
0400
0700
0180
0FE0
3FF0
7038
E018
C00C
C00C
C00C
C00C
6018
7038
3FF0
0FC0
ENDCHAR
STARTCHAR F105
ENCODING 61701
SWIDTH 520 0
DWIDTH 13 0
BBX 11 13 1 0
BITMAP
0FE0
3FE0
7000
6000
C000
FFE0
FFE0
C000
C000
6000
7800
3FE0
07E0
ENDCHAR
STARTCHAR F106
ENCODING 61702
SWIDTH 680 0
DWIDTH 17 0
BBX 15 13 2 0
BITMAP
0FFE
3FFE
7070
6030
C018
C018
C018
C018
C018
6030
7070
3FE0
0F80
ENDCHAR
STARTCHAR F107
ENCODING 61703
SWIDTH 480 0
DWIDTH 12 0
BBX 10 13 1 0
BITMAP
FFC0
FFC0
0C00
0C00
0C00
0C00
0C00
0C00
0C00
0C00
0C00
0C00
0C00
ENDCHAR
STARTCHAR F108
ENCODING 61704
SWIDTH 760 0
DWIDTH 19 0
BBX 16 21 1 -5
BITMAP
0180
0180
0180
0FF0
3FFC
718E
6186
C183
C183
C183
C183
C183
6186
718E
3FFC
0FF0
0180
0180
0180
0180
0180
ENDCHAR
STARTCHAR FB01
ENCODING 64257
SWIDTH 480 0
DWIDTH 12 0
BBX 9 18 1 0
BITMAP
0F00
1F80
3180
3000
3000
FD80
FD80
3180
3180
3180
3180
3180
3180
3180
3180
3180
3180
3180
ENDCHAR
STARTCHAR FB02
ENCODING 64258
SWIDTH 480 0
DWIDTH 12 0
BBX 9 18 1 0
BITMAP
0E00
1F00
3380
3180
3180
FD80
FD80
3180
3180
3180
3180
3180
3180
3180
3180
3180
3180
3180
ENDCHAR
ENDFONT
